M48
METRIC,LZ,000.000
;FILE_FORMAT=3:3
;TYPE=PLATED
;Layer: PTH_Through
;EasyEDA v6.5.8, 2022-07-18 10:06:56
;273c276c2863449b8c9a1f5c07be89c0,0c792c838a6744a9a4735c8e6cb38716,10
;Gerber Generator version 0.2
;Holesize 1 = 0.701 mm
T01C0.701
;Holesize 2 = 0.800 mm
T02C0.800
;Holesize 3 = 0.900 mm
T03C0.900
;Holesize 4 = 0.966 mm
T04C0.966
;Holesize 5 = 1.000 mm
T05C1.000
;Holesize 6 = 1.016 mm
T06C1.016
;Holesize 7 = 1.200 mm
T07C1.200
;Holesize 8 = 1.400 mm
T08C1.400
;Holesize 9 = 1.501 mm
T09C1.501
;Holesize 10 = 1.524 mm
T10C1.524
%
G05
G90
T01
X046101Y023241
X046101Y020701
X046228Y016256
X046228Y013716
X046228Y008636
X046228Y006096
T02
X101981Y008636
X101981Y007366
X101981Y006096
X102108Y047117
X102108Y045847
X102108Y044577
X102108Y026416
X102108Y025146
X102108Y023876
X060437Y046609
X058437Y046609
X045705Y046482
X043705Y046482
T03
X013462Y036576
X026162Y036576
X013462Y019050
X026162Y019050
X013335Y001016
X026035Y001016
X013462Y032131
X023622Y032131
X030480Y006350
X040640Y006350
X013335Y014605
X023495Y014605
X030480Y001143
X040640Y001143
X013335Y-003429
X023495Y-003429
X030480Y-003810
X040640Y-003810
X074422Y041910
X084582Y041910
X097028Y039878
X097028Y050038
X074422Y046990
X084582Y046990
X097282Y019558
X097282Y029718
X074295Y051308
X084455Y051308
X097155Y001778
X097155Y011938
T04
X018161Y041402
X018161Y043942
X018288Y024638
X018288Y027178
X017907Y007112
X017907Y009652
X102362Y017780
X102362Y020320
X102235Y000000
X102235Y002540
X101854Y038227
X101854Y040767
T05
X108204Y041116
X108204Y049816
X108331Y020923
X108331Y029623
X108966Y000730
X108966Y009430
X031115Y039243
X031115Y036703
X031115Y034163
X038735Y039243
X038735Y036703
X038735Y034163
X081280Y030607
X081280Y028067
X081280Y025527
X088900Y030607
X088900Y028067
X088900Y025527
X031115Y029210
X031115Y026670
X031115Y024130
X038735Y029210
X038735Y026670
X038735Y024130
X031115Y018923
X031115Y016383
X031115Y013843
X038735Y018923
X038735Y016383
X038735Y013843
X081280Y018923
X081280Y016383
X081280Y013843
X088900Y018923
X088900Y016383
X088900Y013843
X081534Y007239
X081534Y004699
X081534Y002159
X089154Y007239
X089154Y004699
X089154Y002159
X063627Y041688
X063627Y032988
T06
X052578Y024892
X052578Y022352
X052578Y019812
X052578Y017272
X052578Y014732
X052578Y012192
X052578Y009652
X052578Y007112
X075438Y007112
X075438Y009652
X075438Y012192
X075438Y014732
X075438Y017272
X075438Y019812
X075438Y022352
X075438Y024892
T07
X140081Y048220
X140081Y043220
X140081Y027773
X140081Y022773
X139827Y007580
X139827Y002580
X052197Y038613
X054737Y038603
X049657Y038613
T08
X054737Y053467
X049657Y053467
T09
X012780Y053848
X017780Y053848
X022780Y053848
T10
X129656Y039340
X115456Y045339
X117456Y051339
X117456Y039339
X129656Y051338
X129783Y019020
X115583Y025019
X117583Y031019
X117583Y019019
X129783Y031018
X129656Y-001300
X115456Y004699
X117456Y010699
X117456Y-001301
X129656Y010698
M30
