G04 Layer: TopLayer*
G04 EasyEDA v6.5.8, 2022-07-18 10:06:56*
G04 273c276c2863449b8c9a1f5c07be89c0,0c792c838a6744a9a4735c8e6cb38716,10*
G04 Gerber Generator version 0.2*
G04 Scale: 100 percent, Rotated: No, Reflected: No *
G04 Dimensions in millimeters *
G04 leading zeros omitted , absolute positions ,4 integer and 5 decimal *
%FSLAX45Y45*%
%MOMM*%

%ADD10C,0.3000*%
%ADD11C,3.0000*%
%ADD12C,1.2000*%
%ADD13C,1.8000*%
%ADD14C,2.5000*%
%ADD15C,1.6510*%
%ADD16R,1.6000X0.9000*%
%ADD17C,1.8796*%
%ADD18C,2.0000*%
%ADD19C,2.2000*%
%ADD20C,1.3000*%
%ADD21C,2.7940*%
%ADD22C,0.9000*%
%ADD23C,0.0144*%

%LPD*%
G36*
X544068Y-736092D02*
G01*
X540156Y-735330D01*
X536905Y-733094D01*
X534670Y-729843D01*
X533908Y-725932D01*
X533908Y5805932D01*
X534670Y5809843D01*
X536905Y5813094D01*
X540156Y5815330D01*
X544068Y5816092D01*
X11115040Y5816092D01*
X11118951Y5815330D01*
X11122202Y5813094D01*
X11124438Y5809843D01*
X11125200Y5805932D01*
X11125200Y5145278D01*
X11124438Y5141366D01*
X11122202Y5138064D01*
X11022330Y5038191D01*
X11019028Y5035956D01*
X11015167Y5035194D01*
X10928908Y5035194D01*
X10925403Y5035854D01*
X10922304Y5037683D01*
X10920018Y5040477D01*
X10918240Y5043678D01*
X10909706Y5055463D01*
X10899749Y5066080D01*
X10888522Y5075377D01*
X10876229Y5083149D01*
X10863072Y5089347D01*
X10849203Y5093868D01*
X10834928Y5096560D01*
X10820400Y5097475D01*
X10805871Y5096560D01*
X10791596Y5093868D01*
X10777728Y5089347D01*
X10764570Y5083149D01*
X10752277Y5075377D01*
X10741050Y5066080D01*
X10731093Y5055463D01*
X10722559Y5043678D01*
X10720781Y5040477D01*
X10718495Y5037683D01*
X10715396Y5035854D01*
X10711891Y5035194D01*
X10493908Y5035194D01*
X10485424Y5034381D01*
X10477754Y5032044D01*
X10470692Y5028285D01*
X10464139Y5022850D01*
X10226852Y4785563D01*
X10223550Y4783378D01*
X10219639Y4782616D01*
X10176205Y4782616D01*
X10164724Y4781702D01*
X10153904Y4779111D01*
X10143642Y4774844D01*
X10134142Y4769053D01*
X10125659Y4761839D01*
X10118445Y4753356D01*
X10112654Y4743856D01*
X10108387Y4733594D01*
X10105796Y4722774D01*
X10104932Y4711700D01*
X10105796Y4700625D01*
X10108387Y4689805D01*
X10112654Y4679543D01*
X10118445Y4670044D01*
X10125659Y4661560D01*
X10132314Y4655921D01*
X10134955Y4652467D01*
X10135870Y4648200D01*
X10134955Y4643932D01*
X10132314Y4640478D01*
X10125659Y4634839D01*
X10120884Y4629150D01*
X10117378Y4626559D01*
X10113111Y4625594D01*
X10028732Y4625594D01*
X10024872Y4626356D01*
X10021570Y4628591D01*
X9764115Y4886045D01*
X9761728Y4889754D01*
X9761169Y4894122D01*
X9762439Y4898288D01*
X9765385Y4901539D01*
X9777933Y4910429D01*
X9788855Y4920335D01*
X9798456Y4931562D01*
X9806584Y4943856D01*
X9813188Y4957064D01*
X9818116Y4970983D01*
X9821265Y4985410D01*
X9822637Y5000091D01*
X9822180Y5014874D01*
X9819894Y5029454D01*
X9815830Y5043627D01*
X9810089Y5057241D01*
X9802723Y5069992D01*
X9793833Y5081778D01*
X9783572Y5092395D01*
X9772040Y5101640D01*
X9759492Y5109413D01*
X9746081Y5115560D01*
X9732060Y5120030D01*
X9717532Y5122773D01*
X9702800Y5123688D01*
X9688068Y5122773D01*
X9673539Y5120030D01*
X9659518Y5115560D01*
X9646107Y5109413D01*
X9633559Y5101640D01*
X9622028Y5092395D01*
X9611766Y5081778D01*
X9602876Y5069992D01*
X9595510Y5057241D01*
X9589770Y5043627D01*
X9585706Y5029454D01*
X9583420Y5014874D01*
X9583013Y5000091D01*
X9584334Y4985410D01*
X9587484Y4970983D01*
X9592411Y4957064D01*
X9599015Y4943856D01*
X9607143Y4931562D01*
X9616744Y4920335D01*
X9627666Y4910429D01*
X9639706Y4901895D01*
X9652711Y4894884D01*
X9655911Y4893665D01*
X9659061Y4891684D01*
X9661347Y4888738D01*
X9662363Y4885182D01*
X9662718Y4881524D01*
X9665055Y4873853D01*
X9668814Y4866792D01*
X9674250Y4860239D01*
X9978339Y4556150D01*
X9984892Y4550714D01*
X9991953Y4546955D01*
X9999624Y4544618D01*
X10008108Y4543806D01*
X10112654Y4543806D01*
X10116921Y4542891D01*
X10120376Y4540250D01*
X10122408Y4536440D01*
X10122712Y4532122D01*
X10121138Y4528058D01*
X10118090Y4525010D01*
X10114686Y4522927D01*
X10110571Y4518812D01*
X10107523Y4513935D01*
X10105593Y4508449D01*
X10104882Y4502150D01*
X10104882Y4486554D01*
X10164470Y4486554D01*
X10164470Y4503724D01*
X10165283Y4507788D01*
X10167721Y4511192D01*
X10171277Y4513326D01*
X10176205Y4513783D01*
X10245394Y4513783D01*
X10250322Y4513326D01*
X10253878Y4511192D01*
X10256316Y4507788D01*
X10257129Y4503724D01*
X10257129Y4486554D01*
X10316718Y4486554D01*
X10316718Y4502150D01*
X10316006Y4508449D01*
X10314076Y4513935D01*
X10311028Y4518812D01*
X10306913Y4522927D01*
X10303205Y4525213D01*
X10300157Y4528261D01*
X10298582Y4532274D01*
X10298836Y4536592D01*
X10300919Y4540402D01*
X10303154Y4543044D01*
X10308945Y4552543D01*
X10313212Y4562805D01*
X10315803Y4573625D01*
X10316667Y4584700D01*
X10315803Y4595774D01*
X10313212Y4606594D01*
X10308945Y4616856D01*
X10303154Y4626356D01*
X10295940Y4634839D01*
X10289286Y4640478D01*
X10286644Y4643932D01*
X10285730Y4648200D01*
X10286644Y4652467D01*
X10289286Y4655921D01*
X10295940Y4661560D01*
X10303154Y4670044D01*
X10308945Y4679543D01*
X10313212Y4689805D01*
X10315803Y4700625D01*
X10316667Y4711700D01*
X10315803Y4722774D01*
X10313212Y4733594D01*
X10309148Y4743348D01*
X10308386Y4747260D01*
X10309148Y4751120D01*
X10311384Y4754422D01*
X10507370Y4950409D01*
X10510672Y4952593D01*
X10514533Y4953406D01*
X10700359Y4953406D01*
X10704322Y4952593D01*
X10707624Y4950307D01*
X10709808Y4946904D01*
X10715548Y4932222D01*
X10722559Y4919522D01*
X10731093Y4907737D01*
X10741050Y4897120D01*
X10752277Y4887874D01*
X10764570Y4880051D01*
X10777728Y4873853D01*
X10791596Y4869383D01*
X10805871Y4866640D01*
X10820400Y4865725D01*
X10834928Y4866640D01*
X10849203Y4869383D01*
X10863072Y4873853D01*
X10876229Y4880051D01*
X10888522Y4887874D01*
X10899749Y4897120D01*
X10909706Y4907737D01*
X10918240Y4919522D01*
X10925251Y4932222D01*
X10930991Y4946904D01*
X10933176Y4950307D01*
X10936478Y4952593D01*
X10940440Y4953406D01*
X11035792Y4953406D01*
X11044275Y4954219D01*
X11051946Y4956556D01*
X11059007Y4960315D01*
X11065560Y4965750D01*
X11107877Y5008016D01*
X11111128Y5010200D01*
X11115040Y5010962D01*
X11118951Y5010200D01*
X11122202Y5008016D01*
X11124438Y5004714D01*
X11125200Y5000802D01*
X11125200Y3984955D01*
X11124438Y3981094D01*
X11122202Y3977792D01*
X11118951Y3975557D01*
X11115040Y3974795D01*
X11019231Y3974795D01*
X11015370Y3975557D01*
X11012068Y3977792D01*
X10930636Y4059224D01*
X10928451Y4062476D01*
X10927689Y4066286D01*
X10928400Y4070146D01*
X10930636Y4075785D01*
X10934242Y4089857D01*
X10936071Y4104335D01*
X10936071Y4118864D01*
X10934242Y4133291D01*
X10930636Y4147413D01*
X10925251Y4160926D01*
X10918240Y4173677D01*
X10909706Y4185462D01*
X10899749Y4196080D01*
X10888522Y4205325D01*
X10876229Y4213148D01*
X10863072Y4219346D01*
X10849203Y4223816D01*
X10834928Y4226560D01*
X10820400Y4227474D01*
X10805871Y4226560D01*
X10791596Y4223816D01*
X10777728Y4219346D01*
X10764570Y4213148D01*
X10752277Y4205325D01*
X10741050Y4196080D01*
X10731093Y4185462D01*
X10722559Y4173677D01*
X10715548Y4160926D01*
X10710164Y4147413D01*
X10706557Y4133291D01*
X10704728Y4118864D01*
X10704728Y4104335D01*
X10706557Y4089857D01*
X10710164Y4075785D01*
X10715548Y4062272D01*
X10722559Y4049522D01*
X10731093Y4037736D01*
X10741050Y4027119D01*
X10752277Y4017822D01*
X10764570Y4010050D01*
X10777728Y4003852D01*
X10791596Y3999331D01*
X10805871Y3996639D01*
X10820400Y3995724D01*
X10834928Y3996639D01*
X10849203Y3999331D01*
X10862614Y4003700D01*
X10866272Y4004157D01*
X10869879Y4003294D01*
X10872927Y4001211D01*
X10968837Y3905351D01*
X10975390Y3899915D01*
X10982452Y3896156D01*
X10990122Y3893820D01*
X10998606Y3893007D01*
X11115040Y3893007D01*
X11118951Y3892194D01*
X11122202Y3890010D01*
X11124438Y3886708D01*
X11125200Y3882847D01*
X11125200Y3152952D01*
X11124438Y3149092D01*
X11122202Y3145790D01*
X11118951Y3143554D01*
X11115040Y3142792D01*
X10973206Y3142792D01*
X10964722Y3141980D01*
X10957052Y3139643D01*
X10949990Y3135884D01*
X10943437Y3130448D01*
X10885627Y3072688D01*
X10882579Y3070606D01*
X10878972Y3069742D01*
X10875314Y3070199D01*
X10861903Y3074568D01*
X10847628Y3077260D01*
X10833100Y3078175D01*
X10818571Y3077260D01*
X10804296Y3074568D01*
X10790428Y3070047D01*
X10777270Y3063849D01*
X10764977Y3056077D01*
X10753750Y3046780D01*
X10743793Y3036163D01*
X10735259Y3024378D01*
X10728248Y3011627D01*
X10722864Y2998114D01*
X10719257Y2984042D01*
X10717428Y2969564D01*
X10717428Y2955036D01*
X10719257Y2940608D01*
X10722864Y2926486D01*
X10725099Y2920847D01*
X10725861Y2916986D01*
X10725048Y2913176D01*
X10722864Y2909925D01*
X10498429Y2685491D01*
X10495127Y2683256D01*
X10491266Y2682494D01*
X10308488Y2682494D01*
X10304221Y2683459D01*
X10300716Y2686050D01*
X10295940Y2691739D01*
X10287457Y2698953D01*
X10277957Y2704744D01*
X10267696Y2709011D01*
X10256875Y2711602D01*
X10245394Y2712516D01*
X10176205Y2712516D01*
X10164724Y2711602D01*
X10153904Y2709011D01*
X10143642Y2704744D01*
X10134142Y2698953D01*
X10125659Y2691739D01*
X10118445Y2683256D01*
X10112654Y2673756D01*
X10108387Y2663494D01*
X10105796Y2652674D01*
X10104932Y2641600D01*
X10105796Y2630525D01*
X10108387Y2619705D01*
X10112654Y2609443D01*
X10118445Y2599944D01*
X10125659Y2591460D01*
X10132314Y2585821D01*
X10134955Y2582367D01*
X10135870Y2578100D01*
X10134955Y2573832D01*
X10132314Y2570378D01*
X10125659Y2564739D01*
X10120884Y2559050D01*
X10117378Y2556459D01*
X10113111Y2555494D01*
X10041432Y2555494D01*
X10037572Y2556256D01*
X10034270Y2558491D01*
X9772091Y2820670D01*
X9769906Y2823972D01*
X9769094Y2827832D01*
X9769094Y2852369D01*
X9769906Y2856331D01*
X9772192Y2859684D01*
X9775596Y2861868D01*
X9778288Y2862884D01*
X9791293Y2869895D01*
X9803333Y2878429D01*
X9814255Y2888335D01*
X9823856Y2899562D01*
X9831984Y2911856D01*
X9838588Y2925064D01*
X9843516Y2938983D01*
X9846665Y2953410D01*
X9848037Y2968091D01*
X9847580Y2982874D01*
X9845294Y2997454D01*
X9841230Y3011627D01*
X9835489Y3025241D01*
X9828123Y3037992D01*
X9819233Y3049778D01*
X9808972Y3060395D01*
X9797440Y3069640D01*
X9784892Y3077413D01*
X9771481Y3083560D01*
X9757460Y3088030D01*
X9742932Y3090773D01*
X9728200Y3091688D01*
X9713468Y3090773D01*
X9698939Y3088030D01*
X9684918Y3083560D01*
X9671507Y3077413D01*
X9658959Y3069640D01*
X9647428Y3060395D01*
X9637166Y3049778D01*
X9628276Y3037992D01*
X9620910Y3025241D01*
X9615170Y3011627D01*
X9611106Y2997454D01*
X9608820Y2982874D01*
X9608413Y2968091D01*
X9609734Y2953410D01*
X9612884Y2938983D01*
X9617811Y2925064D01*
X9624415Y2911856D01*
X9632543Y2899562D01*
X9642144Y2888335D01*
X9653066Y2878429D01*
X9665106Y2869895D01*
X9678111Y2862884D01*
X9680803Y2861868D01*
X9684207Y2859684D01*
X9686493Y2856331D01*
X9687306Y2852369D01*
X9687306Y2807208D01*
X9688118Y2798724D01*
X9690455Y2791053D01*
X9694214Y2783992D01*
X9699650Y2777439D01*
X9991039Y2486050D01*
X9997592Y2480614D01*
X10004653Y2476855D01*
X10012324Y2474518D01*
X10020808Y2473706D01*
X10112654Y2473706D01*
X10116921Y2472791D01*
X10120376Y2470150D01*
X10122408Y2466340D01*
X10122712Y2462022D01*
X10121138Y2457958D01*
X10118090Y2454910D01*
X10114686Y2452827D01*
X10110571Y2448712D01*
X10107523Y2443835D01*
X10105593Y2438349D01*
X10104882Y2432050D01*
X10104882Y2416454D01*
X10164470Y2416454D01*
X10164470Y2433624D01*
X10165283Y2437688D01*
X10167721Y2441092D01*
X10171277Y2443226D01*
X10176205Y2443683D01*
X10245394Y2443683D01*
X10250322Y2443226D01*
X10253878Y2441092D01*
X10256316Y2437688D01*
X10257129Y2433624D01*
X10257129Y2416454D01*
X10316718Y2416454D01*
X10316718Y2432050D01*
X10316006Y2438349D01*
X10314076Y2443835D01*
X10311028Y2448712D01*
X10306913Y2452827D01*
X10303205Y2455113D01*
X10300157Y2458161D01*
X10298582Y2462174D01*
X10298836Y2466492D01*
X10300919Y2470302D01*
X10303154Y2472944D01*
X10308945Y2482443D01*
X10313212Y2492705D01*
X10315803Y2503525D01*
X10316667Y2514600D01*
X10315803Y2525674D01*
X10313212Y2536494D01*
X10308945Y2546756D01*
X10303154Y2556256D01*
X10295940Y2564739D01*
X10289286Y2570378D01*
X10286644Y2573832D01*
X10285730Y2578100D01*
X10286644Y2582367D01*
X10289286Y2585821D01*
X10295940Y2591460D01*
X10300716Y2597150D01*
X10304221Y2599740D01*
X10308488Y2600706D01*
X10511891Y2600706D01*
X10520375Y2601518D01*
X10528046Y2603855D01*
X10535107Y2607614D01*
X10541660Y2613050D01*
X10780572Y2851912D01*
X10783620Y2854045D01*
X10787227Y2854909D01*
X10790885Y2854401D01*
X10804296Y2850083D01*
X10818571Y2847340D01*
X10833100Y2846425D01*
X10847628Y2847340D01*
X10861903Y2850083D01*
X10875772Y2854553D01*
X10888929Y2860751D01*
X10901222Y2868574D01*
X10912449Y2877820D01*
X10922406Y2888437D01*
X10930940Y2900222D01*
X10937951Y2912973D01*
X10943336Y2926486D01*
X10946942Y2940608D01*
X10948771Y2955036D01*
X10948771Y2969564D01*
X10946942Y2984042D01*
X10943336Y2998114D01*
X10941100Y3003753D01*
X10940389Y3007614D01*
X10941151Y3011424D01*
X10943336Y3014675D01*
X10986668Y3058007D01*
X10989970Y3060192D01*
X10993831Y3061004D01*
X11115040Y3061004D01*
X11118951Y3060192D01*
X11122202Y3058007D01*
X11124438Y3054705D01*
X11125200Y3050844D01*
X11125200Y1952955D01*
X11124438Y1949094D01*
X11122202Y1945792D01*
X11118951Y1943557D01*
X11115040Y1942795D01*
X11044631Y1942795D01*
X11040770Y1943557D01*
X11037468Y1945792D01*
X10943336Y2039924D01*
X10941151Y2043175D01*
X10940389Y2046986D01*
X10941100Y2050846D01*
X10943336Y2056485D01*
X10946942Y2070557D01*
X10948771Y2085035D01*
X10948771Y2099564D01*
X10946942Y2113991D01*
X10943336Y2128113D01*
X10937951Y2141626D01*
X10930940Y2154377D01*
X10922406Y2166162D01*
X10912449Y2176780D01*
X10901222Y2186025D01*
X10888929Y2193848D01*
X10875772Y2200046D01*
X10861903Y2204516D01*
X10847628Y2207260D01*
X10833100Y2208174D01*
X10818571Y2207260D01*
X10804296Y2204516D01*
X10790428Y2200046D01*
X10777270Y2193848D01*
X10764977Y2186025D01*
X10753750Y2176780D01*
X10743793Y2166162D01*
X10735259Y2154377D01*
X10728248Y2141626D01*
X10722864Y2128113D01*
X10719257Y2113991D01*
X10717428Y2099564D01*
X10717428Y2085035D01*
X10719257Y2070557D01*
X10722864Y2056485D01*
X10728248Y2042972D01*
X10735259Y2030222D01*
X10743793Y2018436D01*
X10753750Y2007819D01*
X10764977Y1998522D01*
X10777270Y1990750D01*
X10790428Y1984552D01*
X10804296Y1980031D01*
X10818571Y1977339D01*
X10833100Y1976424D01*
X10847628Y1977339D01*
X10861903Y1980031D01*
X10875314Y1984400D01*
X10878972Y1984857D01*
X10882579Y1983993D01*
X10885627Y1981911D01*
X10994237Y1873351D01*
X11000790Y1867916D01*
X11007852Y1864156D01*
X11015522Y1861820D01*
X11024006Y1861007D01*
X11115040Y1861007D01*
X11118951Y1860194D01*
X11122202Y1858010D01*
X11124438Y1854707D01*
X11125200Y1850847D01*
X11125200Y1120952D01*
X11124438Y1117092D01*
X11122202Y1113790D01*
X11118951Y1111554D01*
X11115040Y1110792D01*
X11024006Y1110792D01*
X11015522Y1109980D01*
X11007852Y1107643D01*
X11000790Y1103884D01*
X10994237Y1098448D01*
X10949127Y1053388D01*
X10946079Y1051306D01*
X10942472Y1050442D01*
X10938814Y1050899D01*
X10925403Y1055268D01*
X10911128Y1057960D01*
X10896600Y1058875D01*
X10882071Y1057960D01*
X10867796Y1055268D01*
X10853928Y1050747D01*
X10840770Y1044549D01*
X10828477Y1036777D01*
X10817250Y1027480D01*
X10807293Y1016863D01*
X10798759Y1005078D01*
X10791748Y992327D01*
X10786364Y978814D01*
X10782757Y964742D01*
X10780928Y950264D01*
X10780928Y935736D01*
X10782757Y921308D01*
X10783824Y917194D01*
X10784078Y913536D01*
X10783011Y909980D01*
X10780725Y907084D01*
X10777575Y905154D01*
X10773968Y904494D01*
X10295788Y904494D01*
X10291521Y905459D01*
X10288016Y908050D01*
X10283240Y913739D01*
X10274757Y920953D01*
X10265257Y926744D01*
X10254996Y931011D01*
X10244175Y933602D01*
X10232694Y934516D01*
X10163505Y934516D01*
X10152024Y933602D01*
X10141204Y931011D01*
X10130942Y926744D01*
X10121442Y920953D01*
X10112959Y913739D01*
X10105745Y905256D01*
X10099954Y895756D01*
X10095687Y885494D01*
X10093096Y874674D01*
X10092232Y863600D01*
X10093096Y852525D01*
X10095687Y841705D01*
X10099954Y831443D01*
X10105745Y821944D01*
X10112959Y813460D01*
X10119309Y808075D01*
X10121798Y804875D01*
X10122865Y800912D01*
X10122204Y796848D01*
X10120071Y793394D01*
X10116718Y791057D01*
X10112705Y790194D01*
X9914432Y790194D01*
X9910572Y790956D01*
X9907270Y793191D01*
X9759391Y941069D01*
X9757206Y944371D01*
X9756394Y948232D01*
X9756394Y1074369D01*
X9757206Y1078331D01*
X9759492Y1081684D01*
X9762896Y1083868D01*
X9765588Y1084884D01*
X9778593Y1091895D01*
X9790633Y1100429D01*
X9801555Y1110335D01*
X9811156Y1121562D01*
X9819284Y1133856D01*
X9825888Y1147064D01*
X9830816Y1160983D01*
X9833965Y1175410D01*
X9835337Y1190091D01*
X9834880Y1204874D01*
X9832594Y1219454D01*
X9828530Y1233627D01*
X9822789Y1247241D01*
X9815423Y1259992D01*
X9806533Y1271778D01*
X9796272Y1282395D01*
X9784740Y1291640D01*
X9772192Y1299413D01*
X9758781Y1305560D01*
X9744760Y1310030D01*
X9730232Y1312773D01*
X9715500Y1313688D01*
X9700768Y1312773D01*
X9686239Y1310030D01*
X9672218Y1305560D01*
X9658807Y1299413D01*
X9646259Y1291640D01*
X9634728Y1282395D01*
X9624466Y1271778D01*
X9615576Y1259992D01*
X9608210Y1247241D01*
X9602470Y1233627D01*
X9598406Y1219454D01*
X9596120Y1204874D01*
X9595713Y1190091D01*
X9597034Y1175410D01*
X9600184Y1160983D01*
X9605111Y1147064D01*
X9611715Y1133856D01*
X9619843Y1121562D01*
X9629444Y1110335D01*
X9640366Y1100429D01*
X9652406Y1091895D01*
X9665411Y1084884D01*
X9668103Y1083868D01*
X9671507Y1081684D01*
X9673793Y1078331D01*
X9674606Y1074369D01*
X9674606Y927608D01*
X9675418Y919124D01*
X9677755Y911453D01*
X9681514Y904392D01*
X9686950Y897839D01*
X9864039Y720750D01*
X9870592Y715314D01*
X9877653Y711555D01*
X9885324Y709218D01*
X9893808Y708406D01*
X10091826Y708406D01*
X10095230Y707796D01*
X10098227Y706120D01*
X10100513Y703529D01*
X10105745Y694944D01*
X10107980Y692302D01*
X10110063Y688492D01*
X10110317Y684174D01*
X10108742Y680161D01*
X10105694Y677113D01*
X10101986Y674827D01*
X10097871Y670712D01*
X10094823Y665835D01*
X10092893Y660349D01*
X10092182Y654050D01*
X10092182Y638454D01*
X10151770Y638454D01*
X10151770Y655624D01*
X10152583Y659688D01*
X10155021Y663092D01*
X10158577Y665226D01*
X10163505Y665683D01*
X10232694Y665683D01*
X10237622Y665226D01*
X10241178Y663092D01*
X10243616Y659688D01*
X10244429Y655624D01*
X10244429Y638454D01*
X10304018Y638454D01*
X10304018Y654050D01*
X10303306Y660349D01*
X10301376Y665835D01*
X10298328Y670712D01*
X10294213Y674827D01*
X10290505Y677113D01*
X10287457Y680161D01*
X10285882Y684174D01*
X10286136Y688492D01*
X10288219Y692302D01*
X10290454Y694944D01*
X10296245Y704443D01*
X10300512Y714705D01*
X10303103Y725525D01*
X10303967Y736600D01*
X10303103Y747674D01*
X10300512Y758494D01*
X10296245Y768756D01*
X10290454Y778256D01*
X10283240Y786739D01*
X10276586Y792378D01*
X10273944Y795832D01*
X10273030Y800100D01*
X10273944Y804367D01*
X10276586Y807821D01*
X10283240Y813460D01*
X10288016Y819150D01*
X10291521Y821740D01*
X10295788Y822706D01*
X10816691Y822706D01*
X10825175Y823518D01*
X10832846Y825855D01*
X10839907Y829614D01*
X10844479Y833424D01*
X10847425Y835101D01*
X10850727Y835710D01*
X10854080Y835202D01*
X10867796Y830783D01*
X10882071Y828040D01*
X10896600Y827125D01*
X10911128Y828040D01*
X10925403Y830783D01*
X10939272Y835253D01*
X10952429Y841451D01*
X10964722Y849274D01*
X10975949Y858519D01*
X10985906Y869137D01*
X10994440Y880922D01*
X11001451Y893673D01*
X11006836Y907186D01*
X11010442Y921308D01*
X11012271Y935736D01*
X11012271Y950264D01*
X11010442Y964742D01*
X11006836Y978814D01*
X11004600Y984453D01*
X11003889Y988314D01*
X11004651Y992124D01*
X11006836Y995375D01*
X11037468Y1026007D01*
X11040770Y1028192D01*
X11044631Y1029004D01*
X11115040Y1029004D01*
X11118951Y1028192D01*
X11122202Y1026007D01*
X11124438Y1022705D01*
X11125200Y1018844D01*
X11125200Y-73202D01*
X11124438Y-77114D01*
X11122202Y-80416D01*
X11118951Y-82600D01*
X11115040Y-83362D01*
X11111128Y-82600D01*
X11107877Y-80416D01*
X11006836Y20624D01*
X11004651Y23876D01*
X11003889Y27686D01*
X11004600Y31546D01*
X11006836Y37185D01*
X11010442Y51257D01*
X11012271Y65735D01*
X11012271Y80264D01*
X11010442Y94691D01*
X11006836Y108813D01*
X11001451Y122326D01*
X10994440Y135077D01*
X10985906Y146862D01*
X10975949Y157480D01*
X10964722Y166725D01*
X10952429Y174548D01*
X10939272Y180746D01*
X10925403Y185216D01*
X10911128Y187960D01*
X10896600Y188874D01*
X10882071Y187960D01*
X10867796Y185216D01*
X10853928Y180746D01*
X10840770Y174548D01*
X10828477Y166725D01*
X10817250Y157480D01*
X10807293Y146862D01*
X10798759Y135077D01*
X10791748Y122326D01*
X10786364Y108813D01*
X10782757Y94691D01*
X10780928Y80264D01*
X10780928Y65735D01*
X10782757Y51257D01*
X10786364Y37185D01*
X10791748Y23672D01*
X10798759Y10922D01*
X10807293Y-863D01*
X10817250Y-11480D01*
X10828477Y-20777D01*
X10840770Y-28549D01*
X10853928Y-34747D01*
X10867796Y-39268D01*
X10882071Y-41960D01*
X10896600Y-42875D01*
X10911128Y-41960D01*
X10925403Y-39268D01*
X10938814Y-34899D01*
X10942472Y-34442D01*
X10946079Y-35306D01*
X10949127Y-37388D01*
X11070437Y-158648D01*
X11076990Y-164084D01*
X11084052Y-167843D01*
X11091722Y-170180D01*
X11100206Y-170992D01*
X11115040Y-170992D01*
X11118951Y-171805D01*
X11122202Y-173990D01*
X11124438Y-177292D01*
X11125200Y-181152D01*
X11125200Y-725932D01*
X11124438Y-729843D01*
X11122202Y-733094D01*
X11118951Y-735330D01*
X11115040Y-736092D01*
G37*

%LPC*%
G36*
X3044291Y-500837D02*
G01*
X3059074Y-500380D01*
X3073654Y-498093D01*
X3087827Y-494030D01*
X3101441Y-488289D01*
X3114192Y-480923D01*
X3125978Y-472033D01*
X3136595Y-461772D01*
X3145840Y-450240D01*
X3153613Y-437692D01*
X3159760Y-424281D01*
X3164230Y-410260D01*
X3166973Y-395732D01*
X3167888Y-381000D01*
X3166973Y-366268D01*
X3164230Y-351739D01*
X3159760Y-337718D01*
X3153613Y-324307D01*
X3145840Y-311759D01*
X3136595Y-300228D01*
X3125978Y-289966D01*
X3114192Y-281076D01*
X3101441Y-273710D01*
X3087827Y-267970D01*
X3073654Y-263906D01*
X3059074Y-261620D01*
X3044291Y-261213D01*
X3029610Y-262534D01*
X3015183Y-265684D01*
X3001264Y-270611D01*
X2988056Y-277215D01*
X2975762Y-285343D01*
X2964535Y-294944D01*
X2954629Y-305866D01*
X2946095Y-317906D01*
X2939084Y-330911D01*
X2933750Y-344678D01*
X2930194Y-358952D01*
X2928366Y-373634D01*
X2928366Y-388366D01*
X2930194Y-403047D01*
X2933750Y-417322D01*
X2939084Y-431088D01*
X2946095Y-444093D01*
X2954629Y-456133D01*
X2964535Y-467055D01*
X2975762Y-476656D01*
X2988056Y-484784D01*
X3001264Y-491388D01*
X3015183Y-496316D01*
X3029610Y-499465D01*
G37*
G36*
X4117340Y-488340D02*
G01*
X4130192Y-480923D01*
X4141978Y-472033D01*
X4152595Y-461772D01*
X4161840Y-450240D01*
X4169613Y-437692D01*
X4171137Y-434340D01*
X4117340Y-434340D01*
G37*
G36*
X4010660Y-488086D02*
G01*
X4010660Y-434340D01*
X3956862Y-434340D01*
X3962095Y-444093D01*
X3970629Y-456133D01*
X3980535Y-467055D01*
X3991762Y-476656D01*
X4004056Y-484784D01*
G37*
G36*
X2345791Y-462737D02*
G01*
X2360574Y-462280D01*
X2375154Y-459993D01*
X2389327Y-455930D01*
X2402941Y-450189D01*
X2415692Y-442823D01*
X2427478Y-433933D01*
X2438095Y-423672D01*
X2447340Y-412140D01*
X2455113Y-399592D01*
X2461260Y-386181D01*
X2465730Y-372160D01*
X2468473Y-357632D01*
X2469388Y-342900D01*
X2468473Y-328168D01*
X2465730Y-313639D01*
X2461260Y-299618D01*
X2455113Y-286207D01*
X2447340Y-273659D01*
X2438095Y-262128D01*
X2427478Y-251866D01*
X2415692Y-242976D01*
X2402941Y-235610D01*
X2389327Y-229870D01*
X2375154Y-225806D01*
X2360574Y-223520D01*
X2345791Y-223113D01*
X2331110Y-224434D01*
X2316683Y-227584D01*
X2302764Y-232511D01*
X2289556Y-239115D01*
X2277262Y-247243D01*
X2266035Y-256844D01*
X2256129Y-267766D01*
X2247595Y-279806D01*
X2240584Y-292811D01*
X2235250Y-306578D01*
X2231694Y-320852D01*
X2229866Y-335534D01*
X2229866Y-350266D01*
X2231694Y-364947D01*
X2235250Y-379222D01*
X2240584Y-392988D01*
X2247595Y-405993D01*
X2256129Y-418033D01*
X2266035Y-428955D01*
X2277262Y-438556D01*
X2289556Y-446684D01*
X2302764Y-453288D01*
X2316683Y-458216D01*
X2331110Y-461365D01*
G37*
G36*
X1329791Y-462737D02*
G01*
X1344574Y-462280D01*
X1359154Y-459993D01*
X1373327Y-455930D01*
X1386941Y-450189D01*
X1399692Y-442823D01*
X1411478Y-433933D01*
X1422095Y-423672D01*
X1431340Y-412140D01*
X1439113Y-399592D01*
X1445260Y-386181D01*
X1449730Y-372160D01*
X1452473Y-357632D01*
X1453388Y-342900D01*
X1452473Y-328168D01*
X1449730Y-313639D01*
X1445260Y-299618D01*
X1439113Y-286207D01*
X1431340Y-273659D01*
X1422095Y-262128D01*
X1411478Y-251866D01*
X1399692Y-242976D01*
X1386941Y-235610D01*
X1380591Y-232917D01*
X1377340Y-230733D01*
X1375156Y-227431D01*
X1374394Y-223570D01*
X1374394Y-17729D01*
X1375156Y-13868D01*
X1377340Y-10566D01*
X1380591Y-8382D01*
X1386941Y-5689D01*
X1399692Y1676D01*
X1411478Y10566D01*
X1422095Y20828D01*
X1431340Y32359D01*
X1439113Y44907D01*
X1445260Y58318D01*
X1449730Y72339D01*
X1452473Y86868D01*
X1453388Y101600D01*
X1452473Y116332D01*
X1449730Y130860D01*
X1445260Y144881D01*
X1439113Y158292D01*
X1431340Y170840D01*
X1422095Y182372D01*
X1411478Y192633D01*
X1399692Y201523D01*
X1386941Y208889D01*
X1373327Y214629D01*
X1359154Y218694D01*
X1344574Y220979D01*
X1329791Y221386D01*
X1315110Y220065D01*
X1300683Y216916D01*
X1297889Y215900D01*
X1294180Y215341D01*
X1290472Y216154D01*
X1287322Y218287D01*
X882091Y623570D01*
X879906Y626872D01*
X879094Y630732D01*
X879094Y4923840D01*
X879906Y4927752D01*
X882091Y4931054D01*
X1181963Y5230926D01*
X1185265Y5233111D01*
X1189177Y5233873D01*
X1402435Y5233873D01*
X1408734Y5234584D01*
X1414221Y5236514D01*
X1419098Y5239613D01*
X1423212Y5243677D01*
X1426260Y5248605D01*
X1428191Y5254040D01*
X1428902Y5260390D01*
X1428902Y5509209D01*
X1428191Y5515559D01*
X1426260Y5520994D01*
X1423212Y5525922D01*
X1419098Y5529986D01*
X1414221Y5533085D01*
X1408734Y5535015D01*
X1402435Y5535726D01*
X1153566Y5535726D01*
X1147267Y5535015D01*
X1141780Y5533085D01*
X1136904Y5529986D01*
X1132789Y5525922D01*
X1129690Y5520994D01*
X1127810Y5515559D01*
X1127099Y5509209D01*
X1127099Y5295950D01*
X1126337Y5292090D01*
X1124102Y5288788D01*
X809650Y4974285D01*
X804214Y4967681D01*
X800455Y4960620D01*
X798118Y4952949D01*
X797306Y4944516D01*
X797306Y610108D01*
X798118Y601624D01*
X800455Y593953D01*
X804214Y586892D01*
X809650Y580339D01*
X1224026Y165912D01*
X1226362Y162306D01*
X1226972Y158038D01*
X1225804Y153924D01*
X1224584Y151688D01*
X1219250Y137922D01*
X1215694Y123647D01*
X1213866Y108966D01*
X1213866Y94234D01*
X1215694Y79552D01*
X1219250Y65278D01*
X1224584Y51511D01*
X1231595Y38506D01*
X1240129Y26466D01*
X1250035Y15544D01*
X1261262Y5943D01*
X1273556Y-2184D01*
X1286967Y-8890D01*
X1289964Y-11125D01*
X1291894Y-14325D01*
X1292606Y-17983D01*
X1292606Y-223316D01*
X1291894Y-226974D01*
X1289964Y-230174D01*
X1286967Y-232410D01*
X1273556Y-239115D01*
X1261262Y-247243D01*
X1250035Y-256844D01*
X1240129Y-267766D01*
X1231595Y-279806D01*
X1224584Y-292811D01*
X1219250Y-306578D01*
X1215694Y-320852D01*
X1213866Y-335534D01*
X1213866Y-350266D01*
X1215694Y-364947D01*
X1219250Y-379222D01*
X1224584Y-392988D01*
X1231595Y-405993D01*
X1240129Y-418033D01*
X1250035Y-428955D01*
X1261262Y-438556D01*
X1273556Y-446684D01*
X1286764Y-453288D01*
X1300683Y-458216D01*
X1315110Y-461365D01*
G37*
G36*
X3956862Y-327660D02*
G01*
X4010660Y-327660D01*
X4010660Y-273913D01*
X4004056Y-277215D01*
X3991762Y-285343D01*
X3980535Y-294944D01*
X3970629Y-305866D01*
X3962095Y-317906D01*
G37*
G36*
X4117340Y-327660D02*
G01*
X4171137Y-327660D01*
X4169613Y-324307D01*
X4161840Y-311759D01*
X4152595Y-300228D01*
X4141978Y-289966D01*
X4130192Y-281076D01*
X4117340Y-273659D01*
G37*
G36*
X9462008Y-256794D02*
G01*
X10007092Y-256794D01*
X10015575Y-255981D01*
X10023246Y-253644D01*
X10030307Y-249885D01*
X10036860Y-244449D01*
X10176916Y-104444D01*
X10180015Y-102311D01*
X10183672Y-101447D01*
X10187381Y-102006D01*
X10195458Y-104749D01*
X10209326Y-107492D01*
X10223500Y-108458D01*
X10237673Y-107492D01*
X10251541Y-104749D01*
X10265003Y-100177D01*
X10277703Y-93929D01*
X10289489Y-86004D01*
X10300157Y-76657D01*
X10309504Y-65989D01*
X10317429Y-54203D01*
X10323677Y-41503D01*
X10328249Y-28041D01*
X10330992Y-14173D01*
X10331958Y0D01*
X10330992Y14173D01*
X10328249Y28041D01*
X10323677Y41503D01*
X10317429Y54203D01*
X10309504Y65989D01*
X10300157Y76657D01*
X10289489Y86004D01*
X10277703Y93929D01*
X10265003Y100177D01*
X10251541Y104749D01*
X10237673Y107492D01*
X10223500Y108458D01*
X10209326Y107492D01*
X10195458Y104749D01*
X10181996Y100177D01*
X10169296Y93929D01*
X10157510Y86004D01*
X10146842Y76657D01*
X10137495Y65989D01*
X10129570Y54203D01*
X10123322Y41503D01*
X10118750Y28041D01*
X10116007Y14173D01*
X10115042Y0D01*
X10116007Y-14173D01*
X10118750Y-28041D01*
X10121493Y-36118D01*
X10122052Y-39827D01*
X10121188Y-43484D01*
X10119055Y-46583D01*
X9993630Y-172008D01*
X9990328Y-174244D01*
X9986467Y-175006D01*
X9482632Y-175006D01*
X9478772Y-174244D01*
X9475470Y-172008D01*
X9058960Y244449D01*
X9052407Y249885D01*
X9045346Y253644D01*
X9037675Y255981D01*
X9029446Y256794D01*
X9026093Y257708D01*
X9023248Y259740D01*
X9021267Y262585D01*
X9016949Y271729D01*
X9009176Y284022D01*
X8999880Y295249D01*
X8989263Y305206D01*
X8977477Y313740D01*
X8964726Y320751D01*
X8951214Y326136D01*
X8937091Y329742D01*
X8922664Y331571D01*
X8908135Y331571D01*
X8893708Y329742D01*
X8879586Y326136D01*
X8866073Y320751D01*
X8853322Y313740D01*
X8841536Y305206D01*
X8830919Y295249D01*
X8821623Y284022D01*
X8813850Y271729D01*
X8807653Y258571D01*
X8803132Y244703D01*
X8800439Y230428D01*
X8799525Y215900D01*
X8800439Y201371D01*
X8803132Y187096D01*
X8807653Y173228D01*
X8813850Y160070D01*
X8821623Y147777D01*
X8830919Y136550D01*
X8841536Y126593D01*
X8853322Y118059D01*
X8866073Y111048D01*
X8879586Y105664D01*
X8893708Y102057D01*
X8908135Y100228D01*
X8922664Y100228D01*
X8937091Y102057D01*
X8951214Y105664D01*
X8964726Y111048D01*
X8977477Y118059D01*
X8989263Y126593D01*
X8999880Y136550D01*
X9009176Y147777D01*
X9014307Y155905D01*
X9017508Y159105D01*
X9021775Y160578D01*
X9026245Y160070D01*
X9030106Y157683D01*
X9432239Y-244449D01*
X9438792Y-249885D01*
X9445853Y-253644D01*
X9453524Y-255981D01*
G37*
G36*
X2599791Y-18237D02*
G01*
X2614574Y-17780D01*
X2629154Y-15494D01*
X2643327Y-11430D01*
X2656941Y-5689D01*
X2669692Y1676D01*
X2681478Y10566D01*
X2692095Y20828D01*
X2701340Y32359D01*
X2709113Y44907D01*
X2715260Y58318D01*
X2719730Y72339D01*
X2722473Y86868D01*
X2723388Y101600D01*
X2722473Y116332D01*
X2719730Y130860D01*
X2715260Y144881D01*
X2709113Y158292D01*
X2701340Y170840D01*
X2692095Y182372D01*
X2681478Y192633D01*
X2669692Y201523D01*
X2656941Y208889D01*
X2643327Y214629D01*
X2629154Y218694D01*
X2614574Y220979D01*
X2599791Y221386D01*
X2585110Y220065D01*
X2570683Y216916D01*
X2556764Y211988D01*
X2543556Y205384D01*
X2531262Y197256D01*
X2520035Y187655D01*
X2510129Y176733D01*
X2501595Y164693D01*
X2494584Y151688D01*
X2493568Y148996D01*
X2491384Y145592D01*
X2488031Y143306D01*
X2484069Y142494D01*
X2421432Y142494D01*
X2417572Y143256D01*
X2414270Y145491D01*
X1895144Y664616D01*
X1893011Y667715D01*
X1892147Y671372D01*
X1892706Y675081D01*
X1895449Y683158D01*
X1898192Y697026D01*
X1899157Y711200D01*
X1898192Y725373D01*
X1895449Y739241D01*
X1890877Y752703D01*
X1884629Y765403D01*
X1876704Y777189D01*
X1867357Y787857D01*
X1856689Y797204D01*
X1844903Y805129D01*
X1832203Y811377D01*
X1818741Y815949D01*
X1804873Y818692D01*
X1790700Y819658D01*
X1776526Y818692D01*
X1762658Y815949D01*
X1749196Y811377D01*
X1736496Y805129D01*
X1724710Y797204D01*
X1714042Y787857D01*
X1704695Y777189D01*
X1696770Y765403D01*
X1690522Y752703D01*
X1685950Y739241D01*
X1683207Y725373D01*
X1682242Y711200D01*
X1683207Y697026D01*
X1685950Y683158D01*
X1690522Y669696D01*
X1696770Y656996D01*
X1704695Y645210D01*
X1714042Y634542D01*
X1724710Y625195D01*
X1736496Y617270D01*
X1749196Y611022D01*
X1762658Y606450D01*
X1776526Y603707D01*
X1790700Y602742D01*
X1804873Y603707D01*
X1818741Y606450D01*
X1826818Y609193D01*
X1830527Y609752D01*
X1834184Y608888D01*
X1837283Y606755D01*
X2371039Y73050D01*
X2377592Y67614D01*
X2384653Y63855D01*
X2392324Y61518D01*
X2400808Y60706D01*
X2484069Y60706D01*
X2488031Y59893D01*
X2491384Y57607D01*
X2493568Y54203D01*
X2494584Y51511D01*
X2501595Y38506D01*
X2510129Y26466D01*
X2520035Y15544D01*
X2531262Y5943D01*
X2543556Y-2184D01*
X2556764Y-8788D01*
X2570683Y-13716D01*
X2585110Y-16865D01*
G37*
G36*
X3044291Y-5537D02*
G01*
X3059074Y-5080D01*
X3073654Y-2794D01*
X3087827Y1270D01*
X3101441Y7010D01*
X3114192Y14376D01*
X3125978Y23266D01*
X3136595Y33528D01*
X3145840Y45059D01*
X3153613Y57607D01*
X3159760Y71018D01*
X3164230Y85039D01*
X3166973Y99568D01*
X3167888Y114300D01*
X3166973Y129032D01*
X3164230Y143560D01*
X3159760Y157581D01*
X3153613Y170992D01*
X3145840Y183540D01*
X3136595Y195072D01*
X3125978Y205333D01*
X3114192Y214223D01*
X3101441Y221589D01*
X3087827Y227329D01*
X3073654Y231394D01*
X3059074Y233679D01*
X3044291Y234086D01*
X3029610Y232765D01*
X3015183Y229616D01*
X3001264Y224688D01*
X2988056Y218084D01*
X2975762Y209956D01*
X2964535Y200355D01*
X2954629Y189433D01*
X2946095Y177393D01*
X2939084Y164388D01*
X2933750Y150622D01*
X2930194Y136347D01*
X2928366Y121666D01*
X2928366Y106933D01*
X2930194Y92252D01*
X2933750Y77978D01*
X2939084Y64211D01*
X2946095Y51206D01*
X2954629Y39166D01*
X2964535Y28244D01*
X2975762Y18643D01*
X2988056Y10515D01*
X3001264Y3911D01*
X3015183Y-1016D01*
X3029610Y-4165D01*
G37*
G36*
X4117340Y6959D02*
G01*
X4130192Y14376D01*
X4141978Y23266D01*
X4152595Y33528D01*
X4161840Y45059D01*
X4169613Y57607D01*
X4171137Y60960D01*
X4117340Y60960D01*
G37*
G36*
X4010660Y7213D02*
G01*
X4010660Y60960D01*
X3956862Y60960D01*
X3962095Y51206D01*
X3970629Y39166D01*
X3980535Y28244D01*
X3991762Y18643D01*
X4004056Y10515D01*
G37*
G36*
X9708134Y58166D02*
G01*
X9722866Y58166D01*
X9737547Y59994D01*
X9751822Y63550D01*
X9765588Y68884D01*
X9778593Y75895D01*
X9790633Y84429D01*
X9801555Y94335D01*
X9811156Y105562D01*
X9819284Y117856D01*
X9825990Y131267D01*
X9828225Y134264D01*
X9831425Y136194D01*
X9835083Y136906D01*
X10146792Y136906D01*
X10155275Y137718D01*
X10162946Y140055D01*
X10169956Y143814D01*
X10177576Y150164D01*
X10180574Y151892D01*
X10183977Y152552D01*
X10187381Y151993D01*
X10195458Y149250D01*
X10209326Y146507D01*
X10223500Y145542D01*
X10237673Y146507D01*
X10251541Y149250D01*
X10265003Y153822D01*
X10277703Y160070D01*
X10289489Y167995D01*
X10300157Y177342D01*
X10309504Y188010D01*
X10317429Y199796D01*
X10323677Y212496D01*
X10328249Y225958D01*
X10330992Y239826D01*
X10331958Y254000D01*
X10330992Y268173D01*
X10328249Y282041D01*
X10323677Y295503D01*
X10317429Y308203D01*
X10309504Y319989D01*
X10300157Y330657D01*
X10289489Y340004D01*
X10277703Y347929D01*
X10265003Y354177D01*
X10251541Y358749D01*
X10237673Y361492D01*
X10223500Y362458D01*
X10209326Y361492D01*
X10195458Y358749D01*
X10181996Y354177D01*
X10169296Y347929D01*
X10157510Y340004D01*
X10146842Y330657D01*
X10137495Y319989D01*
X10129570Y308203D01*
X10123322Y295503D01*
X10118750Y282041D01*
X10116007Y268173D01*
X10115042Y254000D01*
X10116007Y239826D01*
X10117785Y230835D01*
X10117683Y226415D01*
X10115651Y222402D01*
X10112146Y219659D01*
X10107828Y218694D01*
X9834829Y218694D01*
X9830968Y219456D01*
X9827666Y221640D01*
X9825482Y224891D01*
X9822789Y231241D01*
X9815423Y243992D01*
X9806533Y255778D01*
X9796272Y266395D01*
X9784740Y275640D01*
X9772192Y283413D01*
X9758781Y289560D01*
X9744760Y294030D01*
X9730232Y296773D01*
X9715500Y297688D01*
X9700768Y296773D01*
X9686239Y294030D01*
X9672218Y289560D01*
X9658807Y283413D01*
X9646259Y275640D01*
X9634728Y266395D01*
X9624466Y255778D01*
X9615576Y243992D01*
X9608210Y231241D01*
X9602470Y217627D01*
X9598406Y203454D01*
X9596120Y188874D01*
X9595713Y174091D01*
X9597034Y159410D01*
X9600184Y144983D01*
X9605111Y131064D01*
X9611715Y117856D01*
X9619843Y105562D01*
X9629444Y94335D01*
X9640366Y84429D01*
X9652406Y75895D01*
X9665411Y68884D01*
X9679178Y63550D01*
X9693452Y59994D01*
G37*
G36*
X8146135Y100228D02*
G01*
X8160664Y100228D01*
X8175091Y102057D01*
X8189214Y105664D01*
X8202726Y111048D01*
X8215477Y118059D01*
X8227263Y126593D01*
X8237880Y136550D01*
X8247176Y147777D01*
X8254949Y160070D01*
X8261146Y173228D01*
X8265668Y187096D01*
X8268360Y201371D01*
X8269274Y215900D01*
X8268360Y230428D01*
X8265668Y244703D01*
X8261146Y258571D01*
X8254949Y271729D01*
X8247176Y284022D01*
X8237880Y295249D01*
X8227263Y305206D01*
X8215477Y313740D01*
X8202726Y320751D01*
X8189214Y326136D01*
X8175091Y329742D01*
X8160664Y331571D01*
X8146135Y331571D01*
X8131708Y329742D01*
X8117586Y326136D01*
X8104073Y320751D01*
X8091322Y313740D01*
X8079536Y305206D01*
X8068919Y295249D01*
X8059623Y284022D01*
X8051850Y271729D01*
X8045653Y258571D01*
X8041131Y244703D01*
X8038439Y230428D01*
X8037525Y215900D01*
X8038439Y201371D01*
X8041131Y187096D01*
X8045653Y173228D01*
X8051850Y160070D01*
X8059623Y147777D01*
X8068919Y136550D01*
X8079536Y126593D01*
X8091322Y118059D01*
X8104073Y111048D01*
X8117586Y105664D01*
X8131708Y102057D01*
G37*
G36*
X3956862Y167640D02*
G01*
X4010660Y167640D01*
X4010660Y221386D01*
X4004056Y218084D01*
X3991762Y209956D01*
X3980535Y200355D01*
X3970629Y189433D01*
X3962095Y177393D01*
G37*
G36*
X4117340Y167640D02*
G01*
X4171137Y167640D01*
X4169613Y170992D01*
X4161840Y183540D01*
X4152595Y195072D01*
X4141978Y205333D01*
X4130192Y214223D01*
X4117340Y221640D01*
G37*
G36*
X8908135Y354228D02*
G01*
X8922664Y354228D01*
X8937091Y356057D01*
X8951214Y359664D01*
X8964726Y365048D01*
X8977477Y372059D01*
X8989263Y380593D01*
X8999880Y390550D01*
X9009176Y401777D01*
X9016949Y414070D01*
X9023146Y427228D01*
X9027668Y441096D01*
X9030360Y455371D01*
X9031274Y469900D01*
X9030360Y484428D01*
X9027668Y498703D01*
X9023146Y512572D01*
X9016949Y525729D01*
X9009176Y538022D01*
X8999880Y549249D01*
X8989263Y559206D01*
X8977477Y567740D01*
X8964726Y574751D01*
X8951214Y580136D01*
X8937091Y583742D01*
X8922664Y585571D01*
X8908135Y585571D01*
X8893708Y583742D01*
X8879586Y580136D01*
X8866073Y574751D01*
X8853322Y567740D01*
X8841536Y559206D01*
X8830919Y549249D01*
X8821623Y538022D01*
X8816492Y529894D01*
X8813292Y526694D01*
X8809024Y525221D01*
X8804554Y525729D01*
X8800693Y528116D01*
X8616391Y712470D01*
X8614206Y715772D01*
X8613394Y719632D01*
X8613394Y1299667D01*
X8614206Y1303528D01*
X8616391Y1306830D01*
X8837625Y1528064D01*
X8840876Y1530248D01*
X8844686Y1531010D01*
X8848547Y1530299D01*
X8854186Y1528064D01*
X8868308Y1524457D01*
X8882735Y1522628D01*
X8897264Y1522628D01*
X8911691Y1524457D01*
X8925814Y1528064D01*
X8939326Y1533448D01*
X8952077Y1540459D01*
X8963863Y1548993D01*
X8974480Y1558950D01*
X8983776Y1570177D01*
X8991549Y1582470D01*
X8997746Y1595628D01*
X9002268Y1609496D01*
X9004960Y1623771D01*
X9005874Y1638300D01*
X9004960Y1652828D01*
X9002268Y1667103D01*
X8997746Y1680972D01*
X8991549Y1694129D01*
X8983776Y1706422D01*
X8974480Y1717649D01*
X8963863Y1727606D01*
X8952077Y1736140D01*
X8939326Y1743151D01*
X8925814Y1748536D01*
X8911691Y1752142D01*
X8897264Y1753971D01*
X8882735Y1753971D01*
X8868308Y1752142D01*
X8854186Y1748536D01*
X8840673Y1743151D01*
X8827922Y1736140D01*
X8816136Y1727606D01*
X8805519Y1717649D01*
X8796223Y1706422D01*
X8788450Y1694129D01*
X8784183Y1685036D01*
X8781948Y1681937D01*
X8778697Y1679905D01*
X8774988Y1679193D01*
X8758732Y1679193D01*
X8754872Y1679956D01*
X8751570Y1682191D01*
X8603691Y1830070D01*
X8601506Y1833372D01*
X8600694Y1837232D01*
X8600694Y2455367D01*
X8601506Y2459228D01*
X8603691Y2462530D01*
X8837625Y2696464D01*
X8840876Y2698648D01*
X8844686Y2699410D01*
X8848547Y2698699D01*
X8854186Y2696464D01*
X8868308Y2692857D01*
X8882735Y2691028D01*
X8897264Y2691028D01*
X8911691Y2692857D01*
X8925814Y2696464D01*
X8939326Y2701848D01*
X8952077Y2708859D01*
X8963863Y2717393D01*
X8974480Y2727350D01*
X8983776Y2738577D01*
X8991549Y2750870D01*
X8997746Y2764028D01*
X9002268Y2777896D01*
X9004960Y2792171D01*
X9005874Y2806700D01*
X9004960Y2821228D01*
X9002268Y2835503D01*
X8997746Y2849372D01*
X8991549Y2862529D01*
X8983776Y2874822D01*
X8974480Y2886049D01*
X8963863Y2896006D01*
X8952077Y2904540D01*
X8939326Y2911551D01*
X8925814Y2916936D01*
X8911691Y2920542D01*
X8897264Y2922371D01*
X8882735Y2922371D01*
X8868308Y2920542D01*
X8854186Y2916936D01*
X8840673Y2911551D01*
X8827922Y2904540D01*
X8816136Y2896006D01*
X8805519Y2886049D01*
X8796223Y2874822D01*
X8791092Y2866694D01*
X8787892Y2863494D01*
X8783624Y2862021D01*
X8779154Y2862529D01*
X8775293Y2864916D01*
X8641791Y2998470D01*
X8639606Y3001772D01*
X8638794Y3005632D01*
X8638794Y3301492D01*
X8637981Y3309975D01*
X8635644Y3317646D01*
X8631885Y3324707D01*
X8626449Y3331260D01*
X8436660Y3521049D01*
X8430107Y3526485D01*
X8423046Y3530244D01*
X8415375Y3532581D01*
X8406892Y3533394D01*
X7209332Y3533394D01*
X7205472Y3534156D01*
X7202170Y3536391D01*
X6851091Y3887470D01*
X6848906Y3890772D01*
X6848094Y3894632D01*
X6848094Y4711192D01*
X6847281Y4719675D01*
X6844944Y4727346D01*
X6841185Y4734407D01*
X6835749Y4740960D01*
X6455460Y5121249D01*
X6448907Y5126685D01*
X6441846Y5130444D01*
X6434175Y5132781D01*
X6425692Y5133594D01*
X5748832Y5133594D01*
X5744972Y5134356D01*
X5741670Y5136591D01*
X5599226Y5279034D01*
X5596991Y5282387D01*
X5596229Y5286298D01*
X5597093Y5290210D01*
X5601411Y5300218D01*
X5605932Y5315356D01*
X5608675Y5330901D01*
X5609590Y5346700D01*
X5608675Y5362498D01*
X5605932Y5378043D01*
X5601411Y5393182D01*
X5595112Y5407710D01*
X5587238Y5421376D01*
X5577789Y5434025D01*
X5566968Y5445556D01*
X5554827Y5455716D01*
X5541670Y5464403D01*
X5527548Y5471464D01*
X5512663Y5476900D01*
X5497322Y5480507D01*
X5481624Y5482336D01*
X5465775Y5482336D01*
X5450078Y5480507D01*
X5434736Y5476900D01*
X5419852Y5471464D01*
X5405729Y5464403D01*
X5392572Y5455716D01*
X5380431Y5445556D01*
X5369610Y5434025D01*
X5360162Y5421376D01*
X5352288Y5407710D01*
X5345988Y5393182D01*
X5341467Y5378043D01*
X5338724Y5362498D01*
X5337810Y5346700D01*
X5338724Y5330901D01*
X5341467Y5315356D01*
X5345988Y5300218D01*
X5352288Y5285689D01*
X5360162Y5272024D01*
X5369610Y5259374D01*
X5380431Y5247843D01*
X5392572Y5237683D01*
X5405729Y5228996D01*
X5419852Y5221935D01*
X5434736Y5216499D01*
X5450078Y5212892D01*
X5465775Y5211064D01*
X5481624Y5211064D01*
X5497322Y5212892D01*
X5512663Y5216499D01*
X5527548Y5221935D01*
X5529681Y5223002D01*
X5533745Y5224068D01*
X5537911Y5223408D01*
X5541416Y5221122D01*
X5999734Y4762855D01*
X6001918Y4759553D01*
X6002680Y4755642D01*
X6002680Y4747768D01*
X6002070Y4744313D01*
X6000292Y4741265D01*
X5997600Y4738979D01*
X5992876Y4736236D01*
X5982868Y4728464D01*
X5974080Y4719320D01*
X5966612Y4709058D01*
X5960668Y4697882D01*
X5956350Y4685944D01*
X5953658Y4673193D01*
X5952794Y4660900D01*
X5953709Y4648250D01*
X5955944Y4637633D01*
X5956096Y4634280D01*
X5955131Y4631080D01*
X5953201Y4628337D01*
X5946597Y4621784D01*
X5943193Y4619498D01*
X5939231Y4618786D01*
X5935268Y4619701D01*
X5931966Y4622038D01*
X5882538Y4622038D01*
X5882538Y4572914D01*
X5885027Y4569612D01*
X5885942Y4565599D01*
X5885230Y4561586D01*
X5882995Y4558131D01*
X5447131Y4122267D01*
X5441746Y4115714D01*
X5437936Y4108653D01*
X5435650Y4100982D01*
X5434787Y4092498D01*
X5434787Y4016197D01*
X5434025Y4012285D01*
X5431739Y4008932D01*
X5428386Y4006748D01*
X5424373Y4005173D01*
X5411622Y3998163D01*
X5399836Y3989578D01*
X5389219Y3979621D01*
X5379923Y3968445D01*
X5372150Y3956151D01*
X5365953Y3942943D01*
X5361432Y3929126D01*
X5358739Y3914851D01*
X5357774Y3899966D01*
X5357774Y3820617D01*
X5358739Y3805783D01*
X5361432Y3791508D01*
X5365953Y3777640D01*
X5372150Y3764483D01*
X5379923Y3752189D01*
X5389219Y3740962D01*
X5399836Y3731006D01*
X5411622Y3722471D01*
X5424373Y3715461D01*
X5437886Y3710076D01*
X5452008Y3706469D01*
X5466435Y3704640D01*
X5480964Y3704640D01*
X5495391Y3706469D01*
X5509514Y3710076D01*
X5523026Y3715461D01*
X5535777Y3722471D01*
X5547563Y3731006D01*
X5558180Y3740962D01*
X5567476Y3752189D01*
X5575249Y3764483D01*
X5581446Y3777640D01*
X5585968Y3791508D01*
X5588660Y3805783D01*
X5589625Y3820617D01*
X5589625Y3899966D01*
X5588660Y3914851D01*
X5585968Y3929126D01*
X5581446Y3942943D01*
X5575249Y3956151D01*
X5567476Y3968445D01*
X5558180Y3979621D01*
X5547563Y3989578D01*
X5535828Y3998163D01*
X5521909Y4005681D01*
X5519115Y4007967D01*
X5517235Y4011066D01*
X5516626Y4014622D01*
X5516626Y4071874D01*
X5517388Y4075734D01*
X5519572Y4079036D01*
X6011062Y4570526D01*
X6013907Y4572508D01*
X6017260Y4573422D01*
X6020714Y4573219D01*
X6027928Y4571390D01*
X6040526Y4570069D01*
X6053226Y4570526D01*
X6065672Y4572711D01*
X6077762Y4576622D01*
X6089142Y4582210D01*
X6099657Y4589272D01*
X6109055Y4597755D01*
X6117234Y4607458D01*
X6123940Y4618228D01*
X6129121Y4629810D01*
X6132576Y4642002D01*
X6134354Y4654550D01*
X6134354Y4667250D01*
X6132576Y4679797D01*
X6129121Y4691989D01*
X6123940Y4703572D01*
X6117234Y4714341D01*
X6109055Y4724044D01*
X6099657Y4732528D01*
X6088989Y4739690D01*
X6086602Y4741976D01*
X6085027Y4744872D01*
X6084519Y4748123D01*
X6084519Y4776317D01*
X6083655Y4784750D01*
X6081369Y4792421D01*
X6077559Y4799482D01*
X6072174Y4806086D01*
X5843828Y5034432D01*
X5841593Y5037734D01*
X5840831Y5041646D01*
X5841593Y5045506D01*
X5843828Y5048808D01*
X5847080Y5050993D01*
X5850991Y5051806D01*
X6405067Y5051806D01*
X6408928Y5050993D01*
X6412230Y5048808D01*
X6763308Y4697730D01*
X6765544Y4694428D01*
X6766306Y4690567D01*
X6766306Y3874008D01*
X6767118Y3865524D01*
X6769455Y3857853D01*
X6773214Y3850792D01*
X6778650Y3844239D01*
X7158939Y3463950D01*
X7165492Y3458514D01*
X7172553Y3454755D01*
X7180224Y3452418D01*
X7188708Y3451606D01*
X8386267Y3451606D01*
X8390128Y3450793D01*
X8393430Y3448608D01*
X8554008Y3288029D01*
X8556244Y3284728D01*
X8557006Y3280867D01*
X8557006Y2985008D01*
X8557818Y2976524D01*
X8560155Y2968853D01*
X8563914Y2961792D01*
X8569350Y2955239D01*
X8746439Y2778150D01*
X8752992Y2772714D01*
X8760053Y2768955D01*
X8772144Y2765450D01*
X8775141Y2763113D01*
X8777071Y2759862D01*
X8777681Y2756103D01*
X8776817Y2752394D01*
X8774684Y2749245D01*
X8531250Y2505760D01*
X8525814Y2499207D01*
X8522055Y2492146D01*
X8519718Y2484475D01*
X8518906Y2475992D01*
X8518906Y1816607D01*
X8519718Y1808124D01*
X8522055Y1800453D01*
X8525814Y1793392D01*
X8531250Y1786839D01*
X8708339Y1609750D01*
X8714892Y1604314D01*
X8721953Y1600555D01*
X8729624Y1598218D01*
X8738108Y1597406D01*
X8766708Y1597406D01*
X8770620Y1596593D01*
X8773871Y1594408D01*
X8776106Y1591106D01*
X8776868Y1587246D01*
X8776106Y1583334D01*
X8773871Y1580032D01*
X8543950Y1350060D01*
X8538514Y1343507D01*
X8534755Y1336446D01*
X8532418Y1328775D01*
X8531606Y1320292D01*
X8531606Y699008D01*
X8532418Y690524D01*
X8534755Y682853D01*
X8538514Y675792D01*
X8543950Y669239D01*
X8771839Y441350D01*
X8778392Y435914D01*
X8785453Y432155D01*
X8793124Y429818D01*
X8801354Y429006D01*
X8804706Y428091D01*
X8807551Y426059D01*
X8809532Y423214D01*
X8813850Y414070D01*
X8821623Y401777D01*
X8830919Y390550D01*
X8841536Y380593D01*
X8853322Y372059D01*
X8866073Y365048D01*
X8879586Y359664D01*
X8893708Y356057D01*
G37*
G36*
X8204758Y366166D02*
G01*
X8215477Y372059D01*
X8227263Y380593D01*
X8237880Y390550D01*
X8247176Y401777D01*
X8254949Y414070D01*
X8257082Y418541D01*
X8204758Y418541D01*
G37*
G36*
X8102041Y366166D02*
G01*
X8102041Y418541D01*
X8049717Y418541D01*
X8051850Y414070D01*
X8059623Y401777D01*
X8068919Y390550D01*
X8079536Y380593D01*
X8091322Y372059D01*
G37*
G36*
X3044291Y515162D02*
G01*
X3059074Y515620D01*
X3073654Y517906D01*
X3087827Y521970D01*
X3101441Y527710D01*
X3114192Y535076D01*
X3125978Y543966D01*
X3136595Y554228D01*
X3145840Y565759D01*
X3153613Y578307D01*
X3159760Y591718D01*
X3164230Y605739D01*
X3166973Y620268D01*
X3167888Y635000D01*
X3166973Y649732D01*
X3164230Y664260D01*
X3159760Y678281D01*
X3153613Y691692D01*
X3145840Y704240D01*
X3136595Y715772D01*
X3125978Y726033D01*
X3114192Y734923D01*
X3101441Y742289D01*
X3087827Y748030D01*
X3073654Y752094D01*
X3059074Y754380D01*
X3044291Y754786D01*
X3029610Y753465D01*
X3015183Y750316D01*
X3001264Y745388D01*
X2988056Y738784D01*
X2975762Y730656D01*
X2964535Y721055D01*
X2954629Y710133D01*
X2946095Y698093D01*
X2939084Y685088D01*
X2933750Y671322D01*
X2930194Y657047D01*
X2928366Y642366D01*
X2928366Y627634D01*
X2930194Y612952D01*
X2933750Y598678D01*
X2939084Y584911D01*
X2946095Y571906D01*
X2954629Y559866D01*
X2964535Y548944D01*
X2975762Y539343D01*
X2988056Y531215D01*
X3001264Y524611D01*
X3015183Y519684D01*
X3029610Y516534D01*
G37*
G36*
X8049717Y521258D02*
G01*
X8102041Y521258D01*
X8102041Y573633D01*
X8091322Y567740D01*
X8079536Y559206D01*
X8068919Y549249D01*
X8059623Y538022D01*
X8051850Y525729D01*
G37*
G36*
X8204758Y521258D02*
G01*
X8257082Y521258D01*
X8254949Y525729D01*
X8247176Y538022D01*
X8237880Y549249D01*
X8227263Y559206D01*
X8215477Y567740D01*
X8204758Y573633D01*
G37*
G36*
X4117340Y527659D02*
G01*
X4130192Y535076D01*
X4141978Y543966D01*
X4152595Y554228D01*
X4161840Y565759D01*
X4169613Y578307D01*
X4171137Y581660D01*
X4117340Y581660D01*
G37*
G36*
X4010660Y527913D02*
G01*
X4010660Y581660D01*
X3956862Y581660D01*
X3962095Y571906D01*
X3970629Y559866D01*
X3980535Y548944D01*
X3991762Y539343D01*
X4004056Y531215D01*
G37*
G36*
X4659172Y531825D02*
G01*
X4669231Y537362D01*
X4679035Y544677D01*
X4687722Y553364D01*
X4695037Y563168D01*
X4700574Y573227D01*
X4659172Y573227D01*
G37*
G36*
X4586427Y531825D02*
G01*
X4586427Y573227D01*
X4545025Y573227D01*
X4550562Y563168D01*
X4557877Y553364D01*
X4566564Y544677D01*
X4576368Y537362D01*
G37*
G36*
X10118648Y538683D02*
G01*
X10151770Y538683D01*
X10151770Y580745D01*
X10092182Y580745D01*
X10092182Y565150D01*
X10092893Y558850D01*
X10094823Y553364D01*
X10097871Y548487D01*
X10101986Y544372D01*
X10106863Y541324D01*
X10112349Y539394D01*
G37*
G36*
X10244429Y538683D02*
G01*
X10277551Y538683D01*
X10283850Y539394D01*
X10289336Y541324D01*
X10294213Y544372D01*
X10298328Y548487D01*
X10301376Y553364D01*
X10303306Y558850D01*
X10304018Y565150D01*
X10304018Y580745D01*
X10244429Y580745D01*
G37*
G36*
X7543800Y602742D02*
G01*
X7557973Y603707D01*
X7571841Y606450D01*
X7585303Y611022D01*
X7598003Y617270D01*
X7609789Y625195D01*
X7620457Y634542D01*
X7629804Y645210D01*
X7637729Y656996D01*
X7643977Y669696D01*
X7648549Y683158D01*
X7651292Y697026D01*
X7652258Y711200D01*
X7651292Y725373D01*
X7648549Y739241D01*
X7643977Y752703D01*
X7637729Y765403D01*
X7629804Y777189D01*
X7620457Y787857D01*
X7609789Y797204D01*
X7598003Y805129D01*
X7585303Y811377D01*
X7571841Y815949D01*
X7557973Y818692D01*
X7543800Y819658D01*
X7529626Y818692D01*
X7515758Y815949D01*
X7502296Y811377D01*
X7489596Y805129D01*
X7477810Y797204D01*
X7467142Y787857D01*
X7457795Y777189D01*
X7449870Y765403D01*
X7443622Y752703D01*
X7439050Y739241D01*
X7436307Y725373D01*
X7435342Y711200D01*
X7436307Y697026D01*
X7439050Y683158D01*
X7443622Y669696D01*
X7449870Y656996D01*
X7457795Y645210D01*
X7467142Y634542D01*
X7477810Y625195D01*
X7489596Y617270D01*
X7502296Y611022D01*
X7515758Y606450D01*
X7529626Y603707D01*
G37*
G36*
X5257800Y602742D02*
G01*
X5271973Y603707D01*
X5285841Y606450D01*
X5299303Y611022D01*
X5312003Y617270D01*
X5323789Y625195D01*
X5334457Y634542D01*
X5343804Y645210D01*
X5351729Y656996D01*
X5357977Y669696D01*
X5362549Y683158D01*
X5365292Y697026D01*
X5366258Y711200D01*
X5365292Y725373D01*
X5362549Y739241D01*
X5357977Y752703D01*
X5351729Y765403D01*
X5343804Y777189D01*
X5334457Y787857D01*
X5323789Y797204D01*
X5312003Y805129D01*
X5299303Y811377D01*
X5285841Y815949D01*
X5271973Y818692D01*
X5257800Y819658D01*
X5243626Y818692D01*
X5229758Y815949D01*
X5216296Y811377D01*
X5203596Y805129D01*
X5191810Y797204D01*
X5181142Y787857D01*
X5171795Y777189D01*
X5163870Y765403D01*
X5157622Y752703D01*
X5153050Y739241D01*
X5150307Y725373D01*
X5149342Y711200D01*
X5150307Y697026D01*
X5153050Y683158D01*
X5157622Y669696D01*
X5163870Y656996D01*
X5171795Y645210D01*
X5181142Y634542D01*
X5191810Y625195D01*
X5203596Y617270D01*
X5216296Y611022D01*
X5229758Y606450D01*
X5243626Y603707D01*
G37*
G36*
X8063992Y607974D02*
G01*
X8242808Y607974D01*
X8249158Y608685D01*
X8254593Y610616D01*
X8259521Y613714D01*
X8263585Y617778D01*
X8266684Y622706D01*
X8268614Y628142D01*
X8269325Y634492D01*
X8269325Y813308D01*
X8268614Y819658D01*
X8266684Y825093D01*
X8263585Y830021D01*
X8259521Y834085D01*
X8254593Y837184D01*
X8249158Y839114D01*
X8242808Y839825D01*
X8063992Y839825D01*
X8057642Y839114D01*
X8052206Y837184D01*
X8047278Y834085D01*
X8043214Y830021D01*
X8040116Y825093D01*
X8038185Y819658D01*
X8037474Y813308D01*
X8037474Y634492D01*
X8038185Y628142D01*
X8040116Y622706D01*
X8043214Y617778D01*
X8047278Y613714D01*
X8052206Y610616D01*
X8057642Y608685D01*
G37*
G36*
X8908135Y608228D02*
G01*
X8922664Y608228D01*
X8937091Y610057D01*
X8951214Y613664D01*
X8964726Y619048D01*
X8977477Y626059D01*
X8989263Y634593D01*
X8999880Y644550D01*
X9009176Y655777D01*
X9016949Y668070D01*
X9023146Y681228D01*
X9027668Y695096D01*
X9030360Y709371D01*
X9031274Y723900D01*
X9030360Y738428D01*
X9027668Y752703D01*
X9023146Y766572D01*
X9016949Y779729D01*
X9009176Y792022D01*
X8999880Y803249D01*
X8989263Y813206D01*
X8977477Y821740D01*
X8964726Y828751D01*
X8951214Y834136D01*
X8937091Y837742D01*
X8922664Y839571D01*
X8908135Y839571D01*
X8893708Y837742D01*
X8879586Y834136D01*
X8866073Y828751D01*
X8853322Y821740D01*
X8841536Y813206D01*
X8830919Y803249D01*
X8821623Y792022D01*
X8813850Y779729D01*
X8807653Y766572D01*
X8803132Y752703D01*
X8800439Y738428D01*
X8799525Y723900D01*
X8800439Y709371D01*
X8803132Y695096D01*
X8807653Y681228D01*
X8813850Y668070D01*
X8821623Y655777D01*
X8830919Y644550D01*
X8841536Y634593D01*
X8853322Y626059D01*
X8866073Y619048D01*
X8879586Y613664D01*
X8893708Y610057D01*
G37*
G36*
X4545025Y645972D02*
G01*
X4586427Y645972D01*
X4586427Y687374D01*
X4576368Y681837D01*
X4566564Y674522D01*
X4557877Y665835D01*
X4550562Y656031D01*
G37*
G36*
X4659172Y645972D02*
G01*
X4700574Y645972D01*
X4695037Y656031D01*
X4687722Y665835D01*
X4679035Y674522D01*
X4669231Y681837D01*
X4659172Y687374D01*
G37*
G36*
X3956862Y688340D02*
G01*
X4010660Y688340D01*
X4010660Y742086D01*
X4004056Y738784D01*
X3991762Y730656D01*
X3980535Y721055D01*
X3970629Y710133D01*
X3962095Y698093D01*
G37*
G36*
X4117340Y688340D02*
G01*
X4171137Y688340D01*
X4169613Y691692D01*
X4161840Y704240D01*
X4152595Y715772D01*
X4141978Y726033D01*
X4130192Y734923D01*
X4117340Y742340D01*
G37*
G36*
X4622800Y777697D02*
G01*
X4635042Y778611D01*
X4646980Y781202D01*
X4658461Y785469D01*
X4669231Y791362D01*
X4679035Y798677D01*
X4687722Y807364D01*
X4695037Y817168D01*
X4700930Y827938D01*
X4705197Y839419D01*
X4707788Y851357D01*
X4708702Y863600D01*
X4707788Y875842D01*
X4706315Y882650D01*
X4706162Y886053D01*
X4707128Y889253D01*
X4709058Y891997D01*
X4992370Y1175308D01*
X4995672Y1177493D01*
X4999532Y1178306D01*
X5151018Y1178306D01*
X5154676Y1177594D01*
X5157876Y1175613D01*
X5160111Y1172616D01*
X5163870Y1164996D01*
X5171795Y1153210D01*
X5181142Y1142542D01*
X5191810Y1133195D01*
X5203596Y1125270D01*
X5216296Y1119022D01*
X5229758Y1114450D01*
X5243626Y1111707D01*
X5257800Y1110742D01*
X5271973Y1111707D01*
X5285841Y1114450D01*
X5299303Y1119022D01*
X5312003Y1125270D01*
X5323789Y1133195D01*
X5334457Y1142542D01*
X5343804Y1153210D01*
X5351729Y1164996D01*
X5357977Y1177696D01*
X5362549Y1191158D01*
X5365292Y1205026D01*
X5366258Y1219200D01*
X5365292Y1233373D01*
X5362549Y1247241D01*
X5357977Y1260703D01*
X5351729Y1273403D01*
X5343804Y1285189D01*
X5334457Y1295857D01*
X5323789Y1305204D01*
X5312003Y1313129D01*
X5299303Y1319377D01*
X5285841Y1323949D01*
X5271973Y1326692D01*
X5257800Y1327658D01*
X5243626Y1326692D01*
X5229758Y1323949D01*
X5216296Y1319377D01*
X5203596Y1313129D01*
X5191810Y1305204D01*
X5181142Y1295857D01*
X5171795Y1285189D01*
X5163870Y1273403D01*
X5160111Y1265783D01*
X5157876Y1262786D01*
X5154676Y1260805D01*
X5151018Y1260094D01*
X4978908Y1260094D01*
X4970424Y1259281D01*
X4962753Y1256944D01*
X4955692Y1253185D01*
X4949139Y1247749D01*
X4651197Y949858D01*
X4648454Y947928D01*
X4645253Y946962D01*
X4641850Y947115D01*
X4635042Y948588D01*
X4622800Y949502D01*
X4610557Y948588D01*
X4598619Y945997D01*
X4587138Y941730D01*
X4576368Y935837D01*
X4566564Y928522D01*
X4557877Y919835D01*
X4548174Y906983D01*
X4545076Y905154D01*
X4541520Y904494D01*
X4415332Y904494D01*
X4411472Y905256D01*
X4408170Y907491D01*
X3983888Y1331772D01*
X3981805Y1334820D01*
X3980891Y1338427D01*
X3981399Y1342085D01*
X3985768Y1355496D01*
X3988460Y1369771D01*
X3989374Y1384300D01*
X3988460Y1398828D01*
X3985768Y1413103D01*
X3981246Y1426972D01*
X3975049Y1440129D01*
X3967276Y1452422D01*
X3957980Y1463649D01*
X3947363Y1473606D01*
X3935577Y1482140D01*
X3922826Y1489151D01*
X3909314Y1494536D01*
X3895191Y1498142D01*
X3880764Y1499971D01*
X3866235Y1499971D01*
X3851808Y1498142D01*
X3837686Y1494536D01*
X3824173Y1489151D01*
X3811422Y1482140D01*
X3799636Y1473606D01*
X3789019Y1463649D01*
X3779723Y1452422D01*
X3771950Y1440129D01*
X3765753Y1426972D01*
X3761232Y1413103D01*
X3758539Y1398828D01*
X3757625Y1384300D01*
X3758539Y1369771D01*
X3761232Y1355496D01*
X3765753Y1341628D01*
X3771950Y1328470D01*
X3779723Y1316177D01*
X3789019Y1304950D01*
X3799636Y1294993D01*
X3811422Y1286459D01*
X3824173Y1279448D01*
X3837686Y1274064D01*
X3851808Y1270457D01*
X3866235Y1268628D01*
X3880764Y1268628D01*
X3895191Y1270457D01*
X3909314Y1274064D01*
X3914952Y1276299D01*
X3918813Y1277010D01*
X3922623Y1276248D01*
X3925874Y1274064D01*
X4364939Y835050D01*
X4371492Y829614D01*
X4378553Y825855D01*
X4386224Y823518D01*
X4394708Y822706D01*
X4541520Y822706D01*
X4545076Y822045D01*
X4548174Y820216D01*
X4557877Y807364D01*
X4566564Y798677D01*
X4576368Y791362D01*
X4587138Y785469D01*
X4598619Y781202D01*
X4610557Y778611D01*
G37*
G36*
X5257800Y856742D02*
G01*
X5271973Y857707D01*
X5285841Y860450D01*
X5299303Y865022D01*
X5312003Y871270D01*
X5323789Y879195D01*
X5334457Y888542D01*
X5343804Y899210D01*
X5351729Y910996D01*
X5357977Y923696D01*
X5362549Y937158D01*
X5365292Y951026D01*
X5366258Y965200D01*
X5365292Y979373D01*
X5362549Y993241D01*
X5357977Y1006703D01*
X5351729Y1019403D01*
X5343804Y1031189D01*
X5334457Y1041857D01*
X5323789Y1051204D01*
X5312003Y1059129D01*
X5299303Y1065377D01*
X5285841Y1069949D01*
X5271973Y1072692D01*
X5257800Y1073658D01*
X5243626Y1072692D01*
X5229758Y1069949D01*
X5216296Y1065377D01*
X5203596Y1059129D01*
X5191810Y1051204D01*
X5181142Y1041857D01*
X5171795Y1031189D01*
X5163870Y1019403D01*
X5157622Y1006703D01*
X5153050Y993241D01*
X5150307Y979373D01*
X5149342Y965200D01*
X5150307Y951026D01*
X5153050Y937158D01*
X5157622Y923696D01*
X5163870Y910996D01*
X5171795Y899210D01*
X5181142Y888542D01*
X5191810Y879195D01*
X5203596Y871270D01*
X5216296Y865022D01*
X5229758Y860450D01*
X5243626Y857707D01*
G37*
G36*
X7496200Y868019D02*
G01*
X7496200Y917549D01*
X7446619Y917549D01*
X7449870Y910996D01*
X7457795Y899210D01*
X7467142Y888542D01*
X7477810Y879195D01*
X7489596Y871270D01*
G37*
G36*
X1838350Y868019D02*
G01*
X1844903Y871270D01*
X1856689Y879195D01*
X1867357Y888542D01*
X1876704Y899210D01*
X1884629Y910996D01*
X1887880Y917549D01*
X1838350Y917549D01*
G37*
G36*
X1743100Y868019D02*
G01*
X1743100Y917549D01*
X1693519Y917549D01*
X1696770Y910996D01*
X1704695Y899210D01*
X1714042Y888542D01*
X1724710Y879195D01*
X1736496Y871270D01*
G37*
G36*
X7591450Y868019D02*
G01*
X7598003Y871270D01*
X7609789Y879195D01*
X7620457Y888542D01*
X7629804Y899210D01*
X7637729Y910996D01*
X7640980Y917549D01*
X7591450Y917549D01*
G37*
G36*
X1838350Y1012799D02*
G01*
X1887880Y1012799D01*
X1884629Y1019403D01*
X1876704Y1031189D01*
X1867357Y1041857D01*
X1856689Y1051204D01*
X1844903Y1059129D01*
X1838350Y1062380D01*
G37*
G36*
X7446619Y1012799D02*
G01*
X7496200Y1012799D01*
X7496200Y1062380D01*
X7489596Y1059129D01*
X7477810Y1051204D01*
X7467142Y1041857D01*
X7457795Y1031189D01*
X7449870Y1019403D01*
G37*
G36*
X7591450Y1012799D02*
G01*
X7640980Y1012799D01*
X7637729Y1019403D01*
X7629804Y1031189D01*
X7620457Y1041857D01*
X7609789Y1051204D01*
X7598003Y1059129D01*
X7591450Y1062380D01*
G37*
G36*
X1693519Y1012799D02*
G01*
X1743100Y1012799D01*
X1743100Y1062380D01*
X1736496Y1059129D01*
X1724710Y1051204D01*
X1714042Y1041857D01*
X1704695Y1031189D01*
X1696770Y1019403D01*
G37*
G36*
X7543800Y1110742D02*
G01*
X7557973Y1111707D01*
X7571841Y1114450D01*
X7585303Y1119022D01*
X7598003Y1125270D01*
X7609789Y1133195D01*
X7620457Y1142542D01*
X7629804Y1153210D01*
X7637729Y1164996D01*
X7643977Y1177696D01*
X7648549Y1191158D01*
X7651292Y1205026D01*
X7652258Y1219200D01*
X7651292Y1233373D01*
X7648549Y1247241D01*
X7643977Y1260703D01*
X7637729Y1273403D01*
X7629804Y1285189D01*
X7620457Y1295857D01*
X7609789Y1305204D01*
X7598003Y1313129D01*
X7585303Y1319377D01*
X7571841Y1323949D01*
X7557973Y1326692D01*
X7543800Y1327658D01*
X7529626Y1326692D01*
X7515758Y1323949D01*
X7502296Y1319377D01*
X7489596Y1313129D01*
X7477810Y1305204D01*
X7467142Y1295857D01*
X7457795Y1285189D01*
X7449870Y1273403D01*
X7443622Y1260703D01*
X7439050Y1247241D01*
X7436307Y1233373D01*
X7435342Y1219200D01*
X7436307Y1205026D01*
X7439050Y1191158D01*
X7443622Y1177696D01*
X7449870Y1164996D01*
X7457795Y1153210D01*
X7467142Y1142542D01*
X7477810Y1133195D01*
X7489596Y1125270D01*
X7502296Y1119022D01*
X7515758Y1114450D01*
X7529626Y1111707D01*
G37*
G36*
X8120735Y1268628D02*
G01*
X8135264Y1268628D01*
X8149691Y1270457D01*
X8163814Y1274064D01*
X8177326Y1279448D01*
X8190077Y1286459D01*
X8201863Y1294993D01*
X8212480Y1304950D01*
X8221776Y1316177D01*
X8229549Y1328470D01*
X8235746Y1341628D01*
X8240268Y1355496D01*
X8242960Y1369771D01*
X8243874Y1384300D01*
X8242960Y1398828D01*
X8240268Y1413103D01*
X8235746Y1426972D01*
X8229549Y1440129D01*
X8221776Y1452422D01*
X8212480Y1463649D01*
X8201863Y1473606D01*
X8190077Y1482140D01*
X8177326Y1489151D01*
X8163814Y1494536D01*
X8149691Y1498142D01*
X8135264Y1499971D01*
X8120735Y1499971D01*
X8106308Y1498142D01*
X8092186Y1494536D01*
X8078673Y1489151D01*
X8065922Y1482140D01*
X8054136Y1473606D01*
X8043519Y1463649D01*
X8034223Y1452422D01*
X8026450Y1440129D01*
X8020253Y1426972D01*
X8015731Y1413103D01*
X8013039Y1398828D01*
X8012125Y1384300D01*
X8013039Y1369771D01*
X8015731Y1355496D01*
X8020253Y1341628D01*
X8026450Y1328470D01*
X8034223Y1316177D01*
X8043519Y1304950D01*
X8054136Y1294993D01*
X8065922Y1286459D01*
X8078673Y1279448D01*
X8092186Y1274064D01*
X8106308Y1270457D01*
G37*
G36*
X3104235Y1268628D02*
G01*
X3118764Y1268628D01*
X3133191Y1270457D01*
X3147314Y1274064D01*
X3160826Y1279448D01*
X3173577Y1286459D01*
X3185363Y1294993D01*
X3195980Y1304950D01*
X3205276Y1316177D01*
X3213049Y1328470D01*
X3219246Y1341628D01*
X3223768Y1355496D01*
X3226460Y1369771D01*
X3227374Y1384300D01*
X3226460Y1398828D01*
X3223768Y1413103D01*
X3219246Y1426972D01*
X3213049Y1440129D01*
X3205276Y1452422D01*
X3195980Y1463649D01*
X3185363Y1473606D01*
X3173577Y1482140D01*
X3160826Y1489151D01*
X3147314Y1494536D01*
X3133191Y1498142D01*
X3118764Y1499971D01*
X3104235Y1499971D01*
X3089808Y1498142D01*
X3075686Y1494536D01*
X3062173Y1489151D01*
X3049422Y1482140D01*
X3037636Y1473606D01*
X3027019Y1463649D01*
X3017723Y1452422D01*
X3009950Y1440129D01*
X3003753Y1426972D01*
X2999232Y1413103D01*
X2996539Y1398828D01*
X2995625Y1384300D01*
X2996539Y1369771D01*
X2999232Y1355496D01*
X3003753Y1341628D01*
X3009950Y1328470D01*
X3017723Y1316177D01*
X3027019Y1304950D01*
X3037636Y1294993D01*
X3049422Y1286459D01*
X3062173Y1279448D01*
X3075686Y1274064D01*
X3089808Y1270457D01*
G37*
G36*
X8882735Y1268628D02*
G01*
X8897264Y1268628D01*
X8911691Y1270457D01*
X8925814Y1274064D01*
X8939326Y1279448D01*
X8952077Y1286459D01*
X8963863Y1294993D01*
X8974480Y1304950D01*
X8983776Y1316177D01*
X8991549Y1328470D01*
X8995816Y1337564D01*
X8998051Y1340662D01*
X9001302Y1342694D01*
X9005011Y1343406D01*
X9841992Y1343406D01*
X9850475Y1344218D01*
X9858146Y1346555D01*
X9865207Y1350314D01*
X9871760Y1355750D01*
X10189616Y1673555D01*
X10192715Y1675688D01*
X10196372Y1676552D01*
X10200081Y1675993D01*
X10208158Y1673250D01*
X10222026Y1670507D01*
X10236200Y1669542D01*
X10250373Y1670507D01*
X10264241Y1673250D01*
X10277703Y1677822D01*
X10290403Y1684070D01*
X10302189Y1691995D01*
X10312857Y1701342D01*
X10322204Y1712010D01*
X10330129Y1723796D01*
X10336377Y1736496D01*
X10340949Y1749958D01*
X10343692Y1763826D01*
X10344658Y1778000D01*
X10343692Y1792173D01*
X10340949Y1806041D01*
X10336377Y1819503D01*
X10330129Y1832203D01*
X10322204Y1843989D01*
X10312857Y1854657D01*
X10302189Y1864004D01*
X10290403Y1871929D01*
X10277703Y1878177D01*
X10264241Y1882749D01*
X10250373Y1885492D01*
X10236200Y1886457D01*
X10222026Y1885492D01*
X10208158Y1882749D01*
X10194696Y1878177D01*
X10181996Y1871929D01*
X10170210Y1864004D01*
X10159542Y1854657D01*
X10150195Y1843989D01*
X10142270Y1832203D01*
X10136022Y1819503D01*
X10131450Y1806041D01*
X10128707Y1792173D01*
X10127742Y1778000D01*
X10128707Y1763826D01*
X10131450Y1749958D01*
X10134193Y1741881D01*
X10134752Y1738172D01*
X10133888Y1734515D01*
X10131755Y1731416D01*
X9828530Y1428191D01*
X9825228Y1425956D01*
X9821367Y1425194D01*
X9005011Y1425194D01*
X9001302Y1425905D01*
X8998051Y1427937D01*
X8995816Y1431036D01*
X8991549Y1440129D01*
X8983776Y1452422D01*
X8974480Y1463649D01*
X8963863Y1473606D01*
X8952077Y1482140D01*
X8939326Y1489151D01*
X8925814Y1494536D01*
X8911691Y1498142D01*
X8897264Y1499971D01*
X8882735Y1499971D01*
X8868308Y1498142D01*
X8854186Y1494536D01*
X8840673Y1489151D01*
X8827922Y1482140D01*
X8816136Y1473606D01*
X8805519Y1463649D01*
X8796223Y1452422D01*
X8788450Y1440129D01*
X8782253Y1426972D01*
X8777732Y1413103D01*
X8775039Y1398828D01*
X8774125Y1384300D01*
X8775039Y1369771D01*
X8777732Y1355496D01*
X8782253Y1341628D01*
X8788450Y1328470D01*
X8796223Y1316177D01*
X8805519Y1304950D01*
X8816136Y1294993D01*
X8827922Y1286459D01*
X8840673Y1279448D01*
X8854186Y1274064D01*
X8868308Y1270457D01*
G37*
G36*
X4659172Y1293825D02*
G01*
X4669231Y1299362D01*
X4679035Y1306677D01*
X4687722Y1315364D01*
X4695037Y1325168D01*
X4700574Y1335227D01*
X4659172Y1335227D01*
G37*
G36*
X4586427Y1293825D02*
G01*
X4586427Y1335227D01*
X4545025Y1335227D01*
X4550562Y1325168D01*
X4557877Y1315364D01*
X4566564Y1306677D01*
X4576368Y1299362D01*
G37*
G36*
X2345791Y1340662D02*
G01*
X2360574Y1341120D01*
X2375154Y1343406D01*
X2389327Y1347470D01*
X2402941Y1353210D01*
X2415692Y1360576D01*
X2427478Y1369466D01*
X2438095Y1379728D01*
X2447340Y1391259D01*
X2455113Y1403807D01*
X2461260Y1417218D01*
X2465730Y1431239D01*
X2468473Y1445768D01*
X2469388Y1460500D01*
X2468473Y1475232D01*
X2465730Y1489760D01*
X2461260Y1503781D01*
X2455113Y1517192D01*
X2447340Y1529740D01*
X2438095Y1541272D01*
X2427478Y1551533D01*
X2415692Y1560423D01*
X2402941Y1567789D01*
X2389327Y1573530D01*
X2375154Y1577594D01*
X2360574Y1579880D01*
X2345791Y1580286D01*
X2331110Y1578965D01*
X2316683Y1575816D01*
X2302764Y1570888D01*
X2289556Y1564284D01*
X2277262Y1556156D01*
X2266035Y1546555D01*
X2256129Y1535633D01*
X2247595Y1523593D01*
X2240584Y1510588D01*
X2235250Y1496822D01*
X2231694Y1482547D01*
X2229866Y1467866D01*
X2229866Y1453134D01*
X2231694Y1438452D01*
X2235250Y1424178D01*
X2240584Y1410411D01*
X2247595Y1397406D01*
X2256129Y1385366D01*
X2266035Y1374444D01*
X2277262Y1364843D01*
X2289556Y1356715D01*
X2302764Y1350111D01*
X2316683Y1345184D01*
X2331110Y1342034D01*
G37*
G36*
X1329791Y1340662D02*
G01*
X1344574Y1341120D01*
X1359154Y1343406D01*
X1373327Y1347470D01*
X1386941Y1353210D01*
X1399692Y1360576D01*
X1411478Y1369466D01*
X1422095Y1379728D01*
X1431340Y1391259D01*
X1439113Y1403807D01*
X1445260Y1417218D01*
X1449730Y1431239D01*
X1452473Y1445768D01*
X1453388Y1460500D01*
X1452473Y1475232D01*
X1449730Y1489760D01*
X1445260Y1503781D01*
X1439113Y1517192D01*
X1431340Y1529740D01*
X1422095Y1541272D01*
X1411478Y1551533D01*
X1399692Y1560423D01*
X1392174Y1564741D01*
X1389481Y1567027D01*
X1387703Y1570075D01*
X1387094Y1573580D01*
X1387094Y1785670D01*
X1387856Y1789531D01*
X1390040Y1792833D01*
X1393291Y1795018D01*
X1399641Y1797710D01*
X1412392Y1805076D01*
X1424178Y1813966D01*
X1434795Y1824228D01*
X1444040Y1835759D01*
X1451813Y1848307D01*
X1457960Y1861718D01*
X1462430Y1875739D01*
X1465173Y1890268D01*
X1466088Y1905000D01*
X1465173Y1919732D01*
X1462430Y1934260D01*
X1457960Y1948281D01*
X1451813Y1961692D01*
X1444040Y1974240D01*
X1434795Y1985772D01*
X1424178Y1996033D01*
X1412392Y2004923D01*
X1399641Y2012289D01*
X1386027Y2018030D01*
X1371854Y2022093D01*
X1357274Y2024380D01*
X1342491Y2024786D01*
X1327810Y2023465D01*
X1313383Y2020316D01*
X1301191Y2015998D01*
X1297482Y2015439D01*
X1293774Y2016252D01*
X1290675Y2018385D01*
X1085291Y2223770D01*
X1083106Y2227072D01*
X1082294Y2230932D01*
X1082294Y4627067D01*
X1083106Y4630928D01*
X1085291Y4634230D01*
X1699006Y5247944D01*
X1702663Y5250281D01*
X1706930Y5250891D01*
X1711096Y5249672D01*
X1712518Y5248859D01*
X1728165Y5242356D01*
X1744421Y5237683D01*
X1761083Y5234838D01*
X1778000Y5233924D01*
X1794916Y5234838D01*
X1811578Y5237683D01*
X1827834Y5242356D01*
X1843481Y5248859D01*
X1858264Y5257038D01*
X1872081Y5266842D01*
X1884680Y5278120D01*
X1895957Y5290718D01*
X1905762Y5304536D01*
X1913940Y5319318D01*
X1920443Y5334965D01*
X1925116Y5351221D01*
X1927961Y5367883D01*
X1928875Y5384800D01*
X1927961Y5401716D01*
X1925116Y5418378D01*
X1920443Y5434634D01*
X1913940Y5450281D01*
X1905762Y5465064D01*
X1895957Y5478881D01*
X1884680Y5491480D01*
X1872081Y5502757D01*
X1858264Y5512562D01*
X1843481Y5520740D01*
X1827834Y5527243D01*
X1811578Y5531916D01*
X1794916Y5534761D01*
X1778000Y5535676D01*
X1761083Y5534761D01*
X1744421Y5531916D01*
X1728165Y5527243D01*
X1712518Y5520740D01*
X1697736Y5512562D01*
X1683918Y5502757D01*
X1671320Y5491480D01*
X1660042Y5478881D01*
X1650238Y5465064D01*
X1642059Y5450281D01*
X1635556Y5434634D01*
X1630883Y5418378D01*
X1628038Y5401716D01*
X1627124Y5384800D01*
X1628038Y5367883D01*
X1630883Y5351221D01*
X1635556Y5334965D01*
X1642059Y5319318D01*
X1642821Y5317896D01*
X1644091Y5313730D01*
X1643481Y5309463D01*
X1641144Y5305806D01*
X1012850Y4677460D01*
X1007414Y4670907D01*
X1003655Y4663846D01*
X1001318Y4656175D01*
X1000506Y4647692D01*
X1000506Y2210308D01*
X1001318Y2201824D01*
X1003655Y2194153D01*
X1007414Y2187092D01*
X1012850Y2180539D01*
X1232865Y1960473D01*
X1235049Y1957222D01*
X1235862Y1953412D01*
X1235151Y1949602D01*
X1231950Y1941322D01*
X1228394Y1927047D01*
X1226566Y1912366D01*
X1226566Y1897634D01*
X1228394Y1882952D01*
X1231950Y1868678D01*
X1237284Y1854911D01*
X1244295Y1841906D01*
X1252829Y1829866D01*
X1262735Y1818944D01*
X1273962Y1809343D01*
X1286256Y1801215D01*
X1299667Y1794510D01*
X1302664Y1792274D01*
X1304594Y1789074D01*
X1305306Y1785416D01*
X1305306Y1584604D01*
X1304442Y1580540D01*
X1302054Y1577187D01*
X1298498Y1575003D01*
X1286764Y1570888D01*
X1273556Y1564284D01*
X1261262Y1556156D01*
X1250035Y1546555D01*
X1240129Y1535633D01*
X1231595Y1523593D01*
X1224584Y1510588D01*
X1219250Y1496822D01*
X1215694Y1482547D01*
X1213866Y1467866D01*
X1213866Y1453134D01*
X1215694Y1438452D01*
X1219250Y1424178D01*
X1224584Y1410411D01*
X1231595Y1397406D01*
X1240129Y1385366D01*
X1250035Y1374444D01*
X1261262Y1364843D01*
X1273556Y1356715D01*
X1286764Y1350111D01*
X1300683Y1345184D01*
X1315110Y1342034D01*
G37*
G36*
X7543800Y1364742D02*
G01*
X7557973Y1365707D01*
X7571841Y1368450D01*
X7585303Y1373022D01*
X7598003Y1379270D01*
X7609789Y1387195D01*
X7620457Y1396542D01*
X7629804Y1407210D01*
X7637729Y1418996D01*
X7643977Y1431696D01*
X7648549Y1445158D01*
X7651292Y1459026D01*
X7652258Y1473200D01*
X7651292Y1487373D01*
X7648549Y1501241D01*
X7643977Y1514703D01*
X7637729Y1527403D01*
X7629804Y1539189D01*
X7620457Y1549857D01*
X7609789Y1559204D01*
X7598003Y1567129D01*
X7585303Y1573377D01*
X7571841Y1577949D01*
X7557973Y1580692D01*
X7543800Y1581658D01*
X7529626Y1580692D01*
X7515758Y1577949D01*
X7502296Y1573377D01*
X7489596Y1567129D01*
X7477810Y1559204D01*
X7467142Y1549857D01*
X7457795Y1539189D01*
X7449870Y1527403D01*
X7443622Y1514703D01*
X7439050Y1501241D01*
X7436307Y1487373D01*
X7435342Y1473200D01*
X7436307Y1459026D01*
X7439050Y1445158D01*
X7443622Y1431696D01*
X7449870Y1418996D01*
X7457795Y1407210D01*
X7467142Y1396542D01*
X7477810Y1387195D01*
X7489596Y1379270D01*
X7502296Y1373022D01*
X7515758Y1368450D01*
X7529626Y1365707D01*
G37*
G36*
X5257800Y1364742D02*
G01*
X5271973Y1365707D01*
X5285841Y1368450D01*
X5299303Y1373022D01*
X5312003Y1379270D01*
X5323789Y1387195D01*
X5334457Y1396542D01*
X5343804Y1407210D01*
X5351729Y1418996D01*
X5357977Y1431696D01*
X5362549Y1445158D01*
X5365292Y1459026D01*
X5366258Y1473200D01*
X5365292Y1487373D01*
X5362549Y1501241D01*
X5357977Y1514703D01*
X5351729Y1527403D01*
X5343804Y1539189D01*
X5334457Y1549857D01*
X5323789Y1559204D01*
X5312003Y1567129D01*
X5299303Y1573377D01*
X5285841Y1577949D01*
X5271973Y1580692D01*
X5257800Y1581658D01*
X5243626Y1580692D01*
X5229758Y1577949D01*
X5216296Y1573377D01*
X5203596Y1567129D01*
X5191810Y1559204D01*
X5181142Y1549857D01*
X5171795Y1539189D01*
X5163870Y1527403D01*
X5160111Y1519783D01*
X5157876Y1516786D01*
X5154676Y1514805D01*
X5151018Y1514094D01*
X4796332Y1514094D01*
X4792472Y1514856D01*
X4789170Y1517091D01*
X4709058Y1597202D01*
X4707128Y1599946D01*
X4706162Y1603146D01*
X4706315Y1606550D01*
X4707788Y1613357D01*
X4708702Y1625600D01*
X4707788Y1637842D01*
X4705197Y1649780D01*
X4700930Y1661261D01*
X4695037Y1672031D01*
X4687722Y1681835D01*
X4679035Y1690522D01*
X4669231Y1697837D01*
X4658461Y1703730D01*
X4646980Y1707997D01*
X4636312Y1710334D01*
X4633620Y1711350D01*
X4631283Y1713077D01*
X3983888Y2360472D01*
X3981805Y2363520D01*
X3980891Y2367127D01*
X3981399Y2370785D01*
X3985768Y2384196D01*
X3988460Y2398471D01*
X3989374Y2413000D01*
X3988460Y2427528D01*
X3985768Y2441803D01*
X3981246Y2455672D01*
X3975049Y2468829D01*
X3967276Y2481122D01*
X3957980Y2492349D01*
X3947363Y2502306D01*
X3935577Y2510840D01*
X3922826Y2517851D01*
X3909314Y2523236D01*
X3895191Y2526842D01*
X3880764Y2528671D01*
X3866235Y2528671D01*
X3851808Y2526842D01*
X3837686Y2523236D01*
X3824173Y2517851D01*
X3811422Y2510840D01*
X3799636Y2502306D01*
X3789019Y2492349D01*
X3779723Y2481122D01*
X3771950Y2468829D01*
X3765753Y2455672D01*
X3761232Y2441803D01*
X3758539Y2427528D01*
X3757625Y2413000D01*
X3758539Y2398471D01*
X3761232Y2384196D01*
X3765753Y2370328D01*
X3771950Y2357170D01*
X3779723Y2344877D01*
X3789019Y2333650D01*
X3799636Y2323693D01*
X3811422Y2315159D01*
X3824173Y2308148D01*
X3837686Y2302764D01*
X3851808Y2299157D01*
X3866235Y2297328D01*
X3880764Y2297328D01*
X3895191Y2299157D01*
X3909314Y2302764D01*
X3914952Y2304999D01*
X3918813Y2305710D01*
X3922623Y2304948D01*
X3925874Y2302764D01*
X4547311Y1681327D01*
X4549648Y1677720D01*
X4550257Y1673402D01*
X4549038Y1669288D01*
X4544669Y1661261D01*
X4540402Y1649780D01*
X4537811Y1637842D01*
X4536897Y1625600D01*
X4537811Y1613357D01*
X4540402Y1601419D01*
X4544669Y1589938D01*
X4550562Y1579168D01*
X4557877Y1569364D01*
X4566564Y1560677D01*
X4576368Y1553362D01*
X4587138Y1547469D01*
X4598619Y1543202D01*
X4610557Y1540611D01*
X4622800Y1539697D01*
X4635042Y1540611D01*
X4641850Y1542084D01*
X4645253Y1542237D01*
X4648454Y1541272D01*
X4651197Y1539341D01*
X4745939Y1444650D01*
X4752492Y1439214D01*
X4759553Y1435455D01*
X4767224Y1433118D01*
X4775708Y1432306D01*
X5151018Y1432306D01*
X5154676Y1431594D01*
X5157876Y1429613D01*
X5160111Y1426616D01*
X5163870Y1418996D01*
X5171795Y1407210D01*
X5181142Y1396542D01*
X5191810Y1387195D01*
X5203596Y1379270D01*
X5216296Y1373022D01*
X5229758Y1368450D01*
X5243626Y1365707D01*
G37*
G36*
X4545025Y1407972D02*
G01*
X4586427Y1407972D01*
X4586427Y1449374D01*
X4576368Y1443837D01*
X4566564Y1436522D01*
X4557877Y1427835D01*
X4550562Y1418031D01*
G37*
G36*
X4659172Y1407972D02*
G01*
X4700574Y1407972D01*
X4695037Y1418031D01*
X4687722Y1427835D01*
X4679035Y1436522D01*
X4669231Y1443837D01*
X4659172Y1449374D01*
G37*
G36*
X3866235Y1522628D02*
G01*
X3880764Y1522628D01*
X3895191Y1524457D01*
X3909314Y1528064D01*
X3922826Y1533448D01*
X3935577Y1540459D01*
X3947363Y1548993D01*
X3957980Y1558950D01*
X3967276Y1570177D01*
X3975049Y1582470D01*
X3981246Y1595628D01*
X3985768Y1609496D01*
X3988460Y1623771D01*
X3989374Y1638300D01*
X3988460Y1652828D01*
X3985768Y1667103D01*
X3981246Y1680972D01*
X3975049Y1694129D01*
X3967276Y1706422D01*
X3957980Y1717649D01*
X3947363Y1727606D01*
X3935577Y1736140D01*
X3922826Y1743151D01*
X3909314Y1748536D01*
X3895191Y1752142D01*
X3880764Y1753971D01*
X3866235Y1753971D01*
X3851808Y1752142D01*
X3837686Y1748536D01*
X3824173Y1743151D01*
X3811422Y1736140D01*
X3799636Y1727606D01*
X3789019Y1717649D01*
X3779723Y1706422D01*
X3771950Y1694129D01*
X3767683Y1685036D01*
X3765448Y1681937D01*
X3762197Y1679905D01*
X3758488Y1679193D01*
X3742232Y1679193D01*
X3738372Y1679956D01*
X3735070Y1682191D01*
X3587191Y1830070D01*
X3584956Y1833372D01*
X3584194Y1837232D01*
X3584194Y2315667D01*
X3584956Y2319528D01*
X3587191Y2322830D01*
X3821125Y2556764D01*
X3824376Y2558948D01*
X3828186Y2559710D01*
X3832047Y2558999D01*
X3837686Y2556764D01*
X3851808Y2553157D01*
X3866235Y2551328D01*
X3880764Y2551328D01*
X3895191Y2553157D01*
X3909314Y2556764D01*
X3922826Y2562148D01*
X3935577Y2569159D01*
X3947363Y2577693D01*
X3957980Y2587650D01*
X3967276Y2598877D01*
X3975049Y2611170D01*
X3981246Y2624328D01*
X3985768Y2638196D01*
X3988460Y2652471D01*
X3989374Y2667000D01*
X3988460Y2681528D01*
X3985768Y2695803D01*
X3981246Y2709672D01*
X3975049Y2722829D01*
X3967276Y2735122D01*
X3957980Y2746349D01*
X3947363Y2756306D01*
X3935577Y2764840D01*
X3922826Y2771851D01*
X3909314Y2777236D01*
X3895191Y2780842D01*
X3880764Y2782671D01*
X3866235Y2782671D01*
X3851808Y2780842D01*
X3837686Y2777236D01*
X3824173Y2771851D01*
X3811422Y2764840D01*
X3799636Y2756306D01*
X3789019Y2746349D01*
X3779723Y2735122D01*
X3771950Y2722829D01*
X3767683Y2713736D01*
X3765448Y2710637D01*
X3762197Y2708605D01*
X3758488Y2707894D01*
X3704132Y2707894D01*
X3700272Y2708656D01*
X3696970Y2710891D01*
X3587191Y2820670D01*
X3584956Y2823972D01*
X3584194Y2827832D01*
X3584194Y3318967D01*
X3584956Y3322828D01*
X3587191Y3326129D01*
X3821125Y3560064D01*
X3824376Y3562248D01*
X3828186Y3563010D01*
X3832047Y3562299D01*
X3837686Y3560064D01*
X3851808Y3556457D01*
X3866235Y3554628D01*
X3880764Y3554628D01*
X3895191Y3556457D01*
X3909314Y3560064D01*
X3922826Y3565448D01*
X3935577Y3572459D01*
X3947363Y3580993D01*
X3957980Y3590950D01*
X3967276Y3602177D01*
X3975049Y3614470D01*
X3979316Y3623564D01*
X3981551Y3626662D01*
X3984802Y3628694D01*
X3988511Y3629406D01*
X3999992Y3629406D01*
X4008475Y3630218D01*
X4016146Y3632555D01*
X4023207Y3636314D01*
X4029760Y3641750D01*
X4270349Y3882339D01*
X4275785Y3888892D01*
X4279544Y3895953D01*
X4281881Y3903624D01*
X4282694Y3912108D01*
X4282694Y4298442D01*
X4283456Y4302353D01*
X4285691Y4305655D01*
X4537862Y4557826D01*
X4540707Y4559808D01*
X4544060Y4560722D01*
X4547514Y4560519D01*
X4554728Y4558690D01*
X4567326Y4557369D01*
X4580026Y4557826D01*
X4596434Y4560620D01*
X4600041Y4559757D01*
X4603089Y4557623D01*
X5151526Y4009237D01*
X5153863Y4005579D01*
X5154422Y4001262D01*
X5153202Y3997096D01*
X5150307Y3993845D01*
X5145836Y3990594D01*
X5135219Y3980637D01*
X5125923Y3969410D01*
X5118150Y3957116D01*
X5111953Y3943959D01*
X5107432Y3930142D01*
X5104739Y3915816D01*
X5103774Y3900982D01*
X5103774Y3821633D01*
X5104739Y3806799D01*
X5107432Y3792474D01*
X5111953Y3778656D01*
X5118150Y3765499D01*
X5125923Y3753205D01*
X5135219Y3741978D01*
X5145836Y3732022D01*
X5157622Y3723436D01*
X5170373Y3716426D01*
X5183886Y3711092D01*
X5198008Y3707485D01*
X5212435Y3705656D01*
X5226964Y3705656D01*
X5241391Y3707485D01*
X5255514Y3711092D01*
X5269026Y3716426D01*
X5281777Y3723436D01*
X5293563Y3732022D01*
X5304180Y3741978D01*
X5313476Y3753205D01*
X5321249Y3765499D01*
X5327446Y3778656D01*
X5331968Y3792474D01*
X5334660Y3806799D01*
X5335625Y3821633D01*
X5335625Y3900982D01*
X5334660Y3915816D01*
X5331968Y3930142D01*
X5327446Y3943959D01*
X5321249Y3957116D01*
X5313476Y3969410D01*
X5304180Y3980637D01*
X5293563Y3990594D01*
X5281777Y3999179D01*
X5269026Y4006189D01*
X5261711Y4009085D01*
X5259120Y4010609D01*
X5257038Y4012844D01*
X5255463Y4016552D01*
X5251653Y4023614D01*
X5246268Y4030167D01*
X4660900Y4615535D01*
X4658868Y4618482D01*
X4657953Y4621987D01*
X4658309Y4625543D01*
X4659376Y4629302D01*
X4661154Y4641850D01*
X4661154Y4654550D01*
X4659376Y4667097D01*
X4655921Y4679289D01*
X4650740Y4690872D01*
X4644034Y4701641D01*
X4635855Y4711344D01*
X4626457Y4719828D01*
X4615942Y4726889D01*
X4604562Y4732477D01*
X4592472Y4736388D01*
X4580026Y4738573D01*
X4567326Y4739030D01*
X4554728Y4737709D01*
X4542434Y4734610D01*
X4530648Y4729886D01*
X4519676Y4723536D01*
X4509668Y4715764D01*
X4500880Y4706620D01*
X4493412Y4696358D01*
X4487468Y4685182D01*
X4483150Y4673244D01*
X4480458Y4660493D01*
X4479594Y4648200D01*
X4480509Y4635550D01*
X4482744Y4624933D01*
X4482896Y4621580D01*
X4481931Y4618380D01*
X4480001Y4615637D01*
X4473397Y4609084D01*
X4469993Y4606798D01*
X4466031Y4606086D01*
X4462068Y4607001D01*
X4458766Y4609338D01*
X4409338Y4609338D01*
X4409338Y4560214D01*
X4411827Y4556912D01*
X4412742Y4552899D01*
X4412030Y4548886D01*
X4409795Y4545431D01*
X4213250Y4348886D01*
X4207814Y4342282D01*
X4204055Y4335221D01*
X4201718Y4327550D01*
X4200906Y4319117D01*
X4200906Y3932732D01*
X4200144Y3928872D01*
X4197908Y3925570D01*
X3992778Y3720439D01*
X3989578Y3718255D01*
X3985768Y3717442D01*
X3981958Y3718102D01*
X3978656Y3720134D01*
X3976370Y3723284D01*
X3975049Y3726129D01*
X3967276Y3738422D01*
X3957980Y3749649D01*
X3947363Y3759606D01*
X3935577Y3768140D01*
X3922826Y3775151D01*
X3909314Y3780536D01*
X3895191Y3784142D01*
X3880764Y3785971D01*
X3866235Y3785971D01*
X3851808Y3784142D01*
X3837686Y3780536D01*
X3824173Y3775151D01*
X3811422Y3768140D01*
X3799636Y3759606D01*
X3789019Y3749649D01*
X3779723Y3738422D01*
X3771950Y3726129D01*
X3765753Y3712972D01*
X3761232Y3699103D01*
X3758539Y3684828D01*
X3757625Y3670300D01*
X3758539Y3655771D01*
X3761232Y3641496D01*
X3765600Y3628085D01*
X3766108Y3624427D01*
X3765245Y3620820D01*
X3763111Y3617772D01*
X3514750Y3369360D01*
X3509314Y3362807D01*
X3505555Y3355746D01*
X3503218Y3348075D01*
X3502406Y3339592D01*
X3502406Y2807208D01*
X3503218Y2798724D01*
X3505555Y2791053D01*
X3509314Y2783992D01*
X3514750Y2777439D01*
X3653739Y2638450D01*
X3660292Y2633014D01*
X3667353Y2629255D01*
X3675024Y2626918D01*
X3683508Y2626106D01*
X3750208Y2626106D01*
X3754120Y2625293D01*
X3757371Y2623108D01*
X3759606Y2619806D01*
X3760368Y2615946D01*
X3759606Y2612034D01*
X3757371Y2608732D01*
X3514750Y2366060D01*
X3509314Y2359507D01*
X3505555Y2352446D01*
X3503218Y2344775D01*
X3502406Y2336292D01*
X3502406Y1816607D01*
X3503218Y1808124D01*
X3505555Y1800453D01*
X3509314Y1793392D01*
X3514750Y1786839D01*
X3691839Y1609750D01*
X3698392Y1604314D01*
X3705453Y1600555D01*
X3713124Y1598218D01*
X3721608Y1597406D01*
X3758488Y1597406D01*
X3762197Y1596694D01*
X3765448Y1594662D01*
X3767683Y1591564D01*
X3771950Y1582470D01*
X3779723Y1570177D01*
X3789019Y1558950D01*
X3799636Y1548993D01*
X3811422Y1540459D01*
X3824173Y1533448D01*
X3837686Y1528064D01*
X3851808Y1524457D01*
G37*
G36*
X3162858Y1534566D02*
G01*
X3173577Y1540459D01*
X3185363Y1548993D01*
X3195980Y1558950D01*
X3205276Y1570177D01*
X3213049Y1582470D01*
X3215182Y1586941D01*
X3162858Y1586941D01*
G37*
G36*
X8076641Y1534566D02*
G01*
X8076641Y1586941D01*
X8024317Y1586941D01*
X8026450Y1582470D01*
X8034223Y1570177D01*
X8043519Y1558950D01*
X8054136Y1548993D01*
X8065922Y1540459D01*
G37*
G36*
X8179358Y1534566D02*
G01*
X8190077Y1540459D01*
X8201863Y1548993D01*
X8212480Y1558950D01*
X8221776Y1570177D01*
X8229549Y1582470D01*
X8231682Y1586941D01*
X8179358Y1586941D01*
G37*
G36*
X3060141Y1534566D02*
G01*
X3060141Y1586941D01*
X3007817Y1586941D01*
X3009950Y1582470D01*
X3017723Y1570177D01*
X3027019Y1558950D01*
X3037636Y1548993D01*
X3049422Y1540459D01*
G37*
G36*
X7543800Y1618742D02*
G01*
X7557973Y1619707D01*
X7571841Y1622450D01*
X7585303Y1627022D01*
X7598003Y1633270D01*
X7609789Y1641195D01*
X7620457Y1650542D01*
X7629804Y1661210D01*
X7637729Y1672996D01*
X7643977Y1685696D01*
X7648549Y1699158D01*
X7651292Y1713026D01*
X7652258Y1727200D01*
X7651292Y1741373D01*
X7648549Y1755241D01*
X7643977Y1768703D01*
X7637729Y1781403D01*
X7629804Y1793189D01*
X7620457Y1803857D01*
X7609789Y1813204D01*
X7598003Y1821129D01*
X7585303Y1827377D01*
X7571841Y1831949D01*
X7557973Y1834692D01*
X7543800Y1835657D01*
X7529626Y1834692D01*
X7515758Y1831949D01*
X7502296Y1827377D01*
X7489596Y1821129D01*
X7477810Y1813204D01*
X7467142Y1803857D01*
X7457795Y1793189D01*
X7449870Y1781403D01*
X7443622Y1768703D01*
X7439050Y1755241D01*
X7436307Y1741373D01*
X7435342Y1727200D01*
X7436307Y1713026D01*
X7439050Y1699158D01*
X7443622Y1685696D01*
X7449870Y1672996D01*
X7457795Y1661210D01*
X7467142Y1650542D01*
X7477810Y1641195D01*
X7489596Y1633270D01*
X7502296Y1627022D01*
X7515758Y1622450D01*
X7529626Y1619707D01*
G37*
G36*
X5257800Y1618742D02*
G01*
X5271973Y1619707D01*
X5285841Y1622450D01*
X5299303Y1627022D01*
X5312003Y1633270D01*
X5323789Y1641195D01*
X5334457Y1650542D01*
X5343804Y1661210D01*
X5351729Y1672996D01*
X5357977Y1685696D01*
X5362549Y1699158D01*
X5365292Y1713026D01*
X5366258Y1727200D01*
X5365292Y1741373D01*
X5362549Y1755241D01*
X5357977Y1768703D01*
X5351729Y1781403D01*
X5343804Y1793189D01*
X5334457Y1803857D01*
X5323789Y1813204D01*
X5312003Y1821129D01*
X5299303Y1827377D01*
X5285841Y1831949D01*
X5271973Y1834692D01*
X5257800Y1835657D01*
X5243626Y1834692D01*
X5229758Y1831949D01*
X5216296Y1827377D01*
X5203596Y1821129D01*
X5190998Y1812645D01*
X5187848Y1811223D01*
X5184343Y1810969D01*
X5180990Y1811883D01*
X5178145Y1813915D01*
X4696358Y2295702D01*
X4694428Y2298446D01*
X4693462Y2301646D01*
X4693615Y2305050D01*
X4695088Y2311857D01*
X4696002Y2324100D01*
X4695088Y2336342D01*
X4692497Y2348280D01*
X4688230Y2359761D01*
X4682337Y2370531D01*
X4675022Y2380335D01*
X4666335Y2389022D01*
X4653483Y2398725D01*
X4651654Y2401824D01*
X4650994Y2405380D01*
X4650994Y2679192D01*
X4650181Y2687675D01*
X4647844Y2695346D01*
X4644085Y2702407D01*
X4638649Y2708960D01*
X3983888Y3363772D01*
X3981805Y3366820D01*
X3980891Y3370427D01*
X3981399Y3374085D01*
X3985768Y3387496D01*
X3988460Y3401771D01*
X3989374Y3416300D01*
X3988460Y3430828D01*
X3985768Y3445103D01*
X3981246Y3458972D01*
X3975049Y3472129D01*
X3967276Y3484422D01*
X3957980Y3495649D01*
X3947363Y3505606D01*
X3935577Y3514140D01*
X3922826Y3521151D01*
X3909314Y3526536D01*
X3895191Y3530142D01*
X3880764Y3531971D01*
X3866235Y3531971D01*
X3851808Y3530142D01*
X3837686Y3526536D01*
X3824173Y3521151D01*
X3811422Y3514140D01*
X3799636Y3505606D01*
X3789019Y3495649D01*
X3779723Y3484422D01*
X3771950Y3472129D01*
X3765753Y3458972D01*
X3761232Y3445103D01*
X3758539Y3430828D01*
X3757625Y3416300D01*
X3758539Y3401771D01*
X3761232Y3387496D01*
X3765753Y3373628D01*
X3771950Y3360470D01*
X3779723Y3348177D01*
X3789019Y3336950D01*
X3799636Y3326993D01*
X3811422Y3318459D01*
X3824173Y3311448D01*
X3837686Y3306064D01*
X3851808Y3302457D01*
X3866235Y3300628D01*
X3880764Y3300628D01*
X3895191Y3302457D01*
X3909314Y3306064D01*
X3914952Y3308299D01*
X3918813Y3309010D01*
X3922623Y3308248D01*
X3925874Y3306064D01*
X4566208Y2665730D01*
X4568444Y2662428D01*
X4569206Y2658567D01*
X4569206Y2405380D01*
X4568545Y2401824D01*
X4566716Y2398725D01*
X4553864Y2389022D01*
X4545177Y2380335D01*
X4537862Y2370531D01*
X4531969Y2359761D01*
X4527702Y2348280D01*
X4525111Y2336342D01*
X4524197Y2324100D01*
X4525111Y2311857D01*
X4527702Y2299919D01*
X4531969Y2288438D01*
X4537862Y2277668D01*
X4545177Y2267864D01*
X4553864Y2259177D01*
X4563668Y2251862D01*
X4574438Y2245969D01*
X4585919Y2241702D01*
X4597857Y2239111D01*
X4610100Y2238197D01*
X4622342Y2239111D01*
X4629150Y2240584D01*
X4632553Y2240737D01*
X4635754Y2239772D01*
X4638497Y2237841D01*
X5146700Y1729689D01*
X5148732Y1726692D01*
X5149646Y1723136D01*
X5150307Y1713026D01*
X5153050Y1699158D01*
X5157622Y1685696D01*
X5163870Y1672996D01*
X5171795Y1661210D01*
X5181142Y1650542D01*
X5191810Y1641195D01*
X5203596Y1633270D01*
X5216296Y1627022D01*
X5229758Y1622450D01*
X5243626Y1619707D01*
G37*
G36*
X8024317Y1689658D02*
G01*
X8076641Y1689658D01*
X8076641Y1742033D01*
X8065922Y1736140D01*
X8054136Y1727606D01*
X8043519Y1717649D01*
X8034223Y1706422D01*
X8026450Y1694129D01*
G37*
G36*
X3007817Y1689658D02*
G01*
X3060141Y1689658D01*
X3060141Y1742033D01*
X3049422Y1736140D01*
X3037636Y1727606D01*
X3027019Y1717649D01*
X3017723Y1706422D01*
X3009950Y1694129D01*
G37*
G36*
X8179358Y1689658D02*
G01*
X8231682Y1689658D01*
X8229549Y1694129D01*
X8221776Y1706422D01*
X8212480Y1717649D01*
X8201863Y1727606D01*
X8190077Y1736140D01*
X8179358Y1742033D01*
G37*
G36*
X3162858Y1689658D02*
G01*
X3215182Y1689658D01*
X3213049Y1694129D01*
X3205276Y1706422D01*
X3195980Y1717649D01*
X3185363Y1727606D01*
X3173577Y1736140D01*
X3162858Y1742033D01*
G37*
G36*
X3022092Y1776374D02*
G01*
X3200908Y1776374D01*
X3207258Y1777085D01*
X3212693Y1779016D01*
X3217621Y1782114D01*
X3221685Y1786178D01*
X3224784Y1791106D01*
X3226714Y1796542D01*
X3227425Y1802892D01*
X3227425Y1981707D01*
X3226714Y1988057D01*
X3224784Y1993493D01*
X3221685Y1998421D01*
X3217621Y2002485D01*
X3212693Y2005584D01*
X3207258Y2007514D01*
X3200908Y2008225D01*
X3022092Y2008225D01*
X3015742Y2007514D01*
X3010306Y2005584D01*
X3005378Y2002485D01*
X3001314Y1998421D01*
X2998216Y1993493D01*
X2996285Y1988057D01*
X2995574Y1981707D01*
X2995574Y1802892D01*
X2996285Y1796542D01*
X2998216Y1791106D01*
X3001314Y1786178D01*
X3005378Y1782114D01*
X3010306Y1779016D01*
X3015742Y1777085D01*
G37*
G36*
X8038592Y1776374D02*
G01*
X8217408Y1776374D01*
X8223758Y1777085D01*
X8229193Y1779016D01*
X8234121Y1782114D01*
X8238185Y1786178D01*
X8241284Y1791106D01*
X8243214Y1796542D01*
X8243925Y1802892D01*
X8243925Y1981707D01*
X8243214Y1988057D01*
X8241284Y1993493D01*
X8238185Y1998421D01*
X8234121Y2002485D01*
X8229193Y2005584D01*
X8223758Y2007514D01*
X8217408Y2008225D01*
X8038592Y2008225D01*
X8032242Y2007514D01*
X8026806Y2005584D01*
X8021878Y2002485D01*
X8017814Y1998421D01*
X8014716Y1993493D01*
X8012785Y1988057D01*
X8012074Y1981707D01*
X8012074Y1802892D01*
X8012785Y1796542D01*
X8014716Y1791106D01*
X8017814Y1786178D01*
X8021878Y1782114D01*
X8026806Y1779016D01*
X8032242Y1777085D01*
G37*
G36*
X8882735Y1776628D02*
G01*
X8897264Y1776628D01*
X8911691Y1778457D01*
X8925814Y1782064D01*
X8939326Y1787448D01*
X8952077Y1794459D01*
X8963863Y1802993D01*
X8974480Y1812950D01*
X8983776Y1824177D01*
X8991549Y1836470D01*
X8997746Y1849628D01*
X9002268Y1863496D01*
X9004960Y1877771D01*
X9005874Y1892300D01*
X9004960Y1906828D01*
X9002268Y1921103D01*
X8997746Y1934972D01*
X8991549Y1948129D01*
X8983776Y1960422D01*
X8974480Y1971649D01*
X8963863Y1981606D01*
X8952077Y1990140D01*
X8939326Y1997151D01*
X8925814Y2002536D01*
X8911691Y2006142D01*
X8897264Y2007971D01*
X8882735Y2007971D01*
X8868308Y2006142D01*
X8854186Y2002536D01*
X8840673Y1997151D01*
X8827922Y1990140D01*
X8816136Y1981606D01*
X8805519Y1971649D01*
X8796223Y1960422D01*
X8788450Y1948129D01*
X8782253Y1934972D01*
X8777732Y1921103D01*
X8775039Y1906828D01*
X8774125Y1892300D01*
X8775039Y1877771D01*
X8777732Y1863496D01*
X8782253Y1849628D01*
X8788450Y1836470D01*
X8796223Y1824177D01*
X8805519Y1812950D01*
X8816136Y1802993D01*
X8827922Y1794459D01*
X8840673Y1787448D01*
X8854186Y1782064D01*
X8868308Y1778457D01*
G37*
G36*
X3866235Y1776628D02*
G01*
X3880764Y1776628D01*
X3895191Y1778457D01*
X3909314Y1782064D01*
X3922826Y1787448D01*
X3935577Y1794459D01*
X3947363Y1802993D01*
X3957980Y1812950D01*
X3967276Y1824177D01*
X3975049Y1836470D01*
X3981246Y1849628D01*
X3985768Y1863496D01*
X3988460Y1877771D01*
X3989374Y1892300D01*
X3988460Y1906828D01*
X3985768Y1921103D01*
X3981246Y1934972D01*
X3975049Y1948129D01*
X3967276Y1960422D01*
X3957980Y1971649D01*
X3947363Y1981606D01*
X3935577Y1990140D01*
X3922826Y1997151D01*
X3909314Y2002536D01*
X3895191Y2006142D01*
X3880764Y2007971D01*
X3866235Y2007971D01*
X3851808Y2006142D01*
X3837686Y2002536D01*
X3824173Y1997151D01*
X3811422Y1990140D01*
X3799636Y1981606D01*
X3789019Y1971649D01*
X3779723Y1960422D01*
X3771950Y1948129D01*
X3765753Y1934972D01*
X3761232Y1921103D01*
X3758539Y1906828D01*
X3757625Y1892300D01*
X3758539Y1877771D01*
X3761232Y1863496D01*
X3765753Y1849628D01*
X3771950Y1836470D01*
X3779723Y1824177D01*
X3789019Y1812950D01*
X3799636Y1802993D01*
X3811422Y1794459D01*
X3824173Y1787448D01*
X3837686Y1782064D01*
X3851808Y1778457D01*
G37*
G36*
X2612491Y1785162D02*
G01*
X2627274Y1785620D01*
X2641854Y1787906D01*
X2656027Y1791970D01*
X2669641Y1797710D01*
X2682392Y1805076D01*
X2694178Y1813966D01*
X2704795Y1824228D01*
X2714040Y1835759D01*
X2721813Y1848307D01*
X2727960Y1861718D01*
X2732430Y1875739D01*
X2735173Y1890268D01*
X2736088Y1905000D01*
X2735173Y1919732D01*
X2732430Y1934260D01*
X2727960Y1948281D01*
X2721813Y1961692D01*
X2714040Y1974240D01*
X2704795Y1985772D01*
X2694178Y1996033D01*
X2682392Y2004923D01*
X2669641Y2012289D01*
X2656027Y2018030D01*
X2641854Y2022093D01*
X2627274Y2024380D01*
X2612491Y2024786D01*
X2597810Y2023465D01*
X2583383Y2020316D01*
X2569464Y2015388D01*
X2556256Y2008784D01*
X2543962Y2000656D01*
X2532735Y1991055D01*
X2522829Y1980133D01*
X2514295Y1968093D01*
X2507284Y1955088D01*
X2506268Y1952396D01*
X2504084Y1948992D01*
X2500731Y1946706D01*
X2496769Y1945893D01*
X2408732Y1945893D01*
X2404872Y1946656D01*
X2401570Y1948891D01*
X1933244Y2417216D01*
X1931111Y2420315D01*
X1930247Y2423972D01*
X1930806Y2427681D01*
X1933549Y2435758D01*
X1936292Y2449626D01*
X1937257Y2463800D01*
X1936292Y2477973D01*
X1933549Y2491841D01*
X1928977Y2505303D01*
X1922729Y2518003D01*
X1914804Y2529789D01*
X1905457Y2540457D01*
X1894789Y2549804D01*
X1883003Y2557729D01*
X1870303Y2563977D01*
X1856841Y2568549D01*
X1842973Y2571292D01*
X1828800Y2572258D01*
X1814626Y2571292D01*
X1800758Y2568549D01*
X1787296Y2563977D01*
X1774596Y2557729D01*
X1762810Y2549804D01*
X1752142Y2540457D01*
X1742795Y2529789D01*
X1734870Y2518003D01*
X1728622Y2505303D01*
X1724050Y2491841D01*
X1721307Y2477973D01*
X1720342Y2463800D01*
X1721307Y2449626D01*
X1724050Y2435758D01*
X1728622Y2422296D01*
X1734870Y2409596D01*
X1742795Y2397810D01*
X1752142Y2387142D01*
X1762810Y2377795D01*
X1774596Y2369870D01*
X1787296Y2363622D01*
X1800758Y2359050D01*
X1814626Y2356307D01*
X1828800Y2355342D01*
X1842973Y2356307D01*
X1856841Y2359050D01*
X1864918Y2361793D01*
X1868627Y2362352D01*
X1872284Y2361488D01*
X1875383Y2359355D01*
X2358339Y1876450D01*
X2364892Y1871014D01*
X2371953Y1867255D01*
X2379624Y1864918D01*
X2388108Y1864106D01*
X2496769Y1864106D01*
X2500731Y1863293D01*
X2504084Y1861007D01*
X2506268Y1857603D01*
X2507284Y1854911D01*
X2514295Y1841906D01*
X2522829Y1829866D01*
X2532735Y1818944D01*
X2543962Y1809343D01*
X2556256Y1801215D01*
X2569464Y1794611D01*
X2583383Y1789684D01*
X2597810Y1786534D01*
G37*
G36*
X9720834Y1836166D02*
G01*
X9735566Y1836166D01*
X9750247Y1837994D01*
X9764522Y1841550D01*
X9778288Y1846884D01*
X9791293Y1853895D01*
X9803333Y1862429D01*
X9814255Y1872335D01*
X9823856Y1883562D01*
X9831984Y1895856D01*
X9838588Y1909064D01*
X9843516Y1922983D01*
X9846665Y1937410D01*
X9848037Y1952091D01*
X9847580Y1966874D01*
X9845598Y1979371D01*
X9845903Y1983689D01*
X9847935Y1987550D01*
X9851390Y1990140D01*
X9855657Y1991106D01*
X10129418Y1991106D01*
X10133076Y1990394D01*
X10136276Y1988413D01*
X10138511Y1985416D01*
X10142270Y1977796D01*
X10150195Y1966010D01*
X10159542Y1955342D01*
X10170210Y1945995D01*
X10181996Y1938070D01*
X10194696Y1931822D01*
X10208158Y1927250D01*
X10222026Y1924507D01*
X10236200Y1923542D01*
X10250373Y1924507D01*
X10264241Y1927250D01*
X10277703Y1931822D01*
X10290403Y1938070D01*
X10302189Y1945995D01*
X10312857Y1955342D01*
X10322204Y1966010D01*
X10330129Y1977796D01*
X10336377Y1990496D01*
X10340949Y2003958D01*
X10343692Y2017826D01*
X10344658Y2032000D01*
X10343692Y2046173D01*
X10340949Y2060041D01*
X10336377Y2073503D01*
X10330129Y2086203D01*
X10322204Y2097989D01*
X10312857Y2108657D01*
X10302189Y2118004D01*
X10290403Y2125929D01*
X10277703Y2132177D01*
X10264241Y2136749D01*
X10250373Y2139492D01*
X10236200Y2140458D01*
X10222026Y2139492D01*
X10208158Y2136749D01*
X10194696Y2132177D01*
X10181996Y2125929D01*
X10170210Y2118004D01*
X10159542Y2108657D01*
X10150195Y2097989D01*
X10142270Y2086203D01*
X10138511Y2078583D01*
X10136276Y2075586D01*
X10133076Y2073605D01*
X10129418Y2072893D01*
X9779508Y2072893D01*
X9771024Y2072081D01*
X9767062Y2070862D01*
X9764014Y2070404D01*
X9761016Y2070912D01*
X9757460Y2072030D01*
X9742932Y2074773D01*
X9728200Y2075688D01*
X9713468Y2074773D01*
X9698939Y2072030D01*
X9684918Y2067560D01*
X9671507Y2061413D01*
X9658959Y2053640D01*
X9647428Y2044395D01*
X9637166Y2033778D01*
X9628276Y2021992D01*
X9620910Y2009241D01*
X9615170Y1995627D01*
X9611106Y1981454D01*
X9608820Y1966874D01*
X9608413Y1952091D01*
X9609734Y1937410D01*
X9612884Y1922983D01*
X9617811Y1909064D01*
X9624415Y1895856D01*
X9632543Y1883562D01*
X9642144Y1872335D01*
X9653066Y1862429D01*
X9665106Y1853895D01*
X9678111Y1846884D01*
X9691878Y1841550D01*
X9706152Y1837994D01*
G37*
G36*
X5257800Y1872742D02*
G01*
X5271973Y1873707D01*
X5285841Y1876450D01*
X5299303Y1881022D01*
X5312003Y1887270D01*
X5323789Y1895195D01*
X5334457Y1904542D01*
X5343804Y1915210D01*
X5351729Y1926996D01*
X5357977Y1939696D01*
X5362549Y1953158D01*
X5365292Y1967026D01*
X5366258Y1981200D01*
X5365292Y1995373D01*
X5362549Y2009241D01*
X5357977Y2022703D01*
X5351729Y2035403D01*
X5343804Y2047189D01*
X5334457Y2057857D01*
X5323789Y2067204D01*
X5312003Y2075129D01*
X5299303Y2081377D01*
X5285841Y2085949D01*
X5271973Y2088692D01*
X5257800Y2089657D01*
X5243626Y2088692D01*
X5229758Y2085949D01*
X5216296Y2081377D01*
X5203596Y2075129D01*
X5191810Y2067204D01*
X5181142Y2057857D01*
X5171795Y2047189D01*
X5163870Y2035403D01*
X5157622Y2022703D01*
X5153050Y2009241D01*
X5150307Y1995373D01*
X5149342Y1981200D01*
X5150307Y1967026D01*
X5153050Y1953158D01*
X5157622Y1939696D01*
X5163870Y1926996D01*
X5171795Y1915210D01*
X5181142Y1904542D01*
X5191810Y1895195D01*
X5203596Y1887270D01*
X5216296Y1881022D01*
X5229758Y1876450D01*
X5243626Y1873707D01*
G37*
G36*
X7543800Y1872742D02*
G01*
X7557973Y1873707D01*
X7571841Y1876450D01*
X7585303Y1881022D01*
X7598003Y1887270D01*
X7609789Y1895195D01*
X7620457Y1904542D01*
X7629804Y1915210D01*
X7637729Y1926996D01*
X7643977Y1939696D01*
X7648549Y1953158D01*
X7651292Y1967026D01*
X7652258Y1981200D01*
X7651292Y1995373D01*
X7648549Y2009241D01*
X7643977Y2022703D01*
X7637729Y2035403D01*
X7629804Y2047189D01*
X7620457Y2057857D01*
X7609789Y2067204D01*
X7598003Y2075129D01*
X7585303Y2081377D01*
X7571841Y2085949D01*
X7557973Y2088692D01*
X7543800Y2089657D01*
X7529626Y2088692D01*
X7515758Y2085949D01*
X7502296Y2081377D01*
X7489596Y2075129D01*
X7477810Y2067204D01*
X7467142Y2057857D01*
X7457795Y2047189D01*
X7449870Y2035403D01*
X7443622Y2022703D01*
X7439050Y2009241D01*
X7436307Y1995373D01*
X7435342Y1981200D01*
X7436307Y1967026D01*
X7439050Y1953158D01*
X7443622Y1939696D01*
X7449870Y1926996D01*
X7457795Y1915210D01*
X7467142Y1904542D01*
X7477810Y1895195D01*
X7489596Y1887270D01*
X7502296Y1881022D01*
X7515758Y1876450D01*
X7529626Y1873707D01*
G37*
G36*
X4646472Y1992325D02*
G01*
X4656531Y1997862D01*
X4666335Y2005177D01*
X4675022Y2013864D01*
X4682337Y2023668D01*
X4687874Y2033727D01*
X4646472Y2033727D01*
G37*
G36*
X4573727Y1992325D02*
G01*
X4573727Y2033727D01*
X4532325Y2033727D01*
X4537862Y2023668D01*
X4545177Y2013864D01*
X4553864Y2005177D01*
X4563668Y1997862D01*
G37*
G36*
X4532325Y2106472D02*
G01*
X4573727Y2106472D01*
X4573727Y2147874D01*
X4563668Y2142337D01*
X4553864Y2135022D01*
X4545177Y2126335D01*
X4537862Y2116531D01*
G37*
G36*
X4646472Y2106472D02*
G01*
X4687874Y2106472D01*
X4682337Y2116531D01*
X4675022Y2126335D01*
X4666335Y2135022D01*
X4656531Y2142337D01*
X4646472Y2147874D01*
G37*
G36*
X7543800Y2126742D02*
G01*
X7557973Y2127707D01*
X7571841Y2130450D01*
X7585303Y2135022D01*
X7598003Y2141270D01*
X7609789Y2149195D01*
X7620457Y2158542D01*
X7629804Y2169210D01*
X7637729Y2180996D01*
X7643977Y2193696D01*
X7648549Y2207158D01*
X7651292Y2221026D01*
X7652258Y2235200D01*
X7651292Y2249373D01*
X7648549Y2263241D01*
X7643977Y2276703D01*
X7637729Y2289403D01*
X7629804Y2301189D01*
X7620457Y2311857D01*
X7609789Y2321204D01*
X7598003Y2329129D01*
X7585303Y2335377D01*
X7571841Y2339949D01*
X7557973Y2342692D01*
X7543800Y2343658D01*
X7529626Y2342692D01*
X7515758Y2339949D01*
X7502296Y2335377D01*
X7489596Y2329129D01*
X7477810Y2321204D01*
X7467142Y2311857D01*
X7457795Y2301189D01*
X7449870Y2289403D01*
X7443622Y2276703D01*
X7439050Y2263241D01*
X7436307Y2249373D01*
X7435342Y2235200D01*
X7436307Y2221026D01*
X7439050Y2207158D01*
X7443622Y2193696D01*
X7449870Y2180996D01*
X7457795Y2169210D01*
X7467142Y2158542D01*
X7477810Y2149195D01*
X7489596Y2141270D01*
X7502296Y2135022D01*
X7515758Y2130450D01*
X7529626Y2127707D01*
G37*
G36*
X5257800Y2126742D02*
G01*
X5271973Y2127707D01*
X5285841Y2130450D01*
X5299303Y2135022D01*
X5312003Y2141270D01*
X5323789Y2149195D01*
X5334457Y2158542D01*
X5343804Y2169210D01*
X5351729Y2180996D01*
X5357977Y2193696D01*
X5362549Y2207158D01*
X5365292Y2221026D01*
X5366258Y2235200D01*
X5365292Y2249373D01*
X5362549Y2263241D01*
X5357977Y2276703D01*
X5351729Y2289403D01*
X5343804Y2301189D01*
X5334457Y2311857D01*
X5323789Y2321204D01*
X5312003Y2329129D01*
X5299303Y2335377D01*
X5285841Y2339949D01*
X5271973Y2342692D01*
X5257800Y2343658D01*
X5243626Y2342692D01*
X5229758Y2339949D01*
X5216296Y2335377D01*
X5203596Y2329129D01*
X5191810Y2321204D01*
X5181142Y2311857D01*
X5171795Y2301189D01*
X5163870Y2289403D01*
X5157622Y2276703D01*
X5153050Y2263241D01*
X5150307Y2249373D01*
X5149342Y2235200D01*
X5150307Y2221026D01*
X5153050Y2207158D01*
X5157622Y2193696D01*
X5163870Y2180996D01*
X5171795Y2169210D01*
X5181142Y2158542D01*
X5191810Y2149195D01*
X5203596Y2141270D01*
X5216296Y2135022D01*
X5229758Y2130450D01*
X5243626Y2127707D01*
G37*
G36*
X3104235Y2297328D02*
G01*
X3118764Y2297328D01*
X3133191Y2299157D01*
X3147314Y2302764D01*
X3160826Y2308148D01*
X3173577Y2315159D01*
X3185363Y2323693D01*
X3195980Y2333650D01*
X3205276Y2344877D01*
X3213049Y2357170D01*
X3219246Y2370328D01*
X3223768Y2384196D01*
X3226460Y2398471D01*
X3227374Y2413000D01*
X3226460Y2427528D01*
X3223768Y2441803D01*
X3219246Y2455672D01*
X3213049Y2468829D01*
X3205276Y2481122D01*
X3195980Y2492349D01*
X3185363Y2502306D01*
X3173577Y2510840D01*
X3160826Y2517851D01*
X3147314Y2523236D01*
X3133191Y2526842D01*
X3118764Y2528671D01*
X3104235Y2528671D01*
X3089808Y2526842D01*
X3075686Y2523236D01*
X3062173Y2517851D01*
X3049422Y2510840D01*
X3037636Y2502306D01*
X3027019Y2492349D01*
X3017723Y2481122D01*
X3009950Y2468829D01*
X3003753Y2455672D01*
X2999232Y2441803D01*
X2996539Y2427528D01*
X2995625Y2413000D01*
X2996539Y2398471D01*
X2999232Y2384196D01*
X3003753Y2370328D01*
X3009950Y2357170D01*
X3017723Y2344877D01*
X3027019Y2333650D01*
X3037636Y2323693D01*
X3049422Y2315159D01*
X3062173Y2308148D01*
X3075686Y2302764D01*
X3089808Y2299157D01*
G37*
G36*
X10257129Y2316683D02*
G01*
X10290251Y2316683D01*
X10296550Y2317394D01*
X10302036Y2319324D01*
X10306913Y2322372D01*
X10311028Y2326487D01*
X10314076Y2331364D01*
X10316006Y2336850D01*
X10316718Y2343150D01*
X10316718Y2358745D01*
X10257129Y2358745D01*
G37*
G36*
X10131348Y2316683D02*
G01*
X10164470Y2316683D01*
X10164470Y2358745D01*
X10104882Y2358745D01*
X10104882Y2343150D01*
X10105593Y2336850D01*
X10107523Y2331364D01*
X10110571Y2326487D01*
X10114686Y2322372D01*
X10119563Y2319324D01*
X10125049Y2317394D01*
G37*
G36*
X7543800Y2380742D02*
G01*
X7557973Y2381707D01*
X7571841Y2384450D01*
X7585303Y2389022D01*
X7598003Y2395270D01*
X7609789Y2403195D01*
X7620457Y2412542D01*
X7629804Y2423210D01*
X7637729Y2434996D01*
X7643977Y2447696D01*
X7648549Y2461158D01*
X7651292Y2475026D01*
X7652258Y2489200D01*
X7651292Y2503373D01*
X7648549Y2517241D01*
X7643977Y2530703D01*
X7637729Y2543403D01*
X7629804Y2555189D01*
X7620457Y2565857D01*
X7609789Y2575204D01*
X7598003Y2583129D01*
X7585303Y2589377D01*
X7571841Y2593949D01*
X7557973Y2596692D01*
X7543800Y2597658D01*
X7529626Y2596692D01*
X7515758Y2593949D01*
X7502296Y2589377D01*
X7489596Y2583129D01*
X7477810Y2575204D01*
X7467142Y2565857D01*
X7457795Y2555189D01*
X7449870Y2543403D01*
X7443622Y2530703D01*
X7439050Y2517241D01*
X7436307Y2503373D01*
X7435342Y2489200D01*
X7436307Y2475026D01*
X7439050Y2461158D01*
X7443622Y2447696D01*
X7449870Y2434996D01*
X7457795Y2423210D01*
X7467142Y2412542D01*
X7477810Y2403195D01*
X7489596Y2395270D01*
X7502296Y2389022D01*
X7515758Y2384450D01*
X7529626Y2381707D01*
G37*
G36*
X5257800Y2380742D02*
G01*
X5271973Y2381707D01*
X5285841Y2384450D01*
X5299303Y2389022D01*
X5312003Y2395270D01*
X5323789Y2403195D01*
X5334457Y2412542D01*
X5343804Y2423210D01*
X5351729Y2434996D01*
X5357977Y2447696D01*
X5362549Y2461158D01*
X5365292Y2475026D01*
X5366258Y2489200D01*
X5365292Y2503373D01*
X5362549Y2517241D01*
X5357977Y2530703D01*
X5351729Y2543403D01*
X5343804Y2555189D01*
X5334457Y2565857D01*
X5323789Y2575204D01*
X5312003Y2583129D01*
X5299303Y2589377D01*
X5285841Y2593949D01*
X5271973Y2596692D01*
X5257800Y2597658D01*
X5243626Y2596692D01*
X5229758Y2593949D01*
X5216296Y2589377D01*
X5203596Y2583129D01*
X5191810Y2575204D01*
X5181142Y2565857D01*
X5171795Y2555189D01*
X5163870Y2543403D01*
X5157622Y2530703D01*
X5153050Y2517241D01*
X5150307Y2503373D01*
X5149342Y2489200D01*
X5150307Y2475026D01*
X5153050Y2461158D01*
X5157622Y2447696D01*
X5163870Y2434996D01*
X5171795Y2423210D01*
X5181142Y2412542D01*
X5191810Y2403195D01*
X5203596Y2395270D01*
X5216296Y2389022D01*
X5229758Y2384450D01*
X5243626Y2381707D01*
G37*
G36*
X8120735Y2437028D02*
G01*
X8135264Y2437028D01*
X8149691Y2438857D01*
X8163814Y2442464D01*
X8177326Y2447848D01*
X8190077Y2454859D01*
X8201863Y2463393D01*
X8212480Y2473350D01*
X8221776Y2484577D01*
X8229549Y2496870D01*
X8235746Y2510028D01*
X8240268Y2523896D01*
X8242960Y2538171D01*
X8243874Y2552700D01*
X8242960Y2567228D01*
X8240268Y2581503D01*
X8235746Y2595372D01*
X8229549Y2608529D01*
X8221776Y2620822D01*
X8212480Y2632049D01*
X8201863Y2642006D01*
X8190077Y2650540D01*
X8177326Y2657551D01*
X8163814Y2662936D01*
X8149691Y2666542D01*
X8135264Y2668371D01*
X8120735Y2668371D01*
X8106308Y2666542D01*
X8092186Y2662936D01*
X8078673Y2657551D01*
X8065922Y2650540D01*
X8054136Y2642006D01*
X8043519Y2632049D01*
X8034223Y2620822D01*
X8026450Y2608529D01*
X8020253Y2595372D01*
X8015731Y2581503D01*
X8013039Y2567228D01*
X8012125Y2552700D01*
X8013039Y2538171D01*
X8015731Y2523896D01*
X8020253Y2510028D01*
X8026450Y2496870D01*
X8034223Y2484577D01*
X8043519Y2473350D01*
X8054136Y2463393D01*
X8065922Y2454859D01*
X8078673Y2447848D01*
X8092186Y2442464D01*
X8106308Y2438857D01*
G37*
G36*
X8882735Y2437028D02*
G01*
X8897264Y2437028D01*
X8911691Y2438857D01*
X8925814Y2442464D01*
X8939326Y2447848D01*
X8952077Y2454859D01*
X8963863Y2463393D01*
X8974480Y2473350D01*
X8983776Y2484577D01*
X8991549Y2496870D01*
X8997746Y2510028D01*
X9002268Y2523896D01*
X9004960Y2538171D01*
X9005874Y2552700D01*
X9004960Y2567228D01*
X9002268Y2581503D01*
X8997899Y2594914D01*
X8997391Y2598572D01*
X8998305Y2602179D01*
X9000388Y2605227D01*
X10121188Y3726027D01*
X10124694Y3728313D01*
X10128808Y3729024D01*
X10132872Y3727958D01*
X10143896Y3722522D01*
X10157358Y3717950D01*
X10171226Y3715207D01*
X10185400Y3714242D01*
X10199573Y3715207D01*
X10213441Y3717950D01*
X10226903Y3722522D01*
X10239603Y3728770D01*
X10251389Y3736695D01*
X10262057Y3746042D01*
X10271404Y3756710D01*
X10279329Y3768496D01*
X10285577Y3781196D01*
X10290149Y3794658D01*
X10292892Y3808526D01*
X10293858Y3822700D01*
X10292892Y3836873D01*
X10290149Y3850741D01*
X10285577Y3864203D01*
X10279329Y3876903D01*
X10271404Y3888689D01*
X10262057Y3899357D01*
X10251389Y3908704D01*
X10239603Y3916629D01*
X10226903Y3922877D01*
X10213441Y3927449D01*
X10199573Y3930192D01*
X10185400Y3931158D01*
X10171226Y3930192D01*
X10157358Y3927449D01*
X10143896Y3922877D01*
X10131196Y3916629D01*
X10119410Y3908704D01*
X10108742Y3899357D01*
X10099395Y3888689D01*
X10091470Y3876903D01*
X10085222Y3864203D01*
X10080650Y3850741D01*
X10077907Y3836873D01*
X10076942Y3822700D01*
X10077907Y3808526D01*
X10078516Y3805428D01*
X10078618Y3802126D01*
X10077653Y3798976D01*
X10075722Y3796284D01*
X8942374Y2662936D01*
X8939123Y2660751D01*
X8935313Y2659989D01*
X8931452Y2660700D01*
X8925814Y2662936D01*
X8911691Y2666542D01*
X8897264Y2668371D01*
X8882735Y2668371D01*
X8868308Y2666542D01*
X8854186Y2662936D01*
X8840673Y2657551D01*
X8827922Y2650540D01*
X8816136Y2642006D01*
X8805519Y2632049D01*
X8796223Y2620822D01*
X8788450Y2608529D01*
X8782253Y2595372D01*
X8777732Y2581503D01*
X8775039Y2567228D01*
X8774125Y2552700D01*
X8775039Y2538171D01*
X8777732Y2523896D01*
X8782253Y2510028D01*
X8788450Y2496870D01*
X8796223Y2484577D01*
X8805519Y2473350D01*
X8816136Y2463393D01*
X8827922Y2454859D01*
X8840673Y2447848D01*
X8854186Y2442464D01*
X8868308Y2438857D01*
G37*
G36*
X3060141Y2563266D02*
G01*
X3060141Y2615641D01*
X3007817Y2615641D01*
X3009950Y2611170D01*
X3017723Y2598877D01*
X3027019Y2587650D01*
X3037636Y2577693D01*
X3049422Y2569159D01*
G37*
G36*
X3162858Y2563266D02*
G01*
X3173577Y2569159D01*
X3185363Y2577693D01*
X3195980Y2587650D01*
X3205276Y2598877D01*
X3213049Y2611170D01*
X3215182Y2615641D01*
X3162858Y2615641D01*
G37*
G36*
X1876450Y2620619D02*
G01*
X1883003Y2623870D01*
X1894789Y2631795D01*
X1905457Y2641142D01*
X1914804Y2651810D01*
X1922729Y2663596D01*
X1925980Y2670149D01*
X1876450Y2670149D01*
G37*
G36*
X1781200Y2620619D02*
G01*
X1781200Y2670149D01*
X1731619Y2670149D01*
X1734870Y2663596D01*
X1742795Y2651810D01*
X1752142Y2641142D01*
X1762810Y2631795D01*
X1774596Y2623870D01*
G37*
G36*
X8076641Y2702966D02*
G01*
X8076641Y2755341D01*
X8024317Y2755341D01*
X8026450Y2750870D01*
X8034223Y2738577D01*
X8043519Y2727350D01*
X8054136Y2717393D01*
X8065922Y2708859D01*
G37*
G36*
X8179358Y2702966D02*
G01*
X8190077Y2708859D01*
X8201863Y2717393D01*
X8212480Y2727350D01*
X8221776Y2738577D01*
X8229549Y2750870D01*
X8231682Y2755341D01*
X8179358Y2755341D01*
G37*
G36*
X3007817Y2718358D02*
G01*
X3060141Y2718358D01*
X3060141Y2770733D01*
X3049422Y2764840D01*
X3037636Y2756306D01*
X3027019Y2746349D01*
X3017723Y2735122D01*
X3009950Y2722829D01*
G37*
G36*
X3162858Y2718358D02*
G01*
X3215182Y2718358D01*
X3213049Y2722829D01*
X3205276Y2735122D01*
X3195980Y2746349D01*
X3185363Y2756306D01*
X3173577Y2764840D01*
X3162858Y2770733D01*
G37*
G36*
X1876450Y2765399D02*
G01*
X1925980Y2765399D01*
X1922729Y2772003D01*
X1914804Y2783789D01*
X1905457Y2794457D01*
X1894789Y2803804D01*
X1883003Y2811729D01*
X1876450Y2814980D01*
G37*
G36*
X1731619Y2765399D02*
G01*
X1781200Y2765399D01*
X1781200Y2814980D01*
X1774596Y2811729D01*
X1762810Y2803804D01*
X1752142Y2794457D01*
X1742795Y2783789D01*
X1734870Y2772003D01*
G37*
G36*
X3022092Y2805074D02*
G01*
X3200908Y2805074D01*
X3207258Y2805785D01*
X3212693Y2807716D01*
X3217621Y2810814D01*
X3221685Y2814878D01*
X3224784Y2819806D01*
X3226714Y2825242D01*
X3227425Y2831592D01*
X3227425Y3010408D01*
X3226714Y3016758D01*
X3224784Y3022193D01*
X3221685Y3027121D01*
X3217621Y3031185D01*
X3212693Y3034284D01*
X3207258Y3036214D01*
X3200908Y3036925D01*
X3022092Y3036925D01*
X3015742Y3036214D01*
X3010306Y3034284D01*
X3005378Y3031185D01*
X3001314Y3027121D01*
X2998216Y3022193D01*
X2996285Y3016758D01*
X2995574Y3010408D01*
X2995574Y2831592D01*
X2996285Y2825242D01*
X2998216Y2819806D01*
X3001314Y2814878D01*
X3005378Y2810814D01*
X3010306Y2807716D01*
X3015742Y2805785D01*
G37*
G36*
X3866235Y2805328D02*
G01*
X3880764Y2805328D01*
X3895191Y2807157D01*
X3909314Y2810764D01*
X3922826Y2816148D01*
X3935577Y2823159D01*
X3947363Y2831693D01*
X3957980Y2841650D01*
X3967276Y2852877D01*
X3975049Y2865170D01*
X3981246Y2878328D01*
X3985768Y2892196D01*
X3988460Y2906471D01*
X3989374Y2921000D01*
X3988460Y2935528D01*
X3985768Y2949803D01*
X3981246Y2963672D01*
X3975049Y2976829D01*
X3967276Y2989122D01*
X3957980Y3000349D01*
X3947363Y3010306D01*
X3935577Y3018840D01*
X3922826Y3025851D01*
X3909314Y3031236D01*
X3895191Y3034842D01*
X3880764Y3036671D01*
X3866235Y3036671D01*
X3851808Y3034842D01*
X3837686Y3031236D01*
X3824173Y3025851D01*
X3811422Y3018840D01*
X3799636Y3010306D01*
X3789019Y3000349D01*
X3779723Y2989122D01*
X3771950Y2976829D01*
X3765753Y2963672D01*
X3761232Y2949803D01*
X3758539Y2935528D01*
X3757625Y2921000D01*
X3758539Y2906471D01*
X3761232Y2892196D01*
X3765753Y2878328D01*
X3771950Y2865170D01*
X3779723Y2852877D01*
X3789019Y2841650D01*
X3799636Y2831693D01*
X3811422Y2823159D01*
X3824173Y2816148D01*
X3837686Y2810764D01*
X3851808Y2807157D01*
G37*
G36*
X8024317Y2858058D02*
G01*
X8076641Y2858058D01*
X8076641Y2910433D01*
X8065922Y2904540D01*
X8054136Y2896006D01*
X8043519Y2886049D01*
X8034223Y2874822D01*
X8026450Y2862529D01*
G37*
G36*
X8179358Y2858058D02*
G01*
X8231682Y2858058D01*
X8229549Y2862529D01*
X8221776Y2874822D01*
X8212480Y2886049D01*
X8201863Y2896006D01*
X8190077Y2904540D01*
X8179358Y2910433D01*
G37*
G36*
X8038592Y2944774D02*
G01*
X8217408Y2944774D01*
X8223758Y2945485D01*
X8229193Y2947416D01*
X8234121Y2950514D01*
X8238185Y2954578D01*
X8241284Y2959506D01*
X8243214Y2964942D01*
X8243925Y2971292D01*
X8243925Y3150108D01*
X8243214Y3156458D01*
X8241284Y3161893D01*
X8238185Y3166821D01*
X8234121Y3170885D01*
X8229193Y3173984D01*
X8223758Y3175914D01*
X8217408Y3176625D01*
X8038592Y3176625D01*
X8032242Y3175914D01*
X8026806Y3173984D01*
X8021878Y3170885D01*
X8017814Y3166821D01*
X8014716Y3161893D01*
X8012785Y3156458D01*
X8012074Y3150108D01*
X8012074Y2971292D01*
X8012785Y2964942D01*
X8014716Y2959506D01*
X8017814Y2954578D01*
X8021878Y2950514D01*
X8026806Y2947416D01*
X8032242Y2945485D01*
G37*
G36*
X8882735Y2945028D02*
G01*
X8897264Y2945028D01*
X8911691Y2946857D01*
X8925814Y2950464D01*
X8939326Y2955848D01*
X8952077Y2962859D01*
X8963863Y2971393D01*
X8974480Y2981350D01*
X8983776Y2992577D01*
X8991549Y3004870D01*
X8997746Y3018028D01*
X9002268Y3031896D01*
X9004960Y3046171D01*
X9005874Y3060700D01*
X9004960Y3075228D01*
X9002268Y3089503D01*
X8997746Y3103372D01*
X8991549Y3116529D01*
X8983776Y3128822D01*
X8974480Y3140049D01*
X8963863Y3150006D01*
X8952077Y3158540D01*
X8939326Y3165551D01*
X8925814Y3170936D01*
X8911691Y3174542D01*
X8897264Y3176371D01*
X8882735Y3176371D01*
X8868308Y3174542D01*
X8854186Y3170936D01*
X8840673Y3165551D01*
X8827922Y3158540D01*
X8816136Y3150006D01*
X8805519Y3140049D01*
X8796223Y3128822D01*
X8788450Y3116529D01*
X8782253Y3103372D01*
X8777732Y3089503D01*
X8775039Y3075228D01*
X8774125Y3060700D01*
X8775039Y3046171D01*
X8777732Y3031896D01*
X8782253Y3018028D01*
X8788450Y3004870D01*
X8796223Y2992577D01*
X8805519Y2981350D01*
X8816136Y2971393D01*
X8827922Y2962859D01*
X8840673Y2955848D01*
X8854186Y2950464D01*
X8868308Y2946857D01*
G37*
G36*
X2358491Y3093262D02*
G01*
X2373274Y3093720D01*
X2387854Y3096006D01*
X2402027Y3100070D01*
X2415641Y3105810D01*
X2428392Y3113176D01*
X2440178Y3122066D01*
X2450795Y3132328D01*
X2460040Y3143859D01*
X2467813Y3156407D01*
X2472334Y3166262D01*
X2474569Y3169412D01*
X2477820Y3171444D01*
X2481580Y3172206D01*
X2602992Y3172206D01*
X2611475Y3173018D01*
X2619146Y3175355D01*
X2626207Y3179114D01*
X2632760Y3184550D01*
X2873349Y3425139D01*
X2878785Y3431692D01*
X2882544Y3438753D01*
X2884881Y3446424D01*
X2885694Y3454908D01*
X2885694Y3636467D01*
X2886456Y3640328D01*
X2888691Y3643629D01*
X3050489Y3805428D01*
X3053740Y3807612D01*
X3057652Y3808374D01*
X3200908Y3808374D01*
X3207258Y3809085D01*
X3212693Y3811015D01*
X3217621Y3814114D01*
X3221685Y3818178D01*
X3224784Y3823106D01*
X3226714Y3828542D01*
X3227425Y3834892D01*
X3227425Y4013708D01*
X3226714Y4020058D01*
X3224784Y4025493D01*
X3221685Y4030421D01*
X3217621Y4034485D01*
X3212693Y4037584D01*
X3207258Y4039514D01*
X3200908Y4040225D01*
X3022092Y4040225D01*
X3015742Y4039514D01*
X3010306Y4037584D01*
X3005378Y4034485D01*
X3001314Y4030421D01*
X2998216Y4025493D01*
X2996285Y4020058D01*
X2995574Y4013708D01*
X2995574Y3870451D01*
X2994812Y3866540D01*
X2992628Y3863289D01*
X2816250Y3686860D01*
X2810814Y3680307D01*
X2807055Y3673246D01*
X2804718Y3665575D01*
X2803906Y3657092D01*
X2803906Y3475532D01*
X2803144Y3471672D01*
X2800908Y3468370D01*
X2589530Y3256991D01*
X2586228Y3254756D01*
X2582367Y3253994D01*
X2481580Y3253994D01*
X2477820Y3254756D01*
X2474569Y3256788D01*
X2472334Y3259937D01*
X2467813Y3269792D01*
X2460040Y3282340D01*
X2450795Y3293872D01*
X2440178Y3304133D01*
X2428392Y3313023D01*
X2415641Y3320389D01*
X2402027Y3326129D01*
X2387854Y3330194D01*
X2373274Y3332479D01*
X2358491Y3332886D01*
X2343810Y3331565D01*
X2329383Y3328415D01*
X2315464Y3323488D01*
X2302256Y3316884D01*
X2289962Y3308756D01*
X2278735Y3299155D01*
X2268829Y3288233D01*
X2260295Y3276193D01*
X2253284Y3263188D01*
X2247950Y3249422D01*
X2244394Y3235147D01*
X2242566Y3220466D01*
X2242566Y3205734D01*
X2244394Y3191052D01*
X2247950Y3176778D01*
X2253284Y3163011D01*
X2260295Y3150006D01*
X2268829Y3137966D01*
X2278735Y3127044D01*
X2289962Y3117443D01*
X2302256Y3109315D01*
X2315464Y3102711D01*
X2329383Y3097784D01*
X2343810Y3094634D01*
G37*
G36*
X1342491Y3093262D02*
G01*
X1357274Y3093720D01*
X1371854Y3096006D01*
X1386027Y3100070D01*
X1399641Y3105810D01*
X1412392Y3113176D01*
X1424178Y3122066D01*
X1434795Y3132328D01*
X1444040Y3143859D01*
X1451813Y3156407D01*
X1457960Y3169818D01*
X1462430Y3183839D01*
X1465173Y3198368D01*
X1466088Y3213100D01*
X1465173Y3227832D01*
X1462430Y3242360D01*
X1457960Y3256381D01*
X1451813Y3269792D01*
X1444040Y3282340D01*
X1434795Y3293872D01*
X1424178Y3304133D01*
X1412392Y3313023D01*
X1399641Y3320389D01*
X1393291Y3323082D01*
X1390040Y3325266D01*
X1387856Y3328568D01*
X1387094Y3332429D01*
X1387094Y3538270D01*
X1387856Y3542131D01*
X1390040Y3545433D01*
X1393291Y3547618D01*
X1399641Y3550310D01*
X1412392Y3557676D01*
X1424178Y3566566D01*
X1434795Y3576828D01*
X1444040Y3588359D01*
X1451813Y3600907D01*
X1457960Y3614318D01*
X1462430Y3628339D01*
X1465173Y3642868D01*
X1466088Y3657600D01*
X1465173Y3672332D01*
X1462430Y3686860D01*
X1457960Y3700881D01*
X1451813Y3714292D01*
X1444040Y3726840D01*
X1434795Y3738372D01*
X1424178Y3748633D01*
X1412392Y3757523D01*
X1399641Y3764889D01*
X1393291Y3767582D01*
X1390040Y3769766D01*
X1387856Y3773068D01*
X1387094Y3776929D01*
X1387094Y4431842D01*
X1387906Y4435754D01*
X1390091Y4439056D01*
X2198979Y5247944D01*
X2202637Y5250281D01*
X2206955Y5250891D01*
X2211070Y5249672D01*
X2212543Y5248859D01*
X2228138Y5242356D01*
X2244445Y5237683D01*
X2261108Y5234838D01*
X2278024Y5233924D01*
X2294890Y5234838D01*
X2311552Y5237683D01*
X2327859Y5242356D01*
X2343454Y5248859D01*
X2358288Y5257038D01*
X2372055Y5266842D01*
X2384704Y5278120D01*
X2395982Y5290718D01*
X2405786Y5304536D01*
X2413965Y5319318D01*
X2420416Y5334965D01*
X2425090Y5351221D01*
X2427935Y5367883D01*
X2428900Y5384800D01*
X2427935Y5401716D01*
X2425090Y5418378D01*
X2420416Y5434634D01*
X2413965Y5450281D01*
X2405786Y5465064D01*
X2395982Y5478881D01*
X2384704Y5491480D01*
X2372055Y5502757D01*
X2358288Y5512562D01*
X2343454Y5520740D01*
X2327859Y5527243D01*
X2311552Y5531916D01*
X2294890Y5534761D01*
X2278024Y5535676D01*
X2261108Y5534761D01*
X2244445Y5531916D01*
X2228138Y5527243D01*
X2212543Y5520740D01*
X2197709Y5512562D01*
X2183942Y5502757D01*
X2171293Y5491480D01*
X2160016Y5478881D01*
X2150211Y5465064D01*
X2142032Y5450281D01*
X2135581Y5434634D01*
X2130907Y5418378D01*
X2128062Y5401716D01*
X2127097Y5384800D01*
X2128062Y5367883D01*
X2130907Y5351221D01*
X2135581Y5334965D01*
X2142032Y5319318D01*
X2142845Y5317896D01*
X2144064Y5313730D01*
X2143455Y5309463D01*
X2141118Y5305806D01*
X1317650Y4482287D01*
X1312214Y4475683D01*
X1308455Y4468622D01*
X1306118Y4460951D01*
X1305306Y4452518D01*
X1305306Y3777183D01*
X1304594Y3773525D01*
X1302664Y3770325D01*
X1299667Y3768090D01*
X1286256Y3761384D01*
X1273962Y3753256D01*
X1262735Y3743655D01*
X1252829Y3732733D01*
X1244295Y3720693D01*
X1237284Y3707688D01*
X1231950Y3693922D01*
X1228394Y3679647D01*
X1226566Y3664965D01*
X1226566Y3650234D01*
X1228394Y3635552D01*
X1231950Y3621278D01*
X1237284Y3607511D01*
X1244295Y3594506D01*
X1252829Y3582466D01*
X1262735Y3571544D01*
X1273962Y3561943D01*
X1286256Y3553815D01*
X1299667Y3547110D01*
X1302664Y3544874D01*
X1304594Y3541674D01*
X1305306Y3538016D01*
X1305306Y3332683D01*
X1304594Y3329025D01*
X1302664Y3325825D01*
X1299667Y3323590D01*
X1286256Y3316884D01*
X1273962Y3308756D01*
X1262735Y3299155D01*
X1252829Y3288233D01*
X1244295Y3276193D01*
X1237284Y3263188D01*
X1231950Y3249422D01*
X1228394Y3235147D01*
X1226566Y3220466D01*
X1226566Y3205734D01*
X1228394Y3191052D01*
X1231950Y3176778D01*
X1237284Y3163011D01*
X1244295Y3150006D01*
X1252829Y3137966D01*
X1262735Y3127044D01*
X1273962Y3117443D01*
X1286256Y3109315D01*
X1299464Y3102711D01*
X1313383Y3097784D01*
X1327810Y3094634D01*
G37*
G36*
X6362700Y3182924D02*
G01*
X6377228Y3183839D01*
X6391503Y3186531D01*
X6405372Y3191052D01*
X6418529Y3197250D01*
X6430822Y3205022D01*
X6442049Y3214319D01*
X6452006Y3224936D01*
X6460540Y3236722D01*
X6467551Y3249472D01*
X6472936Y3262985D01*
X6476542Y3277057D01*
X6478371Y3291535D01*
X6478371Y3306064D01*
X6476542Y3320491D01*
X6472936Y3334613D01*
X6467551Y3348126D01*
X6460540Y3360877D01*
X6452006Y3372662D01*
X6442049Y3383279D01*
X6430822Y3392525D01*
X6418529Y3400348D01*
X6405372Y3406546D01*
X6391503Y3411016D01*
X6377228Y3413760D01*
X6362700Y3414674D01*
X6348171Y3413760D01*
X6333896Y3411016D01*
X6320028Y3406546D01*
X6306870Y3400348D01*
X6294577Y3392525D01*
X6283350Y3383279D01*
X6273393Y3372662D01*
X6264859Y3360877D01*
X6257848Y3348126D01*
X6252464Y3334613D01*
X6248857Y3320491D01*
X6247028Y3306064D01*
X6247028Y3291535D01*
X6248857Y3277057D01*
X6252464Y3262985D01*
X6257848Y3249472D01*
X6264859Y3236722D01*
X6273393Y3224936D01*
X6283350Y3214319D01*
X6294577Y3205022D01*
X6306870Y3197250D01*
X6320028Y3191052D01*
X6333896Y3186531D01*
X6348171Y3183839D01*
G37*
G36*
X3104235Y3300628D02*
G01*
X3118764Y3300628D01*
X3133191Y3302457D01*
X3147314Y3306064D01*
X3160826Y3311448D01*
X3173577Y3318459D01*
X3185363Y3326993D01*
X3195980Y3336950D01*
X3205276Y3348177D01*
X3213049Y3360470D01*
X3219246Y3373628D01*
X3223768Y3387496D01*
X3226460Y3401771D01*
X3227374Y3416300D01*
X3226460Y3430828D01*
X3223768Y3445103D01*
X3219246Y3458972D01*
X3213049Y3472129D01*
X3205276Y3484422D01*
X3195980Y3495649D01*
X3185363Y3505606D01*
X3173577Y3514140D01*
X3160826Y3521151D01*
X3147314Y3526536D01*
X3133191Y3530142D01*
X3118764Y3531971D01*
X3104235Y3531971D01*
X3089808Y3530142D01*
X3075686Y3526536D01*
X3062173Y3521151D01*
X3049422Y3514140D01*
X3037636Y3505606D01*
X3027019Y3495649D01*
X3017723Y3484422D01*
X3009950Y3472129D01*
X3003753Y3458972D01*
X2999232Y3445103D01*
X2996539Y3430828D01*
X2995625Y3416300D01*
X2996539Y3401771D01*
X2999232Y3387496D01*
X3003753Y3373628D01*
X3009950Y3360470D01*
X3017723Y3348177D01*
X3027019Y3336950D01*
X3037636Y3326993D01*
X3049422Y3318459D01*
X3062173Y3311448D01*
X3075686Y3306064D01*
X3089808Y3302457D01*
G37*
G36*
X2612491Y3537762D02*
G01*
X2627274Y3538220D01*
X2641854Y3540506D01*
X2656027Y3544570D01*
X2669641Y3550310D01*
X2682392Y3557676D01*
X2694178Y3566566D01*
X2704795Y3576828D01*
X2714040Y3588359D01*
X2721813Y3600907D01*
X2727960Y3614318D01*
X2732430Y3628339D01*
X2735173Y3642868D01*
X2736088Y3657600D01*
X2735173Y3672332D01*
X2732430Y3686860D01*
X2727960Y3700881D01*
X2721813Y3714292D01*
X2714040Y3726840D01*
X2704795Y3738372D01*
X2694178Y3748633D01*
X2682392Y3757523D01*
X2669641Y3764889D01*
X2656027Y3770629D01*
X2641854Y3774694D01*
X2627274Y3776979D01*
X2612491Y3777386D01*
X2597810Y3776065D01*
X2583383Y3772915D01*
X2569464Y3767988D01*
X2556256Y3761384D01*
X2543962Y3753256D01*
X2532735Y3743655D01*
X2522829Y3732733D01*
X2514295Y3720693D01*
X2507284Y3707688D01*
X2506268Y3704996D01*
X2504084Y3701592D01*
X2500731Y3699306D01*
X2496769Y3698494D01*
X2319832Y3698494D01*
X2315972Y3699256D01*
X2312670Y3701491D01*
X1920544Y4093616D01*
X1918411Y4096715D01*
X1917547Y4100372D01*
X1918106Y4104081D01*
X1920849Y4112158D01*
X1923592Y4126026D01*
X1924557Y4140200D01*
X1923592Y4154373D01*
X1920849Y4168241D01*
X1916277Y4181703D01*
X1910029Y4194403D01*
X1902104Y4206189D01*
X1892757Y4216857D01*
X1882089Y4226204D01*
X1870303Y4234129D01*
X1857603Y4240377D01*
X1844141Y4244949D01*
X1830273Y4247692D01*
X1816100Y4248658D01*
X1801926Y4247692D01*
X1788058Y4244949D01*
X1774596Y4240377D01*
X1761896Y4234129D01*
X1750110Y4226204D01*
X1739442Y4216857D01*
X1730095Y4206189D01*
X1722170Y4194403D01*
X1715922Y4181703D01*
X1711350Y4168241D01*
X1708607Y4154373D01*
X1707642Y4140200D01*
X1708607Y4126026D01*
X1711350Y4112158D01*
X1715922Y4098696D01*
X1722170Y4085996D01*
X1730095Y4074210D01*
X1739442Y4063542D01*
X1750110Y4054195D01*
X1761896Y4046270D01*
X1774596Y4040022D01*
X1788058Y4035450D01*
X1801926Y4032707D01*
X1816100Y4031742D01*
X1830273Y4032707D01*
X1844141Y4035450D01*
X1852218Y4038193D01*
X1855927Y4038752D01*
X1859584Y4037888D01*
X1862683Y4035755D01*
X2269439Y3629050D01*
X2275992Y3623614D01*
X2283053Y3619855D01*
X2290724Y3617518D01*
X2299208Y3616706D01*
X2496769Y3616706D01*
X2500731Y3615893D01*
X2504084Y3613607D01*
X2506268Y3610203D01*
X2507284Y3607511D01*
X2514295Y3594506D01*
X2522829Y3582466D01*
X2532735Y3571544D01*
X2543962Y3561943D01*
X2556256Y3553815D01*
X2569464Y3547211D01*
X2583383Y3542284D01*
X2597810Y3539134D01*
G37*
G36*
X3060141Y3566566D02*
G01*
X3060141Y3618941D01*
X3007817Y3618941D01*
X3009950Y3614470D01*
X3017723Y3602177D01*
X3027019Y3590950D01*
X3037636Y3580993D01*
X3049422Y3572459D01*
G37*
G36*
X3162858Y3566566D02*
G01*
X3173577Y3572459D01*
X3185363Y3580993D01*
X3195980Y3590950D01*
X3205276Y3602177D01*
X3213049Y3614470D01*
X3215182Y3618941D01*
X3162858Y3618941D01*
G37*
G36*
X4876292Y3705402D02*
G01*
X4914341Y3705402D01*
X4914341Y3789934D01*
X4849774Y3789934D01*
X4849774Y3731869D01*
X4850485Y3725570D01*
X4852416Y3720084D01*
X4855514Y3715207D01*
X4859578Y3711092D01*
X4864506Y3708044D01*
X4869942Y3706114D01*
G37*
G36*
X5017058Y3705402D02*
G01*
X5055108Y3705402D01*
X5061458Y3706114D01*
X5066893Y3708044D01*
X5071821Y3711092D01*
X5075885Y3715207D01*
X5078984Y3720084D01*
X5080914Y3725570D01*
X5081625Y3731869D01*
X5081625Y3789934D01*
X5017058Y3789934D01*
G37*
G36*
X3007817Y3721658D02*
G01*
X3060141Y3721658D01*
X3060141Y3774033D01*
X3049422Y3768140D01*
X3037636Y3759606D01*
X3027019Y3749649D01*
X3017723Y3738422D01*
X3009950Y3726129D01*
G37*
G36*
X3162858Y3721658D02*
G01*
X3215182Y3721658D01*
X3213049Y3726129D01*
X3205276Y3738422D01*
X3195980Y3749649D01*
X3185363Y3759606D01*
X3173577Y3768140D01*
X3162858Y3774033D01*
G37*
G36*
X3866235Y3808628D02*
G01*
X3880764Y3808628D01*
X3895191Y3810457D01*
X3909314Y3814064D01*
X3922826Y3819448D01*
X3935577Y3826459D01*
X3947363Y3834993D01*
X3957980Y3844950D01*
X3967276Y3856177D01*
X3975049Y3868470D01*
X3981246Y3881628D01*
X3985768Y3895496D01*
X3988460Y3909771D01*
X3989374Y3924300D01*
X3988460Y3938828D01*
X3985768Y3953103D01*
X3981246Y3966972D01*
X3975049Y3980129D01*
X3967276Y3992422D01*
X3957980Y4003649D01*
X3947363Y4013606D01*
X3935577Y4022140D01*
X3922826Y4029151D01*
X3909314Y4034536D01*
X3895191Y4038142D01*
X3880764Y4039971D01*
X3866235Y4039971D01*
X3851808Y4038142D01*
X3837686Y4034536D01*
X3824173Y4029151D01*
X3811422Y4022140D01*
X3799636Y4013606D01*
X3789019Y4003649D01*
X3779723Y3992422D01*
X3771950Y3980129D01*
X3765753Y3966972D01*
X3761232Y3953103D01*
X3758539Y3938828D01*
X3757625Y3924300D01*
X3758539Y3909771D01*
X3761232Y3895496D01*
X3765753Y3881628D01*
X3771950Y3868470D01*
X3779723Y3856177D01*
X3789019Y3844950D01*
X3799636Y3834993D01*
X3811422Y3826459D01*
X3824173Y3819448D01*
X3837686Y3814064D01*
X3851808Y3810457D01*
G37*
G36*
X9695434Y3868165D02*
G01*
X9710166Y3868165D01*
X9724847Y3869994D01*
X9739122Y3873550D01*
X9752888Y3878884D01*
X9765893Y3885895D01*
X9777933Y3894429D01*
X9788855Y3904335D01*
X9798456Y3915562D01*
X9806584Y3927856D01*
X9813188Y3941064D01*
X9818116Y3954983D01*
X9821265Y3969410D01*
X9822637Y3984091D01*
X9822180Y3998874D01*
X9819894Y4013454D01*
X9817201Y4022851D01*
X9816896Y4026560D01*
X9817912Y4030167D01*
X9820148Y4033164D01*
X9823297Y4035094D01*
X9827006Y4035806D01*
X10078618Y4035806D01*
X10082276Y4035094D01*
X10085476Y4033113D01*
X10087711Y4030116D01*
X10091470Y4022496D01*
X10099395Y4010710D01*
X10108742Y4000042D01*
X10119410Y3990695D01*
X10131196Y3982770D01*
X10143896Y3976522D01*
X10157358Y3971950D01*
X10171226Y3969207D01*
X10185400Y3968242D01*
X10199573Y3969207D01*
X10213441Y3971950D01*
X10226903Y3976522D01*
X10239603Y3982770D01*
X10251389Y3990695D01*
X10262057Y4000042D01*
X10271404Y4010710D01*
X10279329Y4022496D01*
X10285577Y4035196D01*
X10290149Y4048658D01*
X10292892Y4062526D01*
X10293858Y4076700D01*
X10292892Y4090873D01*
X10290149Y4104741D01*
X10285577Y4118203D01*
X10279329Y4130903D01*
X10271404Y4142689D01*
X10262057Y4153357D01*
X10251389Y4162704D01*
X10239603Y4170629D01*
X10226903Y4176877D01*
X10213441Y4181449D01*
X10199573Y4184192D01*
X10185400Y4185158D01*
X10171226Y4184192D01*
X10157358Y4181449D01*
X10143896Y4176877D01*
X10131196Y4170629D01*
X10119410Y4162704D01*
X10108742Y4153357D01*
X10099395Y4142689D01*
X10091470Y4130903D01*
X10087711Y4123283D01*
X10085476Y4120286D01*
X10082276Y4118305D01*
X10078618Y4117594D01*
X9792208Y4117594D01*
X9783724Y4116781D01*
X9776053Y4114444D01*
X9768992Y4110685D01*
X9762439Y4105249D01*
X9758375Y4101236D01*
X9754971Y4099001D01*
X9750958Y4098239D01*
X9746081Y4099560D01*
X9732060Y4104030D01*
X9717532Y4106773D01*
X9702800Y4107687D01*
X9688068Y4106773D01*
X9673539Y4104030D01*
X9659518Y4099560D01*
X9646107Y4093413D01*
X9633559Y4085640D01*
X9622028Y4076395D01*
X9611766Y4065778D01*
X9602876Y4053992D01*
X9595510Y4041241D01*
X9589770Y4027627D01*
X9585706Y4013454D01*
X9583420Y3998874D01*
X9583013Y3984091D01*
X9584334Y3969410D01*
X9587484Y3954983D01*
X9592411Y3941064D01*
X9599015Y3927856D01*
X9607143Y3915562D01*
X9616744Y3904335D01*
X9627666Y3894429D01*
X9639706Y3885895D01*
X9652711Y3878884D01*
X9666478Y3873550D01*
X9680752Y3869994D01*
G37*
G36*
X4849774Y3932682D02*
G01*
X4914341Y3932682D01*
X4914341Y4017213D01*
X4876292Y4017213D01*
X4869942Y4016501D01*
X4864506Y4014571D01*
X4859578Y4011523D01*
X4855514Y4007408D01*
X4852416Y4002532D01*
X4850485Y3997045D01*
X4849774Y3990746D01*
G37*
G36*
X5017058Y3932682D02*
G01*
X5081625Y3932682D01*
X5081625Y3990746D01*
X5080914Y3997045D01*
X5078984Y4002532D01*
X5075885Y4007408D01*
X5071821Y4011523D01*
X5066893Y4014571D01*
X5061458Y4016501D01*
X5055108Y4017213D01*
X5017058Y4017213D01*
G37*
G36*
X6362700Y4052925D02*
G01*
X6377228Y4053840D01*
X6391503Y4056583D01*
X6405372Y4061053D01*
X6418529Y4067251D01*
X6430822Y4075074D01*
X6442049Y4084320D01*
X6452006Y4094937D01*
X6460540Y4106722D01*
X6467551Y4119473D01*
X6472936Y4132986D01*
X6476542Y4147108D01*
X6478371Y4161536D01*
X6478371Y4176064D01*
X6476542Y4190542D01*
X6472936Y4204614D01*
X6467551Y4218127D01*
X6460540Y4230878D01*
X6452006Y4242663D01*
X6442049Y4253280D01*
X6430822Y4262577D01*
X6418529Y4270349D01*
X6405372Y4276547D01*
X6391503Y4281068D01*
X6377228Y4283760D01*
X6362700Y4284675D01*
X6348171Y4283760D01*
X6333896Y4281068D01*
X6320028Y4276547D01*
X6306870Y4270349D01*
X6294577Y4262577D01*
X6283350Y4253280D01*
X6273393Y4242663D01*
X6264859Y4230878D01*
X6257848Y4218127D01*
X6252464Y4204614D01*
X6248857Y4190542D01*
X6247028Y4176064D01*
X6247028Y4161536D01*
X6248857Y4147108D01*
X6252464Y4132986D01*
X6257848Y4119473D01*
X6264859Y4106722D01*
X6273393Y4094937D01*
X6283350Y4084320D01*
X6294577Y4075074D01*
X6306870Y4067251D01*
X6320028Y4061053D01*
X6333896Y4056583D01*
X6348171Y4053840D01*
G37*
G36*
X8454491Y4071162D02*
G01*
X8469274Y4071620D01*
X8483854Y4073906D01*
X8498027Y4077970D01*
X8511641Y4083710D01*
X8524392Y4091076D01*
X8536178Y4099966D01*
X8546795Y4110228D01*
X8556040Y4121759D01*
X8563813Y4134307D01*
X8569960Y4147718D01*
X8574430Y4161739D01*
X8577173Y4176268D01*
X8578088Y4191000D01*
X8577173Y4205732D01*
X8574430Y4220260D01*
X8569960Y4234281D01*
X8563813Y4247692D01*
X8556040Y4260240D01*
X8546795Y4271772D01*
X8536178Y4282033D01*
X8524392Y4290923D01*
X8511641Y4298289D01*
X8498027Y4304030D01*
X8483854Y4308094D01*
X8469274Y4310380D01*
X8454491Y4310786D01*
X8439810Y4309465D01*
X8425383Y4306316D01*
X8411464Y4301388D01*
X8398256Y4294784D01*
X8385962Y4286656D01*
X8374735Y4277055D01*
X8364829Y4266133D01*
X8356295Y4254093D01*
X8349284Y4241088D01*
X8343950Y4227322D01*
X8340394Y4213047D01*
X8338566Y4198366D01*
X8338566Y4183634D01*
X8340394Y4168952D01*
X8343950Y4154678D01*
X8349284Y4140911D01*
X8356295Y4127906D01*
X8364829Y4115866D01*
X8374735Y4104944D01*
X8385962Y4095343D01*
X8398256Y4087215D01*
X8411464Y4080611D01*
X8425383Y4075684D01*
X8439810Y4072534D01*
G37*
G36*
X7438491Y4071162D02*
G01*
X7453274Y4071620D01*
X7467853Y4073906D01*
X7482027Y4077970D01*
X7495641Y4083710D01*
X7508392Y4091076D01*
X7520178Y4099966D01*
X7530795Y4110228D01*
X7540040Y4121759D01*
X7547813Y4134307D01*
X7553959Y4147718D01*
X7558430Y4161739D01*
X7561173Y4176268D01*
X7562088Y4191000D01*
X7561173Y4205732D01*
X7558430Y4220260D01*
X7553959Y4234281D01*
X7547813Y4247692D01*
X7540040Y4260240D01*
X7530795Y4271772D01*
X7520178Y4282033D01*
X7508392Y4290923D01*
X7495641Y4298289D01*
X7482027Y4304030D01*
X7467853Y4308094D01*
X7453274Y4310380D01*
X7438491Y4310786D01*
X7423810Y4309465D01*
X7409383Y4306316D01*
X7395464Y4301388D01*
X7382256Y4294784D01*
X7369962Y4286656D01*
X7358735Y4277055D01*
X7348829Y4266133D01*
X7340295Y4254093D01*
X7333284Y4241088D01*
X7327950Y4227322D01*
X7324394Y4213047D01*
X7322566Y4198366D01*
X7322566Y4183634D01*
X7324394Y4168952D01*
X7327950Y4154678D01*
X7333284Y4140911D01*
X7340295Y4127906D01*
X7348829Y4115866D01*
X7358735Y4104944D01*
X7369962Y4095343D01*
X7382256Y4087215D01*
X7395464Y4080611D01*
X7409383Y4075684D01*
X7423810Y4072534D01*
G37*
G36*
X1768500Y4297019D02*
G01*
X1768500Y4346549D01*
X1718919Y4346549D01*
X1722170Y4339996D01*
X1730095Y4328210D01*
X1739442Y4317542D01*
X1750110Y4308195D01*
X1761896Y4300270D01*
G37*
G36*
X1863750Y4297019D02*
G01*
X1870303Y4300270D01*
X1882089Y4308195D01*
X1892757Y4317542D01*
X1902104Y4328210D01*
X1910029Y4339996D01*
X1913280Y4346549D01*
X1863750Y4346549D01*
G37*
G36*
X10131348Y4386783D02*
G01*
X10164470Y4386783D01*
X10164470Y4428845D01*
X10104882Y4428845D01*
X10104882Y4413250D01*
X10105593Y4406950D01*
X10107523Y4401464D01*
X10110571Y4396587D01*
X10114686Y4392472D01*
X10119563Y4389424D01*
X10125049Y4387494D01*
G37*
G36*
X10257129Y4386783D02*
G01*
X10290251Y4386783D01*
X10296550Y4387494D01*
X10302036Y4389424D01*
X10306913Y4392472D01*
X10311028Y4396587D01*
X10314076Y4401464D01*
X10316006Y4406950D01*
X10316718Y4413250D01*
X10316718Y4428845D01*
X10257129Y4428845D01*
G37*
G36*
X1718919Y4441799D02*
G01*
X1768500Y4441799D01*
X1768500Y4491380D01*
X1761896Y4488129D01*
X1750110Y4480204D01*
X1739442Y4470857D01*
X1730095Y4460189D01*
X1722170Y4448403D01*
G37*
G36*
X1863750Y4441799D02*
G01*
X1913280Y4441799D01*
X1910029Y4448403D01*
X1902104Y4460189D01*
X1892757Y4470857D01*
X1882089Y4480204D01*
X1870303Y4488129D01*
X1863750Y4491380D01*
G37*
G36*
X4331665Y4566107D02*
G01*
X4331665Y4609338D01*
X4288485Y4609338D01*
X4293412Y4600041D01*
X4300880Y4589780D01*
X4309668Y4580636D01*
X4319676Y4572863D01*
X4330649Y4566513D01*
G37*
G36*
X5804865Y4578807D02*
G01*
X5804865Y4622038D01*
X5761685Y4622038D01*
X5766612Y4612741D01*
X5774080Y4602480D01*
X5782868Y4593336D01*
X5792876Y4585563D01*
X5803849Y4579213D01*
G37*
G36*
X8454491Y4579162D02*
G01*
X8469274Y4579620D01*
X8483854Y4581906D01*
X8498027Y4585970D01*
X8511641Y4591710D01*
X8524392Y4599076D01*
X8536178Y4607966D01*
X8546795Y4618228D01*
X8556040Y4629759D01*
X8563813Y4642307D01*
X8569960Y4655718D01*
X8574430Y4669739D01*
X8577173Y4684268D01*
X8578088Y4699000D01*
X8577173Y4713732D01*
X8574430Y4728260D01*
X8569960Y4742281D01*
X8563813Y4755692D01*
X8556040Y4768240D01*
X8546795Y4779772D01*
X8536178Y4790033D01*
X8524392Y4798923D01*
X8511641Y4806289D01*
X8498027Y4812030D01*
X8483854Y4816094D01*
X8469274Y4818380D01*
X8454491Y4818786D01*
X8439810Y4817465D01*
X8425383Y4814316D01*
X8411464Y4809388D01*
X8398256Y4802784D01*
X8385962Y4794656D01*
X8374735Y4785055D01*
X8364829Y4774133D01*
X8356295Y4762093D01*
X8349284Y4749088D01*
X8343950Y4735322D01*
X8340394Y4721047D01*
X8338566Y4706366D01*
X8338566Y4691634D01*
X8340394Y4676952D01*
X8343950Y4662678D01*
X8349284Y4648911D01*
X8356295Y4635906D01*
X8364829Y4623866D01*
X8374735Y4612944D01*
X8385962Y4603343D01*
X8398256Y4595215D01*
X8411464Y4588611D01*
X8425383Y4583684D01*
X8439810Y4580534D01*
G37*
G36*
X7438491Y4579162D02*
G01*
X7453274Y4579620D01*
X7467853Y4581906D01*
X7482027Y4585970D01*
X7495641Y4591710D01*
X7508392Y4599076D01*
X7520178Y4607966D01*
X7530795Y4618228D01*
X7540040Y4629759D01*
X7547813Y4642307D01*
X7553959Y4655718D01*
X7558430Y4669739D01*
X7561173Y4684268D01*
X7562088Y4699000D01*
X7561173Y4713732D01*
X7558430Y4728260D01*
X7553959Y4742281D01*
X7547813Y4755692D01*
X7540040Y4768240D01*
X7530795Y4779772D01*
X7520178Y4790033D01*
X7508392Y4798923D01*
X7495641Y4806289D01*
X7482027Y4812030D01*
X7467853Y4816094D01*
X7453274Y4818380D01*
X7438491Y4818786D01*
X7423810Y4817465D01*
X7409383Y4814316D01*
X7395464Y4809388D01*
X7382256Y4802784D01*
X7369962Y4794656D01*
X7358735Y4785055D01*
X7348829Y4774133D01*
X7340295Y4762093D01*
X7333284Y4749088D01*
X7327950Y4735322D01*
X7324394Y4721047D01*
X7322566Y4706366D01*
X7322566Y4691634D01*
X7324394Y4676952D01*
X7327950Y4662678D01*
X7333284Y4648911D01*
X7340295Y4635906D01*
X7348829Y4623866D01*
X7358735Y4612944D01*
X7369962Y4603343D01*
X7382256Y4595215D01*
X7395464Y4588611D01*
X7409383Y4583684D01*
X7423810Y4580534D01*
G37*
G36*
X4409338Y4687062D02*
G01*
X4452467Y4687062D01*
X4450740Y4690872D01*
X4444034Y4701641D01*
X4435856Y4711344D01*
X4426458Y4719828D01*
X4415942Y4726889D01*
X4409338Y4730140D01*
G37*
G36*
X4288485Y4687062D02*
G01*
X4331665Y4687062D01*
X4331665Y4730292D01*
X4330649Y4729886D01*
X4319676Y4723536D01*
X4309668Y4715764D01*
X4300880Y4706620D01*
X4293412Y4696358D01*
G37*
G36*
X5882538Y4699762D02*
G01*
X5925667Y4699762D01*
X5923940Y4703572D01*
X5917234Y4714341D01*
X5909056Y4724044D01*
X5899658Y4732528D01*
X5889142Y4739589D01*
X5882538Y4742840D01*
G37*
G36*
X5761685Y4699762D02*
G01*
X5804865Y4699762D01*
X5804865Y4742992D01*
X5803849Y4742586D01*
X5792876Y4736236D01*
X5782868Y4728464D01*
X5774080Y4719320D01*
X5766612Y4709058D01*
G37*
G36*
X8441791Y5010962D02*
G01*
X8456574Y5011420D01*
X8471154Y5013706D01*
X8485327Y5017770D01*
X8498941Y5023510D01*
X8511692Y5030876D01*
X8523478Y5039766D01*
X8534095Y5050028D01*
X8543340Y5061559D01*
X8551113Y5074107D01*
X8557260Y5087518D01*
X8561730Y5101539D01*
X8564473Y5116068D01*
X8565388Y5130800D01*
X8564473Y5145532D01*
X8561730Y5160060D01*
X8557260Y5174081D01*
X8551113Y5187492D01*
X8543340Y5200040D01*
X8534095Y5211572D01*
X8523478Y5221833D01*
X8511692Y5230723D01*
X8498941Y5238089D01*
X8485327Y5243830D01*
X8471154Y5247894D01*
X8456574Y5250180D01*
X8441791Y5250586D01*
X8427110Y5249265D01*
X8412683Y5246116D01*
X8398764Y5241188D01*
X8385556Y5234584D01*
X8373262Y5226456D01*
X8362035Y5216855D01*
X8352129Y5205933D01*
X8343595Y5193893D01*
X8336584Y5180888D01*
X8331250Y5167122D01*
X8327694Y5152847D01*
X8325866Y5138166D01*
X8325866Y5123434D01*
X8327694Y5108752D01*
X8331250Y5094478D01*
X8336584Y5080711D01*
X8343595Y5067706D01*
X8352129Y5055666D01*
X8362035Y5044744D01*
X8373262Y5035143D01*
X8385556Y5027015D01*
X8398764Y5020411D01*
X8412683Y5015484D01*
X8427110Y5012334D01*
G37*
G36*
X7425791Y5010962D02*
G01*
X7440574Y5011420D01*
X7455153Y5013706D01*
X7469327Y5017770D01*
X7482941Y5023510D01*
X7495692Y5030876D01*
X7507478Y5039766D01*
X7518095Y5050028D01*
X7527340Y5061559D01*
X7535113Y5074107D01*
X7541259Y5087518D01*
X7545730Y5101539D01*
X7548473Y5116068D01*
X7549388Y5130800D01*
X7548473Y5145532D01*
X7545730Y5160060D01*
X7541259Y5174081D01*
X7535113Y5187492D01*
X7527340Y5200040D01*
X7518095Y5211572D01*
X7507478Y5221833D01*
X7495692Y5230723D01*
X7482941Y5238089D01*
X7469327Y5243830D01*
X7455153Y5247894D01*
X7440574Y5250180D01*
X7425791Y5250586D01*
X7411110Y5249265D01*
X7396683Y5246116D01*
X7382764Y5241188D01*
X7369556Y5234584D01*
X7357262Y5226456D01*
X7346035Y5216855D01*
X7336129Y5205933D01*
X7327595Y5193893D01*
X7320584Y5180888D01*
X7315250Y5167122D01*
X7311694Y5152847D01*
X7309866Y5138166D01*
X7309866Y5123434D01*
X7311694Y5108752D01*
X7315250Y5094478D01*
X7320584Y5080711D01*
X7327595Y5067706D01*
X7336129Y5055666D01*
X7346035Y5044744D01*
X7357262Y5035143D01*
X7369556Y5027015D01*
X7382764Y5020411D01*
X7396683Y5015484D01*
X7411110Y5012334D01*
G37*
G36*
X5027066Y5225694D02*
G01*
X5033670Y5228996D01*
X5046827Y5237683D01*
X5058968Y5247843D01*
X5069789Y5259374D01*
X5079238Y5272024D01*
X5086908Y5285333D01*
X5027066Y5285333D01*
G37*
G36*
X4904333Y5225694D02*
G01*
X4904333Y5285333D01*
X4844491Y5285333D01*
X4852162Y5272024D01*
X4861610Y5259374D01*
X4872431Y5247843D01*
X4884572Y5237683D01*
X4897729Y5228996D01*
G37*
G36*
X4844491Y5408066D02*
G01*
X4904333Y5408066D01*
X4904333Y5467705D01*
X4897729Y5464403D01*
X4884572Y5455716D01*
X4872431Y5445556D01*
X4861610Y5434025D01*
X4852162Y5421376D01*
G37*
G36*
X5027066Y5408066D02*
G01*
X5086908Y5408066D01*
X5079238Y5421376D01*
X5069789Y5434025D01*
X5058968Y5445556D01*
X5046827Y5455716D01*
X5033670Y5464403D01*
X5027066Y5467705D01*
G37*

%LPD*%
D10*
X2277996Y5384800D02*
G01*
X1346200Y4453003D01*
X1346200Y3657600D01*
X1777997Y5384800D02*
G01*
X1041400Y4648202D01*
X1041400Y2209800D01*
X1346200Y1905000D01*
X1277998Y5384800D02*
G01*
X838200Y4945001D01*
X838200Y609600D01*
X1346200Y101600D01*
X1346200Y3657600D02*
G01*
X1346200Y3213100D01*
X1346200Y1905000D02*
G01*
X1346200Y1473200D01*
X1333500Y1460500D01*
X1333500Y101600D02*
G01*
X1333500Y-342900D01*
X1816100Y4140200D02*
G01*
X2298700Y3657600D01*
X2616200Y3657600D01*
X2362200Y3213100D02*
G01*
X2603500Y3213100D01*
X2844800Y3454400D01*
X2844800Y3657600D01*
X3111500Y3924300D01*
X1828800Y2463800D02*
G01*
X2387600Y1905000D01*
X2616200Y1905000D01*
X1790700Y711200D02*
G01*
X2400300Y101600D01*
X2603500Y101600D01*
X5217693Y3861307D02*
G01*
X5217693Y4000906D01*
X4570399Y4648200D01*
X4570399Y4648200D02*
G01*
X4241800Y4319600D01*
X4241800Y3911600D01*
X4000500Y3670300D01*
X3873500Y3670300D01*
X3873500Y2667000D02*
G01*
X3543300Y2336800D01*
X3543300Y1816100D01*
X3721100Y1638300D01*
X3873500Y1638300D01*
X3873500Y3670300D02*
G01*
X3543300Y3340100D01*
X3543300Y2806700D01*
X3683000Y2667000D01*
X3873500Y2667000D01*
X3873500Y3416300D02*
G01*
X4610100Y2679700D01*
X4610100Y2324100D01*
X3873500Y1384300D02*
G01*
X4394200Y863600D01*
X4622800Y863600D01*
X3873500Y2413000D02*
G01*
X4622800Y1663700D01*
X4622800Y1625600D01*
X4622800Y863600D02*
G01*
X4978400Y1219200D01*
X5257800Y1219200D01*
X4622800Y1625600D02*
G01*
X4775200Y1473200D01*
X5257800Y1473200D01*
X4610100Y2324100D02*
G01*
X5207000Y1727200D01*
X5257800Y1727200D01*
X6043599Y4660900D02*
G01*
X5475706Y4093006D01*
X5475706Y3860317D01*
X8890000Y2806700D02*
G01*
X8559800Y2476500D01*
X8559800Y1816100D01*
X8737600Y1638300D01*
X8890000Y1638300D01*
X5473700Y5346700D02*
G01*
X6043599Y4776800D01*
X6043599Y4660900D01*
X8890000Y1638300D02*
G01*
X8572500Y1320800D01*
X8572500Y698500D01*
X8801100Y469900D01*
X8915400Y469900D01*
X8890000Y2552700D02*
G01*
X10160000Y3822700D01*
X10185400Y3822700D01*
X10210800Y4711700D02*
G01*
X10493400Y4994300D01*
X11036300Y4994300D01*
X11036300Y4994300D02*
G01*
X11175898Y5133898D01*
X11745493Y5133898D01*
X10820400Y4111599D02*
G01*
X10998098Y3933901D01*
X11745493Y3933901D01*
X10833100Y2962300D02*
G01*
X10972698Y3101898D01*
X11758193Y3101898D01*
X10833100Y2092299D02*
G01*
X11023498Y1901901D01*
X11758193Y1901901D01*
X10896600Y943000D02*
G01*
X11023498Y1069898D01*
X11745493Y1069898D01*
X10896600Y72999D02*
G01*
X11099698Y-130098D01*
X11745493Y-130098D01*
X10833100Y2962300D02*
G01*
X10512399Y2641600D01*
X10210800Y2641600D01*
X10896600Y943000D02*
G01*
X10817199Y863600D01*
X10198100Y863600D01*
X9728200Y1981200D02*
G01*
X9779000Y2032000D01*
X10236200Y2032000D01*
X10198100Y736600D02*
G01*
X10185400Y749300D01*
X9893300Y749300D01*
X9715500Y927100D01*
X9715500Y1193800D01*
X10223500Y254000D02*
G01*
X10147300Y177800D01*
X9715500Y177800D01*
X10210800Y2514600D02*
G01*
X10020300Y2514600D01*
X9728200Y2806700D01*
X9728200Y2971800D01*
X10210800Y4584700D02*
G01*
X10007600Y4584700D01*
X9702800Y4889500D01*
X9702800Y5003800D01*
X9702800Y3987800D02*
G01*
X9791700Y4076700D01*
X10185400Y4076700D01*
X5473700Y5346700D02*
G01*
X5727700Y5092700D01*
X6426200Y5092700D01*
X6807200Y4711700D01*
X6807200Y3873500D01*
X7188200Y3492500D01*
X8407400Y3492500D01*
X8597900Y3302000D01*
X8597900Y2984500D01*
X8775700Y2806700D01*
X8890000Y2806700D01*
D11*
X12965506Y3933952D02*
G01*
X12968554Y3937000D01*
X13487400Y3937000D01*
X13872387Y4321987D01*
X14008100Y4321987D01*
X12965506Y-130047D02*
G01*
X12981254Y-114300D01*
X13385800Y-114300D01*
X13758087Y257987D01*
X13982700Y257987D01*
X11545493Y4533900D02*
G01*
X11558193Y4546600D01*
X13258800Y4546600D01*
X13534186Y4821986D01*
X14008100Y4821986D01*
X11558193Y2501900D02*
G01*
X13169900Y2501900D01*
X13445286Y2777286D01*
X14008100Y2777286D01*
X11545493Y469900D02*
G01*
X13081000Y469900D01*
X13369086Y757986D01*
X13982700Y757986D01*
X12978206Y1901952D02*
G01*
X12981254Y1905000D01*
X13322300Y1905000D01*
X13694587Y2277287D01*
X14008100Y2277287D01*
D10*
X10223500Y0D02*
G01*
X10007600Y-215900D01*
X9461500Y-215900D01*
X9029700Y215900D01*
X8915400Y215900D01*
X10236200Y1778000D02*
G01*
X9842500Y1384300D01*
X8890000Y1384300D01*
D12*
G01*
X4610100Y2324100D03*
G01*
X4610100Y2070100D03*
G01*
X4622800Y1625600D03*
G01*
X4622800Y1371600D03*
G01*
X4622800Y863600D03*
G01*
X4622800Y609600D03*
D13*
G01*
X10820400Y4111599D03*
G01*
X10820400Y4981600D03*
G01*
X10833100Y2092299D03*
G01*
X10833100Y2962300D03*
G01*
X10896600Y72999D03*
G01*
X10896600Y943000D03*
G36*
X1152997Y5509801D02*
G01*
X1402999Y5509801D01*
X1402999Y5259798D01*
X1152997Y5259798D01*
G37*
D14*
G01*
X1778000Y5384800D03*
G01*
X2277999Y5384800D03*
D15*
G01*
X1816100Y4140200D03*
G01*
X1816100Y4394200D03*
G01*
X1828800Y2463800D03*
G01*
X1828800Y2717800D03*
G01*
X1790700Y711200D03*
G01*
X1790700Y965200D03*
G01*
X10236200Y1778000D03*
G01*
X10236200Y2032000D03*
G01*
X10223500Y0D03*
G01*
X10223500Y254000D03*
G01*
X10185400Y3822700D03*
G01*
X10185400Y4076700D03*
D16*
G01*
X10198100Y609600D03*
D17*
G01*
X1346200Y3657600D03*
G01*
X2616200Y3657600D03*
G01*
X1346200Y1905000D03*
G01*
X2616200Y1905000D03*
G01*
X1333500Y101600D03*
G01*
X2603500Y101600D03*
G01*
X1346200Y3213100D03*
G01*
X2362200Y3213100D03*
G01*
X3048000Y635000D03*
G01*
X4064000Y635000D03*
G01*
X1333500Y1460500D03*
G01*
X2349500Y1460500D03*
G01*
X3048000Y114300D03*
G01*
X4064000Y114300D03*
G01*
X1333500Y-342900D03*
G01*
X2349500Y-342900D03*
G01*
X3048000Y-381000D03*
G01*
X4064000Y-381000D03*
G01*
X7442200Y4191000D03*
G01*
X8458200Y4191000D03*
G01*
X9702800Y3987800D03*
G01*
X9702800Y5003800D03*
G01*
X7442200Y4699000D03*
G01*
X8458200Y4699000D03*
G01*
X9728200Y1955800D03*
G01*
X9728200Y2971800D03*
G01*
X7429500Y5130800D03*
G01*
X8445500Y5130800D03*
G01*
X9715500Y177800D03*
G01*
X9715500Y1193800D03*
D15*
G01*
X5257800Y2489200D03*
G01*
X5257800Y2235200D03*
G01*
X5257800Y1981200D03*
G01*
X5257800Y1727200D03*
G01*
X5257800Y1473200D03*
G01*
X5257800Y1219200D03*
G01*
X5257800Y965200D03*
G01*
X5257800Y711200D03*
G01*
X7543800Y711200D03*
G01*
X7543800Y965200D03*
G01*
X7543800Y1219200D03*
G01*
X7543800Y1473200D03*
G01*
X7543800Y1727200D03*
G01*
X7543800Y1981200D03*
G01*
X7543800Y2235200D03*
G01*
X7543800Y2489200D03*
D18*
G01*
X14008100Y4821986D03*
G01*
X14008100Y4321987D03*
D19*
G01*
X5473700Y5346700D03*
G01*
X4965700Y5346700D03*
D18*
G01*
X14008100Y2777286D03*
G01*
X14008100Y2277287D03*
G01*
X13982700Y757986D03*
G01*
X13982700Y257987D03*
D16*
G01*
X10210800Y4457700D03*
G01*
X10210800Y2387600D03*
D20*
G01*
X6043701Y4660900D03*
G01*
X5843701Y4660900D03*
G01*
X4570501Y4648200D03*
G01*
X4370501Y4648200D03*
D21*
G01*
X12965633Y3933952D03*
G01*
X11545620Y4533900D03*
G01*
X11745620Y5133898D03*
G01*
X11745620Y3933901D03*
G01*
X12965633Y5133847D03*
G01*
X12978333Y1901952D03*
G01*
X11558320Y2501900D03*
G01*
X11758320Y3101898D03*
G01*
X11758320Y1901901D03*
G01*
X12978333Y3101847D03*
G01*
X12965633Y-130047D03*
G01*
X11545620Y469900D03*
G01*
X11745620Y1069898D03*
G01*
X11745620Y-130098D03*
G01*
X12965633Y1069847D03*
G36*
X3021500Y4014299D02*
G01*
X3201499Y4014299D01*
X3201499Y3834300D01*
X3021500Y3834300D01*
G37*
D13*
G01*
X3111500Y3670300D03*
G01*
X3111500Y3416300D03*
G01*
X3873500Y3924300D03*
G01*
X3873500Y3670300D03*
G01*
X3873500Y3416300D03*
G36*
X8038000Y3150699D02*
G01*
X8217999Y3150699D01*
X8217999Y2970700D01*
X8038000Y2970700D01*
G37*
G01*
X8128000Y2806700D03*
G01*
X8128000Y2552700D03*
G01*
X8890000Y3060700D03*
G01*
X8890000Y2806700D03*
G01*
X8890000Y2552700D03*
G36*
X4875700Y3991307D02*
G01*
X5055699Y3991307D01*
X5055699Y3731308D01*
X4875700Y3731308D01*
G37*
G36*
X3021500Y3010999D02*
G01*
X3201499Y3010999D01*
X3201499Y2831000D01*
X3021500Y2831000D01*
G37*
G01*
X3111500Y2667000D03*
G01*
X3111500Y2413000D03*
G01*
X3873500Y2921000D03*
G01*
X3873500Y2667000D03*
G01*
X3873500Y2413000D03*
G36*
X3021500Y1982299D02*
G01*
X3201499Y1982299D01*
X3201499Y1802300D01*
X3021500Y1802300D01*
G37*
G01*
X3111500Y1638300D03*
G01*
X3111500Y1384300D03*
G01*
X3873500Y1892300D03*
G01*
X3873500Y1638300D03*
G01*
X3873500Y1384300D03*
G36*
X8038000Y1982299D02*
G01*
X8217999Y1982299D01*
X8217999Y1802300D01*
X8038000Y1802300D01*
G37*
G01*
X8128000Y1638300D03*
G01*
X8128000Y1384300D03*
G01*
X8890000Y1892300D03*
G01*
X8890000Y1638300D03*
G01*
X8890000Y1384300D03*
G36*
X8063400Y813899D02*
G01*
X8243399Y813899D01*
X8243399Y633900D01*
X8063400Y633900D01*
G37*
G01*
X8153400Y469900D03*
G01*
X8153400Y215900D03*
G01*
X8915400Y723900D03*
G01*
X8915400Y469900D03*
G01*
X8915400Y215900D03*
G01*
X6362700Y4168800D03*
G01*
X6362700Y3298799D03*
D22*
X10163101Y863600D02*
G01*
X10233101Y863600D01*
X10163101Y736600D02*
G01*
X10233101Y736600D01*
X10175801Y4711700D02*
G01*
X10245801Y4711700D01*
X10175801Y4584700D02*
G01*
X10245801Y4584700D01*
X10175801Y2641600D02*
G01*
X10245801Y2641600D01*
X10175801Y2514600D02*
G01*
X10245801Y2514600D01*
D13*
X5219700Y3901307D02*
G01*
X5219700Y3821308D01*
X5473725Y3900317D02*
G01*
X5473725Y3820317D01*
M02*
