G04 Layer: TopSilkscreenLayer*
G04 EasyEDA v6.5.8, 2022-07-18 10:06:56*
G04 273c276c2863449b8c9a1f5c07be89c0,0c792c838a6744a9a4735c8e6cb38716,10*
G04 Gerber Generator version 0.2*
G04 Scale: 100 percent, Rotated: No, Reflected: No *
G04 Dimensions in millimeters *
G04 leading zeros omitted , absolute positions ,4 integer and 5 decimal *
%FSLAX45Y45*%
%MOMM*%

%ADD10C,0.1524*%
%ADD11C,0.2032*%
%ADD12C,0.2540*%
%ADD13C,0.3000*%
%ADD14C,0.6000*%
%ADD15C,0.4000*%
%ADD16C,0.0194*%

%LPD*%
D10*
X4928108Y2144521D02*
G01*
X4938522Y2149855D01*
X4948936Y2160270D01*
X4954015Y2170429D01*
X4954015Y2191257D01*
X4948936Y2201671D01*
X4938522Y2212086D01*
X4928108Y2217420D01*
X4912359Y2222500D01*
X4886452Y2222500D01*
X4870958Y2217420D01*
X4860543Y2212086D01*
X4850129Y2201671D01*
X4845050Y2191257D01*
X4845050Y2170429D01*
X4850129Y2160270D01*
X4860543Y2149855D01*
X4870958Y2144521D01*
X4933188Y2110231D02*
G01*
X4938522Y2099818D01*
X4954015Y2084323D01*
X4845050Y2084323D01*
X4940808Y1446021D02*
G01*
X4951222Y1451355D01*
X4961636Y1461770D01*
X4966715Y1471929D01*
X4966715Y1492757D01*
X4961636Y1503171D01*
X4951222Y1513586D01*
X4940808Y1518920D01*
X4925059Y1524000D01*
X4899152Y1524000D01*
X4883658Y1518920D01*
X4873243Y1513586D01*
X4862829Y1503171D01*
X4857750Y1492757D01*
X4857750Y1471929D01*
X4862829Y1461770D01*
X4873243Y1451355D01*
X4883658Y1446021D01*
X4940808Y1406652D02*
G01*
X4945888Y1406652D01*
X4956302Y1401318D01*
X4961636Y1396237D01*
X4966715Y1385823D01*
X4966715Y1364995D01*
X4961636Y1354581D01*
X4956302Y1349502D01*
X4945888Y1344168D01*
X4935474Y1344168D01*
X4925059Y1349502D01*
X4909565Y1359915D01*
X4857750Y1411731D01*
X4857750Y1339087D01*
X4940808Y684021D02*
G01*
X4951222Y689355D01*
X4961636Y699770D01*
X4966715Y709929D01*
X4966715Y730757D01*
X4961636Y741171D01*
X4951222Y751586D01*
X4940808Y756920D01*
X4925059Y762000D01*
X4899152Y762000D01*
X4883658Y756920D01*
X4873243Y751586D01*
X4862829Y741171D01*
X4857750Y730757D01*
X4857750Y709929D01*
X4862829Y699770D01*
X4873243Y689355D01*
X4883658Y684021D01*
X4966715Y639318D02*
G01*
X4966715Y582168D01*
X4925059Y613410D01*
X4925059Y597915D01*
X4919979Y587502D01*
X4914900Y582168D01*
X4899152Y577087D01*
X4888738Y577087D01*
X4873243Y582168D01*
X4862829Y592581D01*
X4857750Y608329D01*
X4857750Y623823D01*
X4862829Y639318D01*
X4867909Y644652D01*
X4878324Y649731D01*
X10425684Y4540250D02*
G01*
X10534650Y4540250D01*
X10425684Y4540250D02*
G01*
X10425684Y4576571D01*
X10430763Y4592320D01*
X10441177Y4602479D01*
X10451591Y4607813D01*
X10467340Y4612894D01*
X10493247Y4612894D01*
X10508741Y4607813D01*
X10519156Y4602479D01*
X10529570Y4592320D01*
X10534650Y4576571D01*
X10534650Y4540250D01*
X10446511Y4647184D02*
G01*
X10441177Y4657597D01*
X10425684Y4673345D01*
X10534650Y4673345D01*
X10438384Y2520950D02*
G01*
X10547350Y2520950D01*
X10438384Y2520950D02*
G01*
X10438384Y2557271D01*
X10443463Y2573020D01*
X10453877Y2583179D01*
X10464291Y2588513D01*
X10480040Y2593594D01*
X10505947Y2593594D01*
X10521441Y2588513D01*
X10531856Y2583179D01*
X10542270Y2573020D01*
X10547350Y2557271D01*
X10547350Y2520950D01*
X10464291Y2633218D02*
G01*
X10459211Y2633218D01*
X10448797Y2638297D01*
X10443463Y2643631D01*
X10438384Y2654045D01*
X10438384Y2674620D01*
X10443463Y2685034D01*
X10448797Y2690368D01*
X10459211Y2695447D01*
X10469625Y2695447D01*
X10480040Y2690368D01*
X10495534Y2679954D01*
X10547350Y2627884D01*
X10547350Y2700781D01*
X10501884Y501650D02*
G01*
X10610850Y501650D01*
X10501884Y501650D02*
G01*
X10501884Y537971D01*
X10506963Y553720D01*
X10517377Y563879D01*
X10527791Y569213D01*
X10543540Y574294D01*
X10569447Y574294D01*
X10584941Y569213D01*
X10595356Y563879D01*
X10605770Y553720D01*
X10610850Y537971D01*
X10610850Y501650D01*
X10501884Y618997D02*
G01*
X10501884Y676147D01*
X10543540Y645160D01*
X10543540Y660654D01*
X10548620Y671068D01*
X10553700Y676147D01*
X10569447Y681481D01*
X10579861Y681481D01*
X10595356Y676147D01*
X10605770Y665734D01*
X10610850Y650239D01*
X10610850Y634745D01*
X10605770Y618997D01*
X10600690Y613918D01*
X10590275Y608584D01*
X2744215Y5600700D02*
G01*
X2635250Y5600700D01*
X2744215Y5566410D02*
G01*
X2635250Y5566410D01*
X2744215Y5566410D02*
G01*
X2635250Y5493765D01*
X2744215Y5493765D02*
G01*
X2635250Y5493765D01*
X2744215Y5459476D02*
G01*
X2635250Y5459476D01*
X2744215Y5459476D02*
G01*
X2744215Y5412739D01*
X2739136Y5396992D01*
X2733802Y5391912D01*
X2723388Y5386578D01*
X2707893Y5386578D01*
X2697479Y5391912D01*
X2692400Y5396992D01*
X2687065Y5412739D01*
X2687065Y5459476D01*
X2744215Y5352287D02*
G01*
X2666238Y5352287D01*
X2650743Y5347207D01*
X2640329Y5336794D01*
X2635250Y5321300D01*
X2635250Y5310886D01*
X2640329Y5295137D01*
X2650743Y5284723D01*
X2666238Y5279644D01*
X2744215Y5279644D01*
X2744215Y5209031D02*
G01*
X2635250Y5209031D01*
X2744215Y5245354D02*
G01*
X2744215Y5172710D01*
X2723388Y5138420D02*
G01*
X2728722Y5128005D01*
X2744215Y5112257D01*
X2635250Y5112257D01*
X1841500Y3888181D02*
G01*
X1841500Y3997147D01*
X1841500Y3997147D02*
G01*
X1779270Y3997147D01*
X1744979Y3888181D02*
G01*
X1744979Y3997147D01*
X1744979Y3888181D02*
G01*
X1677415Y3888181D01*
X1744979Y3939997D02*
G01*
X1703323Y3939997D01*
X1744979Y3997147D02*
G01*
X1677415Y3997147D01*
X1643126Y3888181D02*
G01*
X1643126Y3997147D01*
X1643126Y3888181D02*
G01*
X1606550Y3888181D01*
X1591055Y3893261D01*
X1580642Y3903675D01*
X1575562Y3914089D01*
X1570228Y3929837D01*
X1570228Y3955745D01*
X1575562Y3971239D01*
X1580642Y3981653D01*
X1591055Y3992067D01*
X1606550Y3997147D01*
X1643126Y3997147D01*
X1535937Y3909009D02*
G01*
X1525523Y3903675D01*
X1510029Y3888181D01*
X1510029Y3997147D01*
X1854200Y2211781D02*
G01*
X1854200Y2320747D01*
X1854200Y2320747D02*
G01*
X1791970Y2320747D01*
X1757679Y2211781D02*
G01*
X1757679Y2320747D01*
X1757679Y2211781D02*
G01*
X1690115Y2211781D01*
X1757679Y2263597D02*
G01*
X1716023Y2263597D01*
X1757679Y2320747D02*
G01*
X1690115Y2320747D01*
X1655826Y2211781D02*
G01*
X1655826Y2320747D01*
X1655826Y2211781D02*
G01*
X1619250Y2211781D01*
X1603755Y2216861D01*
X1593342Y2227275D01*
X1588262Y2237689D01*
X1582928Y2253437D01*
X1582928Y2279345D01*
X1588262Y2294839D01*
X1593342Y2305253D01*
X1603755Y2315667D01*
X1619250Y2320747D01*
X1655826Y2320747D01*
X1543557Y2237689D02*
G01*
X1543557Y2232609D01*
X1538223Y2222195D01*
X1533144Y2216861D01*
X1522729Y2211781D01*
X1501902Y2211781D01*
X1491487Y2216861D01*
X1486407Y2222195D01*
X1481073Y2232609D01*
X1481073Y2243023D01*
X1486407Y2253437D01*
X1496821Y2268931D01*
X1548637Y2320747D01*
X1475994Y2320747D01*
X1968500Y405384D02*
G01*
X1968500Y514350D01*
X1968500Y514350D02*
G01*
X1906270Y514350D01*
X1871979Y405384D02*
G01*
X1871979Y514350D01*
X1871979Y405384D02*
G01*
X1804415Y405384D01*
X1871979Y457200D02*
G01*
X1830323Y457200D01*
X1871979Y514350D02*
G01*
X1804415Y514350D01*
X1770126Y405384D02*
G01*
X1770126Y514350D01*
X1770126Y405384D02*
G01*
X1733550Y405384D01*
X1718055Y410463D01*
X1707642Y420878D01*
X1702562Y431292D01*
X1697228Y447039D01*
X1697228Y472947D01*
X1702562Y488442D01*
X1707642Y498855D01*
X1718055Y509270D01*
X1733550Y514350D01*
X1770126Y514350D01*
X1652523Y405384D02*
G01*
X1595373Y405384D01*
X1626615Y447039D01*
X1611121Y447039D01*
X1600707Y452120D01*
X1595373Y457200D01*
X1590294Y472947D01*
X1590294Y483362D01*
X1595373Y498855D01*
X1605787Y509270D01*
X1621536Y514350D01*
X1637029Y514350D01*
X1652523Y509270D01*
X1657857Y504189D01*
X1662937Y493776D01*
X10363200Y1510284D02*
G01*
X10363200Y1619250D01*
X10363200Y1619250D02*
G01*
X10300970Y1619250D01*
X10266679Y1510284D02*
G01*
X10266679Y1619250D01*
X10266679Y1510284D02*
G01*
X10199115Y1510284D01*
X10266679Y1562100D02*
G01*
X10225024Y1562100D01*
X10266679Y1619250D02*
G01*
X10199115Y1619250D01*
X10164825Y1510284D02*
G01*
X10164825Y1619250D01*
X10164825Y1510284D02*
G01*
X10128250Y1510284D01*
X10112756Y1515363D01*
X10102341Y1525778D01*
X10097261Y1536192D01*
X10091927Y1551939D01*
X10091927Y1577847D01*
X10097261Y1593342D01*
X10102341Y1603755D01*
X10112756Y1614170D01*
X10128250Y1619250D01*
X10164825Y1619250D01*
X10005822Y1510284D02*
G01*
X10057638Y1582928D01*
X9979659Y1582928D01*
X10005822Y1510284D02*
G01*
X10005822Y1619250D01*
X10248900Y-252018D02*
G01*
X10248900Y-143052D01*
X10248900Y-143052D02*
G01*
X10186670Y-143052D01*
X10152379Y-252018D02*
G01*
X10152379Y-143052D01*
X10152379Y-252018D02*
G01*
X10084815Y-252018D01*
X10152379Y-200202D02*
G01*
X10110724Y-200202D01*
X10152379Y-143052D02*
G01*
X10084815Y-143052D01*
X10050525Y-252018D02*
G01*
X10050525Y-143052D01*
X10050525Y-252018D02*
G01*
X10013950Y-252018D01*
X9998456Y-246938D01*
X9988041Y-236524D01*
X9982961Y-226110D01*
X9977627Y-210362D01*
X9977627Y-184454D01*
X9982961Y-168960D01*
X9988041Y-158546D01*
X9998456Y-148132D01*
X10013950Y-143052D01*
X10050525Y-143052D01*
X9881108Y-252018D02*
G01*
X9932924Y-252018D01*
X9938258Y-205282D01*
X9932924Y-210362D01*
X9917429Y-215696D01*
X9901936Y-215696D01*
X9886188Y-210362D01*
X9875774Y-200202D01*
X9870693Y-184454D01*
X9870693Y-174040D01*
X9875774Y-158546D01*
X9886188Y-148132D01*
X9901936Y-143052D01*
X9917429Y-143052D01*
X9932924Y-148132D01*
X9938258Y-153212D01*
X9943338Y-163626D01*
X10299700Y3427984D02*
G01*
X10299700Y3536950D01*
X10299700Y3536950D02*
G01*
X10237470Y3536950D01*
X10203179Y3427984D02*
G01*
X10203179Y3536950D01*
X10203179Y3427984D02*
G01*
X10135615Y3427984D01*
X10203179Y3479800D02*
G01*
X10161524Y3479800D01*
X10203179Y3536950D02*
G01*
X10135615Y3536950D01*
X10101325Y3427984D02*
G01*
X10101325Y3536950D01*
X10101325Y3427984D02*
G01*
X10064750Y3427984D01*
X10049256Y3433063D01*
X10038841Y3443478D01*
X10033761Y3453892D01*
X10028427Y3469639D01*
X10028427Y3495547D01*
X10033761Y3511042D01*
X10038841Y3521455D01*
X10049256Y3531870D01*
X10064750Y3536950D01*
X10101325Y3536950D01*
X9921493Y3427984D02*
G01*
X9973309Y3536950D01*
X9994138Y3427984D02*
G01*
X9921493Y3427984D01*
X10127741Y1182115D02*
G01*
X10117327Y1177036D01*
X10106913Y1166621D01*
X10101579Y1156207D01*
X10096500Y1140460D01*
X10096500Y1114552D01*
X10101579Y1099057D01*
X10106913Y1088644D01*
X10117327Y1078229D01*
X10127741Y1073150D01*
X10148570Y1073150D01*
X10158729Y1078229D01*
X10169143Y1088644D01*
X10174477Y1099057D01*
X10179558Y1114552D01*
X10179558Y1140460D01*
X10174477Y1156207D01*
X10169143Y1166621D01*
X10158729Y1177036D01*
X10148570Y1182115D01*
X10127741Y1182115D01*
X10143236Y1093723D02*
G01*
X10174477Y1062736D01*
X10224261Y1182115D02*
G01*
X10281411Y1182115D01*
X10250170Y1140460D01*
X10265918Y1140460D01*
X10276331Y1135379D01*
X10281411Y1130300D01*
X10286745Y1114552D01*
X10286745Y1104137D01*
X10281411Y1088644D01*
X10270997Y1078229D01*
X10255504Y1073150D01*
X10240009Y1073150D01*
X10224261Y1078229D01*
X10219181Y1083310D01*
X10213847Y1093723D01*
X1841500Y3734815D02*
G01*
X1841500Y3625850D01*
X1841500Y3734815D02*
G01*
X1888236Y3734815D01*
X1903729Y3729736D01*
X1909063Y3724402D01*
X1914144Y3713987D01*
X1914144Y3703573D01*
X1909063Y3693160D01*
X1903729Y3688079D01*
X1888236Y3683000D01*
X1841500Y3683000D01*
X1877821Y3683000D02*
G01*
X1914144Y3625850D01*
X1948434Y3713987D02*
G01*
X1958847Y3719321D01*
X1974595Y3734815D01*
X1974595Y3625850D01*
X1790700Y1944115D02*
G01*
X1790700Y1835150D01*
X1790700Y1944115D02*
G01*
X1837436Y1944115D01*
X1852929Y1939036D01*
X1858263Y1933702D01*
X1863344Y1923287D01*
X1863344Y1912873D01*
X1858263Y1902460D01*
X1852929Y1897379D01*
X1837436Y1892300D01*
X1790700Y1892300D01*
X1827021Y1892300D02*
G01*
X1863344Y1835150D01*
X1949704Y1944115D02*
G01*
X1897634Y1871471D01*
X1975611Y1871471D01*
X1949704Y1944115D02*
G01*
X1949704Y1835150D01*
X1917700Y140715D02*
G01*
X1917700Y31750D01*
X1917700Y140715D02*
G01*
X1964436Y140715D01*
X1979929Y135636D01*
X1985263Y130302D01*
X1990343Y119887D01*
X1990343Y109473D01*
X1985263Y99060D01*
X1979929Y93979D01*
X1964436Y88900D01*
X1917700Y88900D01*
X1954022Y88900D02*
G01*
X1990343Y31750D01*
X2097531Y140715D02*
G01*
X2045461Y31750D01*
X2024634Y140715D02*
G01*
X2097531Y140715D01*
X1752600Y3264915D02*
G01*
X1752600Y3155950D01*
X1752600Y3264915D02*
G01*
X1799336Y3264915D01*
X1814829Y3259836D01*
X1820163Y3254502D01*
X1825244Y3244087D01*
X1825244Y3233673D01*
X1820163Y3223260D01*
X1814829Y3218179D01*
X1799336Y3213100D01*
X1752600Y3213100D01*
X1788921Y3213100D02*
G01*
X1825244Y3155950D01*
X1864868Y3239007D02*
G01*
X1864868Y3244087D01*
X1869947Y3254502D01*
X1875281Y3259836D01*
X1885695Y3264915D01*
X1906270Y3264915D01*
X1916684Y3259836D01*
X1922018Y3254502D01*
X1927097Y3244087D01*
X1927097Y3233673D01*
X1922018Y3223260D01*
X1911604Y3207765D01*
X1859534Y3155950D01*
X1932431Y3155950D01*
X3556000Y902715D02*
G01*
X3556000Y793750D01*
X3556000Y902715D02*
G01*
X3602736Y902715D01*
X3618229Y897636D01*
X3623563Y892302D01*
X3628643Y881887D01*
X3628643Y871473D01*
X3623563Y861060D01*
X3618229Y855979D01*
X3602736Y850900D01*
X3556000Y850900D01*
X3592322Y850900D02*
G01*
X3628643Y793750D01*
X3673347Y902715D02*
G01*
X3730497Y902715D01*
X3699509Y861060D01*
X3715004Y861060D01*
X3725418Y855979D01*
X3730497Y850900D01*
X3735831Y835152D01*
X3735831Y824737D01*
X3730497Y809244D01*
X3720084Y798829D01*
X3704590Y793750D01*
X3689095Y793750D01*
X3673347Y798829D01*
X3668268Y803910D01*
X3662934Y814323D01*
X1727200Y1512315D02*
G01*
X1727200Y1403350D01*
X1727200Y1512315D02*
G01*
X1773936Y1512315D01*
X1789429Y1507236D01*
X1794763Y1501902D01*
X1799844Y1491487D01*
X1799844Y1481073D01*
X1794763Y1470660D01*
X1789429Y1465579D01*
X1773936Y1460500D01*
X1727200Y1460500D01*
X1763521Y1460500D02*
G01*
X1799844Y1403350D01*
X1896618Y1512315D02*
G01*
X1844547Y1512315D01*
X1839468Y1465579D01*
X1844547Y1470660D01*
X1860295Y1475994D01*
X1875789Y1475994D01*
X1891284Y1470660D01*
X1901697Y1460500D01*
X1907031Y1444752D01*
X1907031Y1434337D01*
X1901697Y1418844D01*
X1891284Y1408429D01*
X1875789Y1403350D01*
X1860295Y1403350D01*
X1844547Y1408429D01*
X1839468Y1413510D01*
X1834134Y1423923D01*
X3556000Y382015D02*
G01*
X3556000Y273050D01*
X3556000Y382015D02*
G01*
X3602736Y382015D01*
X3618229Y376936D01*
X3623563Y371602D01*
X3628643Y361187D01*
X3628643Y350773D01*
X3623563Y340360D01*
X3618229Y335279D01*
X3602736Y330200D01*
X3556000Y330200D01*
X3592322Y330200D02*
G01*
X3628643Y273050D01*
X3725418Y366521D02*
G01*
X3720084Y376936D01*
X3704590Y382015D01*
X3694175Y382015D01*
X3678681Y376936D01*
X3668268Y361187D01*
X3662934Y335279D01*
X3662934Y309371D01*
X3668268Y288544D01*
X3678681Y278129D01*
X3694175Y273050D01*
X3699509Y273050D01*
X3715004Y278129D01*
X3725418Y288544D01*
X3730497Y304037D01*
X3730497Y309371D01*
X3725418Y324865D01*
X3715004Y335279D01*
X3699509Y340360D01*
X3694175Y340360D01*
X3678681Y335279D01*
X3668268Y324865D01*
X3662934Y309371D01*
X1854200Y-240284D02*
G01*
X1854200Y-349250D01*
X1854200Y-240284D02*
G01*
X1900936Y-240284D01*
X1916429Y-245363D01*
X1921763Y-250697D01*
X1926844Y-261112D01*
X1926844Y-271526D01*
X1921763Y-281939D01*
X1916429Y-287020D01*
X1900936Y-292100D01*
X1854200Y-292100D01*
X1890521Y-292100D02*
G01*
X1926844Y-349250D01*
X1987295Y-240284D02*
G01*
X1971547Y-245363D01*
X1966468Y-255778D01*
X1966468Y-266192D01*
X1971547Y-276605D01*
X1981961Y-281939D01*
X2002790Y-287020D01*
X2018284Y-292100D01*
X2028697Y-302513D01*
X2034031Y-312928D01*
X2034031Y-328676D01*
X2028697Y-339089D01*
X2023618Y-344170D01*
X2007870Y-349250D01*
X1987295Y-349250D01*
X1971547Y-344170D01*
X1966468Y-339089D01*
X1961134Y-328676D01*
X1961134Y-312928D01*
X1966468Y-302513D01*
X1976881Y-292100D01*
X1992375Y-287020D01*
X2013204Y-281939D01*
X2023618Y-276605D01*
X2028697Y-266192D01*
X2028697Y-255778D01*
X2023618Y-245363D01*
X2007870Y-240284D01*
X1987295Y-240284D01*
X3556000Y-113284D02*
G01*
X3556000Y-222250D01*
X3556000Y-113284D02*
G01*
X3602736Y-113284D01*
X3618229Y-118363D01*
X3623563Y-123697D01*
X3628643Y-134112D01*
X3628643Y-144526D01*
X3623563Y-154939D01*
X3618229Y-160020D01*
X3602736Y-165100D01*
X3556000Y-165100D01*
X3592322Y-165100D02*
G01*
X3628643Y-222250D01*
X3730497Y-149605D02*
G01*
X3725418Y-165100D01*
X3715004Y-175513D01*
X3699509Y-180847D01*
X3694175Y-180847D01*
X3678681Y-175513D01*
X3668268Y-165100D01*
X3662934Y-149605D01*
X3662934Y-144526D01*
X3668268Y-128778D01*
X3678681Y-118363D01*
X3694175Y-113284D01*
X3699509Y-113284D01*
X3715004Y-118363D01*
X3725418Y-128778D01*
X3730497Y-149605D01*
X3730497Y-175513D01*
X3725418Y-201676D01*
X3715004Y-217170D01*
X3699509Y-222250D01*
X3689095Y-222250D01*
X3673347Y-217170D01*
X3668268Y-206755D01*
X7950200Y4458715D02*
G01*
X7950200Y4349750D01*
X7950200Y4458715D02*
G01*
X7996936Y4458715D01*
X8012429Y4453636D01*
X8017763Y4448302D01*
X8022843Y4437887D01*
X8022843Y4427473D01*
X8017763Y4417060D01*
X8012429Y4411979D01*
X7996936Y4406900D01*
X7950200Y4406900D01*
X7986522Y4406900D02*
G01*
X8022843Y4349750D01*
X8057134Y4437887D02*
G01*
X8067547Y4443221D01*
X8083295Y4458715D01*
X8083295Y4349750D01*
X8148574Y4458715D02*
G01*
X8133079Y4453636D01*
X8122665Y4437887D01*
X8117586Y4411979D01*
X8117586Y4396486D01*
X8122665Y4370323D01*
X8133079Y4354829D01*
X8148574Y4349750D01*
X8158988Y4349750D01*
X8174736Y4354829D01*
X8185150Y4370323D01*
X8190229Y4396486D01*
X8190229Y4411979D01*
X8185150Y4437887D01*
X8174736Y4453636D01*
X8158988Y4458715D01*
X8148574Y4458715D01*
X9435084Y4495800D02*
G01*
X9544050Y4495800D01*
X9435084Y4495800D02*
G01*
X9435084Y4542536D01*
X9440163Y4558029D01*
X9445497Y4563363D01*
X9455911Y4568444D01*
X9466325Y4568444D01*
X9476740Y4563363D01*
X9481820Y4558029D01*
X9486900Y4542536D01*
X9486900Y4495800D01*
X9486900Y4532121D02*
G01*
X9544050Y4568444D01*
X9455911Y4602734D02*
G01*
X9450577Y4613147D01*
X9435084Y4628895D01*
X9544050Y4628895D01*
X9455911Y4663186D02*
G01*
X9450577Y4673600D01*
X9435084Y4689094D01*
X9544050Y4689094D01*
X7950200Y4966715D02*
G01*
X7950200Y4857750D01*
X7950200Y4966715D02*
G01*
X7996936Y4966715D01*
X8012429Y4961636D01*
X8017763Y4956302D01*
X8022843Y4945887D01*
X8022843Y4935473D01*
X8017763Y4925060D01*
X8012429Y4919979D01*
X7996936Y4914900D01*
X7950200Y4914900D01*
X7986522Y4914900D02*
G01*
X8022843Y4857750D01*
X8057134Y4945887D02*
G01*
X8067547Y4951221D01*
X8083295Y4966715D01*
X8083295Y4857750D01*
X8122665Y4940807D02*
G01*
X8122665Y4945887D01*
X8128000Y4956302D01*
X8133079Y4961636D01*
X8143493Y4966715D01*
X8164322Y4966715D01*
X8174736Y4961636D01*
X8179815Y4956302D01*
X8185150Y4945887D01*
X8185150Y4935473D01*
X8179815Y4925060D01*
X8169402Y4909565D01*
X8117586Y4857750D01*
X8190229Y4857750D01*
X9460484Y2463800D02*
G01*
X9569450Y2463800D01*
X9460484Y2463800D02*
G01*
X9460484Y2510536D01*
X9465563Y2526029D01*
X9470897Y2531363D01*
X9481311Y2536444D01*
X9491725Y2536444D01*
X9502140Y2531363D01*
X9507220Y2526029D01*
X9512300Y2510536D01*
X9512300Y2463800D01*
X9512300Y2500121D02*
G01*
X9569450Y2536444D01*
X9481311Y2570734D02*
G01*
X9475977Y2581147D01*
X9460484Y2596895D01*
X9569450Y2596895D01*
X9460484Y2641600D02*
G01*
X9460484Y2698750D01*
X9502140Y2667507D01*
X9502140Y2683002D01*
X9507220Y2693415D01*
X9512300Y2698750D01*
X9528047Y2703829D01*
X9538461Y2703829D01*
X9553956Y2698750D01*
X9564370Y2688336D01*
X9569450Y2672587D01*
X9569450Y2657094D01*
X9564370Y2641600D01*
X9559290Y2636265D01*
X9548875Y2631186D01*
X7937500Y5398515D02*
G01*
X7937500Y5289550D01*
X7937500Y5398515D02*
G01*
X7984236Y5398515D01*
X7999729Y5393436D01*
X8005063Y5388102D01*
X8010143Y5377687D01*
X8010143Y5367273D01*
X8005063Y5356860D01*
X7999729Y5351779D01*
X7984236Y5346700D01*
X7937500Y5346700D01*
X7973822Y5346700D02*
G01*
X8010143Y5289550D01*
X8044434Y5377687D02*
G01*
X8054847Y5383021D01*
X8070595Y5398515D01*
X8070595Y5289550D01*
X8156702Y5398515D02*
G01*
X8104886Y5325871D01*
X8182609Y5325871D01*
X8156702Y5398515D02*
G01*
X8156702Y5289550D01*
X9447784Y685800D02*
G01*
X9556750Y685800D01*
X9447784Y685800D02*
G01*
X9447784Y732536D01*
X9452863Y748029D01*
X9458197Y753363D01*
X9468611Y758444D01*
X9479025Y758444D01*
X9489440Y753363D01*
X9494520Y748029D01*
X9499600Y732536D01*
X9499600Y685800D01*
X9499600Y722121D02*
G01*
X9556750Y758444D01*
X9468611Y792734D02*
G01*
X9463277Y803147D01*
X9447784Y818895D01*
X9556750Y818895D01*
X9447784Y915415D02*
G01*
X9447784Y863600D01*
X9494520Y858265D01*
X9489440Y863600D01*
X9484106Y879094D01*
X9484106Y894587D01*
X9489440Y910336D01*
X9499600Y920750D01*
X9515347Y925829D01*
X9525761Y925829D01*
X9541256Y920750D01*
X9551670Y910336D01*
X9556750Y894587D01*
X9556750Y879094D01*
X9551670Y863600D01*
X9546590Y858265D01*
X9536175Y853186D01*
X6400800Y3391915D02*
G01*
X6400800Y3313937D01*
X6405879Y3298444D01*
X6416293Y3288029D01*
X6432041Y3282950D01*
X6442456Y3282950D01*
X6457950Y3288029D01*
X6468363Y3298444D01*
X6473443Y3313937D01*
X6473443Y3391915D01*
X6507734Y3371087D02*
G01*
X6518147Y3376421D01*
X6533895Y3391915D01*
X6533895Y3282950D01*
D11*
X5892800Y2997454D02*
G01*
X5939027Y2803652D01*
X5985256Y2997454D02*
G01*
X5939027Y2803652D01*
X5985256Y2997454D02*
G01*
X6031229Y2803652D01*
X6077458Y2997454D02*
G01*
X6031229Y2803652D01*
X6138418Y2997454D02*
G01*
X6138418Y2803652D01*
X6138418Y2997454D02*
G01*
X6258559Y2997454D01*
X6138418Y2905252D02*
G01*
X6212331Y2905252D01*
X6138418Y2803652D02*
G01*
X6258559Y2803652D01*
X6319520Y2997454D02*
G01*
X6319520Y2803652D01*
X6319520Y2997454D02*
G01*
X6393434Y2803652D01*
X6467347Y2997454D02*
G01*
X6393434Y2803652D01*
X6467347Y2997454D02*
G01*
X6467347Y2803652D01*
X6583679Y2997454D02*
G01*
X6565138Y2988310D01*
X6546850Y2969768D01*
X6537452Y2951226D01*
X6528308Y2923539D01*
X6528308Y2877565D01*
X6537452Y2849626D01*
X6546850Y2831337D01*
X6565138Y2812795D01*
X6583679Y2803652D01*
X6620509Y2803652D01*
X6639052Y2812795D01*
X6657593Y2831337D01*
X6666738Y2849626D01*
X6676136Y2877565D01*
X6676136Y2923539D01*
X6666738Y2951226D01*
X6657593Y2969768D01*
X6639052Y2988310D01*
X6620509Y2997454D01*
X6583679Y2997454D01*
X6866381Y2969768D02*
G01*
X6847840Y2988310D01*
X6820154Y2997454D01*
X6783070Y2997454D01*
X6755384Y2988310D01*
X6737095Y2969768D01*
X6737095Y2951226D01*
X6746240Y2932937D01*
X6755384Y2923539D01*
X6773925Y2914395D01*
X6829297Y2895854D01*
X6847840Y2886710D01*
X6856984Y2877565D01*
X6866381Y2859023D01*
X6866381Y2831337D01*
X6847840Y2812795D01*
X6820154Y2803652D01*
X6783070Y2803652D01*
X6755384Y2812795D01*
X6737095Y2831337D01*
X5892800Y2692654D02*
G01*
X5892800Y2498852D01*
X5892800Y2692654D02*
G01*
X5957570Y2692654D01*
X5985256Y2683510D01*
X6003543Y2664968D01*
X6012941Y2646426D01*
X6022086Y2618739D01*
X6022086Y2572765D01*
X6012941Y2544826D01*
X6003543Y2526537D01*
X5985256Y2507995D01*
X5957570Y2498852D01*
X5892800Y2498852D01*
X6083045Y2655823D02*
G01*
X6101588Y2664968D01*
X6129274Y2692654D01*
X6129274Y2498852D01*
X6332474Y2692654D02*
G01*
X6332474Y2498852D01*
X6332474Y2692654D02*
G01*
X6406388Y2498852D01*
X6480302Y2692654D02*
G01*
X6406388Y2498852D01*
X6480302Y2692654D02*
G01*
X6480302Y2498852D01*
X6541261Y2692654D02*
G01*
X6550406Y2683510D01*
X6559550Y2692654D01*
X6550406Y2702052D01*
X6541261Y2692654D01*
X6550406Y2628137D02*
G01*
X6550406Y2498852D01*
X6620509Y2628137D02*
G01*
X6620509Y2498852D01*
X6620509Y2591054D02*
G01*
X6648450Y2618739D01*
X6666738Y2628137D01*
X6694424Y2628137D01*
X6712965Y2618739D01*
X6722109Y2591054D01*
X6722109Y2498852D01*
X6783070Y2692654D02*
G01*
X6792468Y2683510D01*
X6801611Y2692654D01*
X6792468Y2702052D01*
X6783070Y2692654D01*
X6792468Y2628137D02*
G01*
X6792468Y2498852D01*
X5740400Y1538223D02*
G01*
X5740400Y1344421D01*
X5740400Y1538223D02*
G01*
X5860541Y1538223D01*
X5740400Y1446021D02*
G01*
X5814313Y1446021D01*
X5740400Y1344421D02*
G01*
X5860541Y1344421D01*
X6050788Y1510537D02*
G01*
X6032245Y1529079D01*
X6004559Y1538223D01*
X5967729Y1538223D01*
X5939790Y1529079D01*
X5921502Y1510537D01*
X5921502Y1492250D01*
X5930645Y1473707D01*
X5939790Y1464310D01*
X5958331Y1455165D01*
X6013704Y1436623D01*
X6032245Y1427479D01*
X6041390Y1418336D01*
X6050788Y1399794D01*
X6050788Y1372107D01*
X6032245Y1353565D01*
X6004559Y1344421D01*
X5967729Y1344421D01*
X5939790Y1353565D01*
X5921502Y1372107D01*
X6111747Y1538223D02*
G01*
X6111747Y1344421D01*
X6111747Y1538223D02*
G01*
X6194806Y1538223D01*
X6222491Y1529079D01*
X6231890Y1519936D01*
X6241034Y1501394D01*
X6241034Y1473707D01*
X6231890Y1455165D01*
X6222491Y1446021D01*
X6194806Y1436623D01*
X6111747Y1436623D01*
X6348222Y1538223D02*
G01*
X6320536Y1529079D01*
X6311138Y1510537D01*
X6311138Y1492250D01*
X6320536Y1473707D01*
X6338824Y1464310D01*
X6375908Y1455165D01*
X6403593Y1446021D01*
X6422136Y1427479D01*
X6431279Y1408937D01*
X6431279Y1381252D01*
X6422136Y1362710D01*
X6412738Y1353565D01*
X6385052Y1344421D01*
X6348222Y1344421D01*
X6320536Y1353565D01*
X6311138Y1362710D01*
X6301993Y1381252D01*
X6301993Y1408937D01*
X6311138Y1427479D01*
X6329679Y1446021D01*
X6357365Y1455165D01*
X6394450Y1464310D01*
X6412738Y1473707D01*
X6422136Y1492250D01*
X6422136Y1510537D01*
X6412738Y1529079D01*
X6385052Y1538223D01*
X6348222Y1538223D01*
X6501384Y1492250D02*
G01*
X6501384Y1501394D01*
X6510781Y1519936D01*
X6519925Y1529079D01*
X6538468Y1538223D01*
X6575297Y1538223D01*
X6593840Y1529079D01*
X6602984Y1519936D01*
X6612381Y1501394D01*
X6612381Y1482852D01*
X6602984Y1464310D01*
X6584695Y1436623D01*
X6492240Y1344421D01*
X6621525Y1344421D01*
X6793229Y1510537D02*
G01*
X6784086Y1529079D01*
X6756400Y1538223D01*
X6737858Y1538223D01*
X6710172Y1529079D01*
X6691629Y1501394D01*
X6682486Y1455165D01*
X6682486Y1408937D01*
X6691629Y1372107D01*
X6710172Y1353565D01*
X6737858Y1344421D01*
X6747256Y1344421D01*
X6774941Y1353565D01*
X6793229Y1372107D01*
X6802627Y1399794D01*
X6802627Y1408937D01*
X6793229Y1436623D01*
X6774941Y1455165D01*
X6747256Y1464310D01*
X6737858Y1464310D01*
X6710172Y1455165D01*
X6691629Y1436623D01*
X6682486Y1408937D01*
X6974331Y1510537D02*
G01*
X6965188Y1529079D01*
X6937502Y1538223D01*
X6918959Y1538223D01*
X6891274Y1529079D01*
X6872731Y1501394D01*
X6863588Y1455165D01*
X6863588Y1408937D01*
X6872731Y1372107D01*
X6891274Y1353565D01*
X6918959Y1344421D01*
X6928104Y1344421D01*
X6955790Y1353565D01*
X6974331Y1372107D01*
X6983729Y1399794D01*
X6983729Y1408937D01*
X6974331Y1436623D01*
X6955790Y1455165D01*
X6928104Y1464310D01*
X6918959Y1464310D01*
X6891274Y1455165D01*
X6872731Y1436623D01*
X6863588Y1408937D01*
D10*
X13830300Y5246115D02*
G01*
X13830300Y5168137D01*
X13835379Y5152644D01*
X13845793Y5142229D01*
X13861541Y5137150D01*
X13871956Y5137150D01*
X13887450Y5142229D01*
X13897863Y5152644D01*
X13902943Y5168137D01*
X13902943Y5246115D01*
X13937234Y5225287D02*
G01*
X13947647Y5230621D01*
X13963395Y5246115D01*
X13963395Y5137150D01*
X14028674Y5246115D02*
G01*
X14013179Y5241036D01*
X14002766Y5225287D01*
X13997686Y5199379D01*
X13997686Y5183886D01*
X14002766Y5157723D01*
X14013179Y5142229D01*
X14028674Y5137150D01*
X14039088Y5137150D01*
X14054836Y5142229D01*
X14065250Y5157723D01*
X14070329Y5183886D01*
X14070329Y5199379D01*
X14065250Y5225287D01*
X14054836Y5241036D01*
X14039088Y5246115D01*
X14028674Y5246115D01*
X5270500Y4774184D02*
G01*
X5270500Y4852162D01*
X5265420Y4867655D01*
X5255006Y4878070D01*
X5239258Y4883150D01*
X5228843Y4883150D01*
X5213350Y4878070D01*
X5202936Y4867655D01*
X5197856Y4852162D01*
X5197856Y4774184D01*
X5163565Y4795012D02*
G01*
X5153152Y4789678D01*
X5137404Y4774184D01*
X5137404Y4883150D01*
X5092700Y4774184D02*
G01*
X5035550Y4774184D01*
X5066791Y4815839D01*
X5051297Y4815839D01*
X5040884Y4820920D01*
X5035550Y4826000D01*
X5030470Y4841747D01*
X5030470Y4852162D01*
X5035550Y4867655D01*
X5045963Y4878070D01*
X5061711Y4883150D01*
X5077206Y4883150D01*
X5092700Y4878070D01*
X5098034Y4872989D01*
X5103113Y4862576D01*
X13881224Y3214115D02*
G01*
X13881224Y3136137D01*
X13886304Y3120644D01*
X13896718Y3110229D01*
X13912212Y3105150D01*
X13922626Y3105150D01*
X13938374Y3110229D01*
X13948534Y3120644D01*
X13953868Y3136137D01*
X13953868Y3214115D01*
X13988158Y3193287D02*
G01*
X13998572Y3198621D01*
X14014066Y3214115D01*
X14014066Y3105150D01*
X14048356Y3193287D02*
G01*
X14058770Y3198621D01*
X14074264Y3214115D01*
X14074264Y3105150D01*
X13805024Y1182115D02*
G01*
X13805024Y1104137D01*
X13810104Y1088644D01*
X13820518Y1078229D01*
X13836012Y1073150D01*
X13846426Y1073150D01*
X13862174Y1078229D01*
X13872334Y1088644D01*
X13877668Y1104137D01*
X13877668Y1182115D01*
X13911958Y1161287D02*
G01*
X13922372Y1166621D01*
X13937866Y1182115D01*
X13937866Y1073150D01*
X13977490Y1156207D02*
G01*
X13977490Y1161287D01*
X13982570Y1171702D01*
X13987904Y1177036D01*
X13998064Y1182115D01*
X14018892Y1182115D01*
X14029306Y1177036D01*
X14034640Y1171702D01*
X14039720Y1161287D01*
X14039720Y1150873D01*
X14034640Y1140460D01*
X14024226Y1124965D01*
X13972156Y1073150D01*
X14045054Y1073150D01*
X10165867Y5042915D02*
G01*
X10155453Y5037836D01*
X10145039Y5027421D01*
X10139705Y5017007D01*
X10134625Y5001260D01*
X10134625Y4975352D01*
X10139705Y4959857D01*
X10145039Y4949444D01*
X10155453Y4939029D01*
X10165867Y4933950D01*
X10186441Y4933950D01*
X10196855Y4939029D01*
X10207269Y4949444D01*
X10212603Y4959857D01*
X10217683Y4975352D01*
X10217683Y5001260D01*
X10212603Y5017007D01*
X10207269Y5027421D01*
X10196855Y5037836D01*
X10186441Y5042915D01*
X10165867Y5042915D01*
X10181361Y4954523D02*
G01*
X10212603Y4923536D01*
X10251973Y5022087D02*
G01*
X10262387Y5027421D01*
X10277881Y5042915D01*
X10277881Y4933950D01*
X10140441Y2960115D02*
G01*
X10130027Y2955036D01*
X10119613Y2944621D01*
X10114279Y2934207D01*
X10109200Y2918460D01*
X10109200Y2892552D01*
X10114279Y2877057D01*
X10119613Y2866644D01*
X10130027Y2856229D01*
X10140441Y2851150D01*
X10161270Y2851150D01*
X10171429Y2856229D01*
X10181843Y2866644D01*
X10187177Y2877057D01*
X10192258Y2892552D01*
X10192258Y2918460D01*
X10187177Y2934207D01*
X10181843Y2944621D01*
X10171429Y2955036D01*
X10161270Y2960115D01*
X10140441Y2960115D01*
X10155936Y2871723D02*
G01*
X10187177Y2840736D01*
X10231881Y2934207D02*
G01*
X10231881Y2939287D01*
X10236961Y2949702D01*
X10242295Y2955036D01*
X10252709Y2960115D01*
X10273284Y2960115D01*
X10283697Y2955036D01*
X10289031Y2949702D01*
X10294111Y2939287D01*
X10294111Y2928873D01*
X10289031Y2918460D01*
X10278618Y2902965D01*
X10226547Y2851150D01*
X10299445Y2851150D01*
X5887923Y4292092D02*
G01*
X5893003Y4281678D01*
X5903417Y4271263D01*
X5913831Y4266184D01*
X5934659Y4266184D01*
X5945073Y4271263D01*
X5955487Y4281678D01*
X5960567Y4292092D01*
X5965901Y4307839D01*
X5965901Y4333747D01*
X5960567Y4349242D01*
X5955487Y4359655D01*
X5945073Y4370070D01*
X5934659Y4375150D01*
X5913831Y4375150D01*
X5903417Y4370070D01*
X5893003Y4359655D01*
X5887923Y4349242D01*
X5791149Y4281678D02*
G01*
X5796483Y4271263D01*
X5811977Y4266184D01*
X5822391Y4266184D01*
X5837885Y4271263D01*
X5848299Y4287012D01*
X5853633Y4312920D01*
X5853633Y4338828D01*
X5848299Y4359655D01*
X5837885Y4370070D01*
X5822391Y4375150D01*
X5817311Y4375150D01*
X5801563Y4370070D01*
X5791149Y4359655D01*
X5786069Y4344162D01*
X5786069Y4338828D01*
X5791149Y4323334D01*
X5801563Y4312920D01*
X5817311Y4307839D01*
X5822391Y4307839D01*
X5837885Y4312920D01*
X5848299Y4323334D01*
X5853633Y4338828D01*
X4414723Y4279392D02*
G01*
X4419803Y4268978D01*
X4430217Y4258563D01*
X4440631Y4253484D01*
X4461459Y4253484D01*
X4471873Y4258563D01*
X4482287Y4268978D01*
X4487367Y4279392D01*
X4492701Y4295139D01*
X4492701Y4321047D01*
X4487367Y4336542D01*
X4482287Y4346955D01*
X4471873Y4357370D01*
X4461459Y4362450D01*
X4440631Y4362450D01*
X4430217Y4357370D01*
X4419803Y4346955D01*
X4414723Y4336542D01*
X4307535Y4253484D02*
G01*
X4359605Y4362450D01*
X4380433Y4253484D02*
G01*
X4307535Y4253484D01*
X12332970Y5462015D02*
G01*
X12332970Y5353050D01*
X12332970Y5462015D02*
G01*
X12379706Y5462015D01*
X12395200Y5456936D01*
X12400279Y5451602D01*
X12405613Y5441187D01*
X12405613Y5430773D01*
X12400279Y5420360D01*
X12395200Y5415279D01*
X12379706Y5410200D01*
X12332970Y5410200D01*
X12369291Y5410200D02*
G01*
X12405613Y5353050D01*
X12439904Y5462015D02*
G01*
X12439904Y5353050D01*
X12439904Y5353050D02*
G01*
X12502134Y5353050D01*
X12536424Y5462015D02*
G01*
X12578079Y5410200D01*
X12578079Y5353050D01*
X12619736Y5462015D02*
G01*
X12578079Y5410200D01*
X12654025Y5441187D02*
G01*
X12664440Y5446521D01*
X12679934Y5462015D01*
X12679934Y5353050D01*
X12345670Y3430015D02*
G01*
X12345670Y3321050D01*
X12345670Y3430015D02*
G01*
X12392406Y3430015D01*
X12407900Y3424936D01*
X12412979Y3419602D01*
X12418313Y3409187D01*
X12418313Y3398773D01*
X12412979Y3388360D01*
X12407900Y3383279D01*
X12392406Y3378200D01*
X12345670Y3378200D01*
X12381991Y3378200D02*
G01*
X12418313Y3321050D01*
X12452604Y3430015D02*
G01*
X12452604Y3321050D01*
X12452604Y3321050D02*
G01*
X12514834Y3321050D01*
X12549124Y3430015D02*
G01*
X12590779Y3378200D01*
X12590779Y3321050D01*
X12632436Y3430015D02*
G01*
X12590779Y3378200D01*
X12671806Y3404107D02*
G01*
X12671806Y3409187D01*
X12677140Y3419602D01*
X12682220Y3424936D01*
X12692634Y3430015D01*
X12713461Y3430015D01*
X12723875Y3424936D01*
X12728956Y3419602D01*
X12734290Y3409187D01*
X12734290Y3398773D01*
X12728956Y3388360D01*
X12718541Y3372865D01*
X12666725Y3321050D01*
X12739370Y3321050D01*
X12332970Y1398015D02*
G01*
X12332970Y1289050D01*
X12332970Y1398015D02*
G01*
X12379706Y1398015D01*
X12395200Y1392936D01*
X12400279Y1387602D01*
X12405613Y1377187D01*
X12405613Y1366773D01*
X12400279Y1356360D01*
X12395200Y1351279D01*
X12379706Y1346200D01*
X12332970Y1346200D01*
X12369291Y1346200D02*
G01*
X12405613Y1289050D01*
X12439904Y1398015D02*
G01*
X12439904Y1289050D01*
X12439904Y1289050D02*
G01*
X12502134Y1289050D01*
X12536424Y1398015D02*
G01*
X12578079Y1346200D01*
X12578079Y1289050D01*
X12619736Y1398015D02*
G01*
X12578079Y1346200D01*
X12664440Y1398015D02*
G01*
X12721590Y1398015D01*
X12690347Y1356360D01*
X12705841Y1356360D01*
X12716256Y1351279D01*
X12721590Y1346200D01*
X12726670Y1330452D01*
X12726670Y1320037D01*
X12721590Y1304544D01*
X12711175Y1294129D01*
X12695427Y1289050D01*
X12679934Y1289050D01*
X12664440Y1294129D01*
X12659106Y1299210D01*
X12654025Y1309623D01*
X4103115Y3695700D02*
G01*
X4025138Y3695700D01*
X4009643Y3690620D01*
X3999229Y3680205D01*
X3994150Y3664457D01*
X3994150Y3654044D01*
X3999229Y3638550D01*
X4009643Y3628136D01*
X4025138Y3623055D01*
X4103115Y3623055D01*
X4077208Y3583431D02*
G01*
X4082288Y3583431D01*
X4092702Y3578352D01*
X4098036Y3573018D01*
X4103115Y3562604D01*
X4103115Y3542029D01*
X4098036Y3531615D01*
X4092702Y3526281D01*
X4082288Y3521202D01*
X4071874Y3521202D01*
X4061459Y3526281D01*
X4045965Y3536695D01*
X3994150Y3588765D01*
X3994150Y3515868D01*
X9119615Y2832100D02*
G01*
X9041638Y2832100D01*
X9026143Y2827020D01*
X9015729Y2816605D01*
X9010650Y2800857D01*
X9010650Y2790444D01*
X9015729Y2774950D01*
X9026143Y2764536D01*
X9041638Y2759455D01*
X9119615Y2759455D01*
X9119615Y2714752D02*
G01*
X9119615Y2657602D01*
X9077959Y2688589D01*
X9077959Y2673095D01*
X9072879Y2662681D01*
X9067800Y2657602D01*
X9052052Y2652268D01*
X9041638Y2652268D01*
X9026143Y2657602D01*
X9015729Y2668015D01*
X9010650Y2683510D01*
X9010650Y2699004D01*
X9015729Y2714752D01*
X9020809Y2719831D01*
X9031224Y2725165D01*
X5204968Y4332223D02*
G01*
X5204968Y4254245D01*
X5210302Y4238752D01*
X5220461Y4228337D01*
X5236209Y4223257D01*
X5246624Y4223257D01*
X5262118Y4228337D01*
X5272531Y4238752D01*
X5277611Y4254245D01*
X5277611Y4332223D01*
X5363972Y4332223D02*
G01*
X5311902Y4259579D01*
X5389879Y4259579D01*
X5363972Y4332223D02*
G01*
X5363972Y4223257D01*
X4103115Y2692400D02*
G01*
X4025138Y2692400D01*
X4009643Y2687320D01*
X3999229Y2676905D01*
X3994150Y2661157D01*
X3994150Y2650744D01*
X3999229Y2635250D01*
X4009643Y2624836D01*
X4025138Y2619755D01*
X4103115Y2619755D01*
X4103115Y2522981D02*
G01*
X4103115Y2575052D01*
X4056379Y2580131D01*
X4061459Y2575052D01*
X4066793Y2559304D01*
X4066793Y2543810D01*
X4061459Y2528315D01*
X4051300Y2517902D01*
X4035552Y2512568D01*
X4025138Y2512568D01*
X4009643Y2517902D01*
X3999229Y2528315D01*
X3994150Y2543810D01*
X3994150Y2559304D01*
X3999229Y2575052D01*
X4004309Y2580131D01*
X4014724Y2585465D01*
X4103115Y1663700D02*
G01*
X4025138Y1663700D01*
X4009643Y1658620D01*
X3999229Y1648205D01*
X3994150Y1632457D01*
X3994150Y1622044D01*
X3999229Y1606550D01*
X4009643Y1596136D01*
X4025138Y1591055D01*
X4103115Y1591055D01*
X4103115Y1483868D02*
G01*
X3994150Y1535937D01*
X4103115Y1556765D02*
G01*
X4103115Y1483868D01*
X9119615Y1663700D02*
G01*
X9041638Y1663700D01*
X9026143Y1658620D01*
X9015729Y1648205D01*
X9010650Y1632457D01*
X9010650Y1622044D01*
X9015729Y1606550D01*
X9026143Y1596136D01*
X9041638Y1591055D01*
X9119615Y1591055D01*
X9119615Y1530604D02*
G01*
X9114536Y1546352D01*
X9104122Y1551431D01*
X9093708Y1551431D01*
X9083293Y1546352D01*
X9077959Y1535937D01*
X9072879Y1515110D01*
X9067800Y1499615D01*
X9057386Y1489202D01*
X9046972Y1483868D01*
X9031224Y1483868D01*
X9020809Y1489202D01*
X9015729Y1494281D01*
X9010650Y1510029D01*
X9010650Y1530604D01*
X9015729Y1546352D01*
X9020809Y1551431D01*
X9031224Y1556765D01*
X9046972Y1556765D01*
X9057386Y1551431D01*
X9067800Y1541018D01*
X9072879Y1525523D01*
X9077959Y1504695D01*
X9083293Y1494281D01*
X9093708Y1489202D01*
X9104122Y1489202D01*
X9114536Y1494281D01*
X9119615Y1510029D01*
X9119615Y1530604D01*
X9145015Y495300D02*
G01*
X9067038Y495300D01*
X9051543Y490220D01*
X9041129Y479805D01*
X9036050Y464057D01*
X9036050Y453644D01*
X9041129Y438150D01*
X9051543Y427736D01*
X9067038Y422655D01*
X9145015Y422655D01*
X9108693Y320802D02*
G01*
X9093200Y325881D01*
X9082786Y336295D01*
X9077452Y351789D01*
X9077452Y357123D01*
X9082786Y372618D01*
X9093200Y383031D01*
X9108693Y388365D01*
X9113774Y388365D01*
X9129522Y383031D01*
X9139936Y372618D01*
X9145015Y357123D01*
X9145015Y351789D01*
X9139936Y336295D01*
X9129522Y325881D01*
X9108693Y320802D01*
X9082786Y320802D01*
X9056624Y325881D01*
X9041129Y336295D01*
X9036050Y351789D01*
X9036050Y362204D01*
X9041129Y377952D01*
X9051543Y383031D01*
X6757415Y3740150D02*
G01*
X6648450Y3740150D01*
X6757415Y3740150D02*
G01*
X6757415Y3703828D01*
X6752336Y3688079D01*
X6741922Y3677920D01*
X6731508Y3672586D01*
X6715759Y3667505D01*
X6689852Y3667505D01*
X6674358Y3672586D01*
X6663943Y3677920D01*
X6653529Y3688079D01*
X6648450Y3703828D01*
X6648450Y3740150D01*
X6757415Y3581145D02*
G01*
X6684772Y3633215D01*
X6684772Y3555237D01*
X6757415Y3581145D02*
G01*
X6648450Y3581145D01*
G36*
X5764276Y4826000D02*
G01*
X5754725Y4816246D01*
X5745734Y4805984D01*
X5737352Y4795164D01*
X5729630Y4783886D01*
X5722620Y4772152D01*
X5716320Y4760010D01*
X5710783Y4747514D01*
X5705957Y4734712D01*
X5701944Y4721656D01*
X5698693Y4708398D01*
X5696254Y4694936D01*
X5694629Y4681372D01*
X5693816Y4667758D01*
X5693816Y4654042D01*
X5694629Y4640427D01*
X5696254Y4626864D01*
X5698693Y4613402D01*
X5701944Y4600143D01*
X5705957Y4587087D01*
X5710783Y4574286D01*
X5716320Y4561789D01*
X5722620Y4549648D01*
X5729630Y4537913D01*
X5737352Y4526635D01*
X5745734Y4515815D01*
X5754725Y4505553D01*
X5764276Y4495800D01*
G37*
G36*
X4291076Y4813300D02*
G01*
X4281525Y4803546D01*
X4272534Y4793284D01*
X4264152Y4782464D01*
X4256430Y4771186D01*
X4249420Y4759452D01*
X4243120Y4747310D01*
X4237583Y4734814D01*
X4232757Y4722012D01*
X4228744Y4708956D01*
X4225493Y4695698D01*
X4223054Y4682236D01*
X4221429Y4668672D01*
X4220616Y4655058D01*
X4220616Y4641342D01*
X4221429Y4627727D01*
X4223054Y4614164D01*
X4225493Y4600702D01*
X4228744Y4587443D01*
X4232757Y4574387D01*
X4237583Y4561586D01*
X4243120Y4549089D01*
X4249420Y4536948D01*
X4256430Y4525213D01*
X4264152Y4513935D01*
X4272534Y4503115D01*
X4281525Y4492853D01*
X4291076Y4483100D01*
G37*
D12*
X4800097Y1987100D02*
G01*
X4420102Y1987100D01*
X4800097Y2407099D02*
G01*
X4420102Y2407099D01*
X4800097Y2407099D02*
G01*
X4800097Y1987100D01*
X4420102Y2407099D02*
G01*
X4420102Y1987100D01*
X4812797Y1288600D02*
G01*
X4432802Y1288600D01*
X4812797Y1708599D02*
G01*
X4432802Y1708599D01*
X4812797Y1708599D02*
G01*
X4812797Y1288600D01*
X4432802Y1708599D02*
G01*
X4432802Y1288600D01*
X4812797Y526600D02*
G01*
X4432802Y526600D01*
X4812797Y946599D02*
G01*
X4432802Y946599D01*
X4812797Y946599D02*
G01*
X4812797Y526600D01*
X4432802Y946599D02*
G01*
X4432802Y526600D01*
X10680400Y4286600D02*
G01*
X10680400Y4806599D01*
X10680400Y4806599D02*
G01*
X10960399Y4806599D01*
X10960399Y4286600D02*
G01*
X10960399Y4806599D01*
X10680400Y4286600D02*
G01*
X10960399Y4286600D01*
X10680400Y4382526D02*
G01*
X10960399Y4382526D01*
X10693100Y2267300D02*
G01*
X10693100Y2787299D01*
X10693100Y2787299D02*
G01*
X10973099Y2787299D01*
X10973099Y2267300D02*
G01*
X10973099Y2787299D01*
X10693100Y2267300D02*
G01*
X10973099Y2267300D01*
X10693100Y2363226D02*
G01*
X10973099Y2363226D01*
X10756600Y248000D02*
G01*
X10756600Y767999D01*
X10756600Y767999D02*
G01*
X11036599Y767999D01*
X11036599Y248000D02*
G01*
X11036599Y767999D01*
X10756600Y248000D02*
G01*
X11036599Y248000D01*
X10756600Y343926D02*
G01*
X11036599Y343926D01*
X1027998Y5636374D02*
G01*
X2528001Y5636374D01*
X2350333Y5636374D02*
G01*
X2350333Y5754799D01*
X2206998Y5636374D02*
G01*
X2206998Y5754799D01*
X1851403Y5636374D02*
G01*
X1851403Y5754799D01*
X1708068Y5636374D02*
G01*
X1708068Y5754799D01*
X1348844Y5636374D02*
G01*
X1348844Y5754799D01*
X1205514Y5636374D02*
G01*
X1205514Y5754799D01*
X1027998Y5128374D02*
G01*
X2528001Y5128374D01*
X2528001Y5754799D02*
G01*
X2528001Y4854801D01*
X1027998Y5754799D02*
G01*
X1027998Y4854801D01*
X2528001Y4854801D02*
G01*
X1027998Y4854801D01*
X2528001Y5754799D02*
G01*
X1027998Y5754799D01*
X1946099Y4490196D02*
G01*
X1686100Y4490196D01*
X1958799Y2813796D02*
G01*
X1698800Y2813796D01*
X1920699Y1061196D02*
G01*
X1660700Y1061196D01*
X10366199Y2127996D02*
G01*
X10106200Y2127996D01*
X10353499Y349996D02*
G01*
X10093500Y349996D01*
X10315399Y4172696D02*
G01*
X10055400Y4172696D01*
X10348086Y934590D02*
G01*
X10348086Y538609D01*
X1531620Y3492500D02*
G01*
X1531620Y3822700D01*
X1531620Y3822700D02*
G01*
X2430779Y3822700D01*
X2430779Y3822700D02*
G01*
X2430779Y3492500D01*
X2430779Y3492500D02*
G01*
X1531620Y3492500D01*
X1531620Y1739900D02*
G01*
X1531620Y2070100D01*
X1531620Y2070100D02*
G01*
X2430779Y2070100D01*
X2430779Y2070100D02*
G01*
X2430779Y1739900D01*
X2430779Y1739900D02*
G01*
X1531620Y1739900D01*
X1518920Y-63500D02*
G01*
X1518920Y266700D01*
X1518920Y266700D02*
G01*
X2418079Y266700D01*
X2418079Y266700D02*
G01*
X2418079Y-63500D01*
X2418079Y-63500D02*
G01*
X1518920Y-63500D01*
X1539239Y3093720D02*
G01*
X1539239Y3332479D01*
X1539239Y3332479D02*
G01*
X2169159Y3332479D01*
X2169159Y3332479D02*
G01*
X2169159Y3093720D01*
X2169159Y3093720D02*
G01*
X1539239Y3093720D01*
X3241040Y515620D02*
G01*
X3241040Y754379D01*
X3241040Y754379D02*
G01*
X3870959Y754379D01*
X3870959Y754379D02*
G01*
X3870959Y515620D01*
X3870959Y515620D02*
G01*
X3241040Y515620D01*
X1526539Y1341120D02*
G01*
X1526539Y1579879D01*
X1526539Y1579879D02*
G01*
X2156459Y1579879D01*
X2156459Y1579879D02*
G01*
X2156459Y1341120D01*
X2156459Y1341120D02*
G01*
X1526539Y1341120D01*
X3241040Y-5079D02*
G01*
X3241040Y233679D01*
X3241040Y233679D02*
G01*
X3870959Y233679D01*
X3870959Y233679D02*
G01*
X3870959Y-5079D01*
X3870959Y-5079D02*
G01*
X3241040Y-5079D01*
X1526539Y-462279D02*
G01*
X1526539Y-223520D01*
X1526539Y-223520D02*
G01*
X2156459Y-223520D01*
X2156459Y-223520D02*
G01*
X2156459Y-462279D01*
X2156459Y-462279D02*
G01*
X1526539Y-462279D01*
X3241040Y-500379D02*
G01*
X3241040Y-261620D01*
X3241040Y-261620D02*
G01*
X3870959Y-261620D01*
X3870959Y-261620D02*
G01*
X3870959Y-500379D01*
X3870959Y-500379D02*
G01*
X3241040Y-500379D01*
X7635240Y4071620D02*
G01*
X7635240Y4310379D01*
X7635240Y4310379D02*
G01*
X8265159Y4310379D01*
X8265159Y4310379D02*
G01*
X8265159Y4071620D01*
X8265159Y4071620D02*
G01*
X7635240Y4071620D01*
X9822179Y4180839D02*
G01*
X9583420Y4180839D01*
X9583420Y4180839D02*
G01*
X9583420Y4810760D01*
X9583420Y4810760D02*
G01*
X9822179Y4810760D01*
X9822179Y4810760D02*
G01*
X9822179Y4180839D01*
X7635240Y4579620D02*
G01*
X7635240Y4818379D01*
X7635240Y4818379D02*
G01*
X8265159Y4818379D01*
X8265159Y4818379D02*
G01*
X8265159Y4579620D01*
X8265159Y4579620D02*
G01*
X7635240Y4579620D01*
X9847579Y2148839D02*
G01*
X9608820Y2148839D01*
X9608820Y2148839D02*
G01*
X9608820Y2778760D01*
X9608820Y2778760D02*
G01*
X9847579Y2778760D01*
X9847579Y2778760D02*
G01*
X9847579Y2148839D01*
X7622540Y5011420D02*
G01*
X7622540Y5250179D01*
X7622540Y5250179D02*
G01*
X8252459Y5250179D01*
X8252459Y5250179D02*
G01*
X8252459Y5011420D01*
X8252459Y5011420D02*
G01*
X7622540Y5011420D01*
X9834879Y370839D02*
G01*
X9596120Y370839D01*
X9596120Y370839D02*
G01*
X9596120Y1000760D01*
X9596120Y1000760D02*
G01*
X9834879Y1000760D01*
X9834879Y1000760D02*
G01*
X9834879Y370839D01*
X5130800Y3251200D02*
G01*
X7670800Y3251200D01*
X7670800Y-177800D01*
X5130800Y-177800D01*
X5130800Y3251200D01*
X14378099Y4418406D02*
G01*
X14160500Y4418406D01*
X14160500Y4213860D01*
X14378099Y4213860D01*
X14378099Y4928946D02*
G01*
X14160500Y4928946D01*
X14160500Y4724400D01*
X14378099Y4724400D01*
X13563597Y5067297D02*
G01*
X13563597Y4067299D01*
X14311497Y5072011D02*
G01*
X14311497Y4072013D01*
X13478098Y5072011D02*
G01*
X13478098Y4072013D01*
X14378099Y4072013D02*
G01*
X13478098Y4072013D01*
X14378099Y5072011D02*
G01*
X13478098Y5072011D01*
X14378099Y5072011D02*
G01*
X14378099Y4072013D01*
X5727700Y5614535D02*
G01*
X5778500Y5614535D01*
X5778500Y5678411D01*
X5727700Y5678411D01*
X5727700Y5003424D02*
G01*
X5778500Y5003424D01*
X5778500Y5067300D01*
X5727700Y5067300D01*
X5727700Y5684809D02*
G01*
X4711700Y5684809D01*
X5727700Y5606915D02*
G01*
X4711700Y5606915D01*
X5047343Y4936700D02*
G01*
X5047343Y5003800D01*
X4884420Y5003800D01*
X4884420Y4936700D01*
X5560423Y4936700D02*
G01*
X5560423Y5003800D01*
X5397500Y5003800D01*
X5397500Y4936700D01*
X5727700Y5070914D02*
G01*
X4711700Y5070914D01*
X5727700Y5756701D02*
G01*
X4711700Y5756701D01*
X5727700Y4936700D02*
G01*
X5727700Y5756701D01*
X4711700Y4936700D02*
G01*
X4711700Y5756701D01*
X5727700Y4936700D02*
G01*
X4711700Y4936700D01*
X14378099Y2373706D02*
G01*
X14160500Y2373706D01*
X14160500Y2169160D01*
X14378099Y2169160D01*
X14378099Y2884246D02*
G01*
X14160500Y2884246D01*
X14160500Y2679700D01*
X14378099Y2679700D01*
X13563597Y3022597D02*
G01*
X13563597Y2022599D01*
X14311497Y3027311D02*
G01*
X14311497Y2027313D01*
X13478098Y3027311D02*
G01*
X13478098Y2027313D01*
X14378099Y2027313D02*
G01*
X13478098Y2027313D01*
X14378099Y3027311D02*
G01*
X13478098Y3027311D01*
X14378099Y3027311D02*
G01*
X14378099Y2027313D01*
X14352699Y354406D02*
G01*
X14135100Y354406D01*
X14135100Y149860D01*
X14352699Y149860D01*
X14352699Y864946D02*
G01*
X14135100Y864946D01*
X14135100Y660400D01*
X14352699Y660400D01*
X13538197Y1003297D02*
G01*
X13538197Y3299D01*
X14286097Y1008011D02*
G01*
X14286097Y8013D01*
X13452698Y1008011D02*
G01*
X13452698Y8013D01*
X14352699Y8013D02*
G01*
X13452698Y8013D01*
X14352699Y1008011D02*
G01*
X13452698Y1008011D01*
X14352699Y1008011D02*
G01*
X14352699Y8013D01*
X10360786Y4782690D02*
G01*
X10360786Y4386709D01*
X10360786Y2712590D02*
G01*
X10360786Y2316609D01*
X6095314Y4510912D02*
G01*
X5993714Y4510912D01*
X6043701Y4460900D02*
G01*
X6043701Y4562500D01*
X4622114Y4498212D02*
G01*
X4520514Y4498212D01*
X4570501Y4448200D02*
G01*
X4570501Y4549800D01*
D13*
X12026427Y4638984D02*
G01*
X12026427Y5133898D01*
X12026427Y3933901D02*
G01*
X12026427Y4428774D01*
X12026427Y3933903D02*
G01*
X11924639Y3933901D01*
X12026427Y5133896D02*
G01*
X11924639Y5133898D01*
X12972465Y4108195D02*
G01*
X12972465Y4502657D01*
X12870637Y4604004D02*
G01*
X13035686Y4764786D01*
X11552453Y4713899D02*
G01*
X11552453Y4906619D01*
X12416053Y4906619D01*
X12416053Y4606620D01*
X12418466Y4604204D01*
X12820065Y4604204D01*
X12870865Y4604204D01*
D12*
X13305736Y3753901D02*
G01*
X11385725Y3753901D01*
X13305723Y5313903D02*
G01*
X11385712Y5313903D01*
X13305726Y3753899D02*
G01*
X13305726Y5313900D01*
X12965556Y4958587D02*
G01*
X12965556Y4735829D01*
X11385712Y5313903D02*
G01*
X11385712Y4563369D01*
X11385712Y4504430D02*
G01*
X11385712Y3753901D01*
X11878132Y4633899D02*
G01*
X12178131Y4633899D01*
X12178131Y4433900D01*
X11878132Y4433900D01*
X11878132Y4633899D01*
D13*
X12039127Y2606984D02*
G01*
X12039127Y3101898D01*
X12039127Y1901901D02*
G01*
X12039127Y2396774D01*
X12039127Y1901903D02*
G01*
X11937339Y1901901D01*
X12039127Y3101896D02*
G01*
X11937339Y3101898D01*
X12985165Y2076195D02*
G01*
X12985165Y2470657D01*
X12883337Y2572004D02*
G01*
X13048386Y2732786D01*
X11565153Y2681899D02*
G01*
X11565153Y2874619D01*
X12428753Y2874619D01*
X12428753Y2574620D01*
X12431166Y2572204D01*
X12832765Y2572204D01*
X12883565Y2572204D01*
D12*
X13318436Y1721901D02*
G01*
X11398425Y1721901D01*
X13318423Y3281903D02*
G01*
X11398412Y3281903D01*
X13318426Y1721899D02*
G01*
X13318426Y3281900D01*
X12978256Y2926587D02*
G01*
X12978256Y2703829D01*
X11398412Y3281903D02*
G01*
X11398412Y2531369D01*
X11398412Y2472430D02*
G01*
X11398412Y1721901D01*
X11890832Y2601899D02*
G01*
X12190831Y2601899D01*
X12190831Y2401900D01*
X11890832Y2401900D01*
X11890832Y2601899D01*
D13*
X12026427Y574984D02*
G01*
X12026427Y1069898D01*
X12026427Y-130098D02*
G01*
X12026427Y364774D01*
X12026427Y-130096D02*
G01*
X11924639Y-130098D01*
X12026427Y1069896D02*
G01*
X11924639Y1069898D01*
X12972465Y44195D02*
G01*
X12972465Y438657D01*
X12870637Y540004D02*
G01*
X13035686Y700786D01*
X11552453Y649899D02*
G01*
X11552453Y842619D01*
X12416053Y842619D01*
X12416053Y542620D01*
X12418466Y540204D01*
X12820065Y540204D01*
X12870865Y540204D01*
D12*
X13305736Y-310098D02*
G01*
X11385725Y-310098D01*
X13305723Y1249903D02*
G01*
X11385712Y1249903D01*
X13305726Y-310100D02*
G01*
X13305726Y1249900D01*
X12965556Y894587D02*
G01*
X12965556Y671829D01*
X11385712Y1249903D02*
G01*
X11385712Y499369D01*
X11385712Y440430D02*
G01*
X11385712Y-310098D01*
X11878132Y569899D02*
G01*
X12178131Y569899D01*
X12178131Y369900D01*
X11878132Y369900D01*
X11878132Y569899D01*
X3556000Y4035300D02*
G01*
X3742499Y4035300D01*
X3429000Y4035300D02*
G01*
X3242500Y4035300D01*
X3742499Y3305299D02*
G01*
X3242500Y3305299D01*
X3742499Y4035300D02*
G01*
X3742499Y3305299D01*
X3242500Y4035300D02*
G01*
X3242500Y3305299D01*
X8572500Y3171700D02*
G01*
X8758999Y3171700D01*
X8445500Y3171700D02*
G01*
X8259000Y3171700D01*
X8758999Y2441699D02*
G01*
X8259000Y2441699D01*
X8758999Y3171700D02*
G01*
X8758999Y2441699D01*
X8259000Y3171700D02*
G01*
X8259000Y2441699D01*
X4689599Y4170215D02*
G01*
X5749800Y4170215D01*
X5749800Y3690406D01*
X4689599Y3690406D01*
X4689599Y4169707D01*
X4689599Y4170215D01*
X5749696Y4110299D02*
G01*
X4689703Y4110299D01*
X3556000Y3032000D02*
G01*
X3742499Y3032000D01*
X3429000Y3032000D02*
G01*
X3242500Y3032000D01*
X3742499Y2301999D02*
G01*
X3242500Y2301999D01*
X3742499Y3032000D02*
G01*
X3742499Y2301999D01*
X3242500Y3032000D02*
G01*
X3242500Y2301999D01*
X3556000Y2003300D02*
G01*
X3742499Y2003300D01*
X3429000Y2003300D02*
G01*
X3242500Y2003300D01*
X3742499Y1273299D02*
G01*
X3242500Y1273299D01*
X3742499Y2003300D02*
G01*
X3742499Y1273299D01*
X3242500Y2003300D02*
G01*
X3242500Y1273299D01*
X8572500Y2003300D02*
G01*
X8758999Y2003300D01*
X8445500Y2003300D02*
G01*
X8259000Y2003300D01*
X8758999Y1273299D02*
G01*
X8259000Y1273299D01*
X8758999Y2003300D02*
G01*
X8758999Y1273299D01*
X8259000Y2003300D02*
G01*
X8259000Y1273299D01*
X8597900Y834900D02*
G01*
X8784399Y834900D01*
X8470900Y834900D02*
G01*
X8284400Y834900D01*
X8784399Y104899D02*
G01*
X8284400Y104899D01*
X8784399Y834900D02*
G01*
X8784399Y104899D01*
X8284400Y834900D02*
G01*
X8284400Y104899D01*
X6502699Y3993799D02*
G01*
X6502699Y3473800D01*
X6502699Y3473800D02*
G01*
X6222700Y3473800D01*
X6222700Y3993799D02*
G01*
X6222700Y3473800D01*
X6502699Y3993799D02*
G01*
X6222700Y3993799D01*
X6502699Y3897873D02*
G01*
X6222700Y3897873D01*
G75*
G01*
X1677924Y4487367D02*
G03*
X1954276Y4487367I138176J-220244D01*
G75*
G01*
X1690624Y2810967D02*
G03*
X1966976Y2810967I138176J-220244D01*
G75*
G01*
X1652524Y1058367D02*
G03*
X1928876Y1058367I138176J-220244D01*
G75*
G01*
X10098024Y2125167D02*
G03*
X10374376Y2125167I138176J-220244D01*
G75*
G01*
X10085324Y347167D02*
G03*
X10361676Y347167I138176J-220244D01*
G75*
G01*
X10047224Y4169867D02*
G03*
X10323576Y4169867I138176J-220244D01*
G75*
G01*
X10348214Y934720D02*
G03*
X10348214Y538480I-149840J-198120D01*
G75*
G01*
X10360914Y4782820D02*
G03*
X10360914Y4386580I-149840J-198120D01*
G75*
G01*
X10360914Y2712720D02*
G03*
X10360914Y2316480I-149840J-198120D01*
G75*
G01*
X3429000Y4035301D02*
G03*
X3556000Y4035301I63500J0D01*
D13*
G75*
G01*
X3106420Y4081780D02*
G03*
X3106674Y4081780I127J-15001D01*
D14*
G75*
G01*
X3342386Y3956840D02*
G03*
X3342894Y3956840I254J-29999D01*
D12*
G75*
G01*
X8445500Y3171701D02*
G03*
X8572500Y3171701I63500J0D01*
D13*
G75*
G01*
X8122920Y3218180D02*
G03*
X8123174Y3218180I127J-15001D01*
D14*
G75*
G01*
X8358886Y3093240D02*
G03*
X8359394Y3093240I254J-29999D01*
D15*
G75*
G01*
X4942703Y3627808D02*
G03*
X4942957Y3627808I127J-19999D01*
D12*
G75*
G01*
X3429000Y3032001D02*
G03*
X3556000Y3032001I63500J0D01*
D13*
G75*
G01*
X3106420Y3078480D02*
G03*
X3106674Y3078480I127J-15001D01*
D14*
G75*
G01*
X3342386Y2953540D02*
G03*
X3342894Y2953540I254J-29999D01*
D12*
G75*
G01*
X3429000Y2003301D02*
G03*
X3556000Y2003301I63500J0D01*
D13*
G75*
G01*
X3106420Y2049780D02*
G03*
X3106674Y2049780I127J-15001D01*
D14*
G75*
G01*
X3342386Y1924840D02*
G03*
X3342894Y1924840I254J-29999D01*
D12*
G75*
G01*
X8445500Y2003301D02*
G03*
X8572500Y2003301I63500J0D01*
D13*
G75*
G01*
X8122920Y2049780D02*
G03*
X8123174Y2049780I127J-15001D01*
D14*
G75*
G01*
X8358886Y1924840D02*
G03*
X8359394Y1924840I254J-29999D01*
D12*
G75*
G01*
X8470900Y834901D02*
G03*
X8597900Y834901I63500J0D01*
D13*
G75*
G01*
X8148320Y881380D02*
G03*
X8148574Y881380I127J-15001D01*
D14*
G75*
G01*
X8384286Y756440D02*
G03*
X8384794Y756440I254J-29999D01*
D12*
G75*
G01
X5673700Y5346700D02*
G03X5673700Y5346700I-200000J0D01*
G75*
G01
X5165700Y5346700D02*
G03X5165700Y5346700I-200000J0D01*
D13*
G75*
G01
X6193714Y4660900D02*
G03X6193714Y4660900I-250012J0D01*
G75*
G01
X4720514Y4648200D02*
G03X4720514Y4648200I-250012J0D01*
D12*
G75*
G01
X13275640Y5233949D02*
G03X13275640Y5233949I-50013J0D01*
G75*
G01
X13288340Y3201949D02*
G03X13288340Y3201949I-50013J0D01*
G75*
G01
X13275640Y1169949D02*
G03X13275640Y1169949I-50013J0D01*
M02*
